<ttFont>
    <TTGlyph name=".notdef" xMin="205" yMin="0" xMax="1330" yMax="1409">
      <contour>
        <pt x="205" y="1409" on="1"/>
        <pt x="1330" y="1409" on="1"/>
        <pt x="1330" y="0" on="1"/>
        <pt x="205" y="0" on="1"/>
      </contour>
      <contour>
        <pt x="281" y="1333" on="1"/>
        <pt x="281" y="76" on="1"/>
        <pt x="1254" y="76" on="1"/>
        <pt x="1254" y="1333" on="1"/>
      </contour>
    </TTGlyph>
    <TTGlyph name="A" xMin="-101" yMin="0" xMax="1256" yMax="1409">
      <contour>
        <pt x="1061" y="0" on="1"/>
        <pt x="986" y="412" on="1"/>
        <pt x="347" y="412" on="1"/>
        <pt x="107" y="0" on="1"/>
        <pt x="-101" y="0" on="1"/>
        <pt x="747" y="1409" on="1"/>
        <pt x="964" y="1409" on="1"/>
        <pt x="1256" y="0" on="1"/>
      </contour>
      <contour>
        <pt x="830" y="1265" on="1"/>
        <pt x="817" y="1239" on="0"/>
        <pt x="769" y="1153" on="0"/>
        <pt x="431" y="561" on="1"/>
        <pt x="958" y="561" on="1"/>
        <pt x="856" y="1114" on="1"/>
      </contour>
    </TTGlyph>
    <TTGlyph name="AE" xMin="-81" yMin="0" xMax="2067" yMax="1409">
      <contour>
        <pt x="863" y="0" on="1"/>
        <pt x="944" y="412" on="1"/>
        <pt x="401" y="412" on="1"/>
        <pt x="122" y="0" on="1"/>
        <pt x="-81" y="0" on="1"/>
        <pt x="878" y="1409" on="1"/>
        <pt x="2067" y="1409" on="1"/>
        <pt x="2037" y="1253" on="1"/>
        <pt x="1298" y="1253" on="1"/>
        <pt x="1210" y="801" on="1"/>
        <pt x="1889" y="801" on="1"/>
        <pt x="1859" y="647" on="1"/>
        <pt x="1180" y="647" on="1"/>
        <pt x="1085" y="156" on="1"/>
        <pt x="1865" y="156" on="1"/>
        <pt x="1834" y="0" on="1"/>
      </contour>
      <contour>
        <pt x="1109" y="1262" on="1"/>
        <pt x="958" y="1262" on="1"/>
        <pt x="822" y="1046" on="1"/>
        <pt x="500" y="561" on="1"/>
        <pt x="973" y="561" on="1"/>
      </contour>
    </TTGlyph>
    <TTGlyph name="AEacute" xMin="-81" yMin="0" xMax="2067" yMax="1776">
      <component glyphName="AE" x="0" y="0" flags="0x204"/>
      <component glyphName="acute.uc" x="996" y="0" flags="0x4"/>
    </TTGlyph>
    <TTGlyph name="Aacute" xMin="-83" yMin="0" xMax="1274" yMax="1776">
      <component glyphName="A" x="18" y="0" flags="0x204"/>
      <component glyphName="acute.uc" x="475" y="0" flags="0x4"/>
    </TTGlyph>
    <TTGlyph name="Abreve" xMin="-101" yMin="0" xMax="1256" yMax="1770">
      <component glyphName="A" x="0" y="0" flags="0x204"/>
      <component glyphName="breve.uc" x="445" y="0" flags="0x4"/>
    </TTGlyph>
    <TTGlyph name="Abreveacute" xMin="-101" yMin="0" xMax="1256" yMax="1835">
      <component glyphName="A" x="0" y="0" flags="0x204"/>
      <component glyphName="breveacute" x="896" y="0" flags="0x4"/>
    </TTGlyph>
    <TTGlyph name="Abrevedotbelow" xMin="-101" yMin="-311" xMax="1256" yMax="1770">
      <component glyphName="A" x="0" y="0" flags="0x204"/>
      <component glyphName="breve.uc" x="445" y="0" flags="0x4"/>
      <component glyphName="dotbelow.alt1" x="695" y="0" flags="0x4"/>
    </TTGlyph>
    <TTGlyph name="Abrevegrave" xMin="-101" yMin="0" xMax="1256" yMax="1835">
      <component glyphName="A" x="0" y="0" flags="0x204"/>
      <component glyphName="brevegrave" x="895" y="0" flags="0x4"/>
    </TTGlyph>
    <TTGlyph name="Abrevehookabove" xMin="-101" yMin="0" xMax="1256" yMax="1835">
      <component glyphName="A" x="0" y="0" flags="0x204"/>
      <component glyphName="brevehook" x="882" y="0" flags="0x4"/>
    </TTGlyph>
    <TTGlyph name="Abrevetilde" xMin="-101" yMin="0" xMax="1256" yMax="1835">
      <component glyphName="A" x="0" y="0" flags="0x204"/>
      <component glyphName="brevetilde" x="898" y="0" flags="0x4"/>
    </TTGlyph>
    <TTGlyph name="Acircumflex" xMin="-83" yMin="0" xMax="1274" yMax="1790">
      <component glyphName="A" x="18" y="0" flags="0x204"/>
      <component glyphName="circumflex.uc" x="337" y="0" flags="0x4"/>
    </TTGlyph>
    <TTGlyph name="Acircumflexacute" xMin="-101" yMin="0" xMax="1460" yMax="1835">
      <component glyphName="A" x="0" y="0" flags="0x204"/>
      <component glyphName="circumflexacute" x="895" y="0" flags="0x4"/>
    </TTGlyph>
    <TTGlyph name="Acircumflexdotbelow" xMin="-101" yMin="-311" xMax="1256" yMax="1790">
      <component glyphName="A" x="0" y="0" flags="0x204"/>
      <component glyphName="dotbelow.alt1" x="677" y="0" flags="0x4"/>
      <component glyphName="circumflex.uc" x="337" y="0" flags="0x4"/>
    </TTGlyph>
    <TTGlyph name="Acircumflexgrave" xMin="-101" yMin="0" xMax="1256" yMax="1835">
      <component glyphName="A" x="0" y="0" flags="0x204"/>
      <component glyphName="circumflexgrave" x="895" y="0" flags="0x4"/>
    </TTGlyph>
    <TTGlyph name="Acircumflexhookabove" xMin="-101" yMin="0" xMax="1361" yMax="1835">
      <component glyphName="A" x="0" y="0" flags="0x204"/>
      <component glyphName="circumflexhook" x="895" y="0" flags="0x4"/>
    </TTGlyph>
    <TTGlyph name="Acircumflextilde" xMin="-101" yMin="0" xMax="1256" yMax="1835">
      <component glyphName="A" x="0" y="0" flags="0x204"/>
      <component glyphName="circumflextilde" x="895" y="0" flags="0x4"/>
    </TTGlyph>
    <TTGlyph name="Adieresis" xMin="-83" yMin="0" xMax="1274" yMax="1714">
      <component glyphName="A" x="18" y="0" flags="0x204"/>
      <component glyphName="dieresis.uc" x="359" y="0" flags="0x4"/>
    </TTGlyph>
    <TTGlyph name="Adotbelow" xMin="-101" yMin="-311" xMax="1256" yMax="1409">
      <component glyphName="A" x="0" y="0" flags="0x204"/>
      <component glyphName="dotbelow.alt1" x="695" y="0" flags="0x4"/>
    </TTGlyph>
    <TTGlyph name="Agrave" xMin="-83" yMin="0" xMax="1274" yMax="1776">
      <component glyphName="A" x="18" y="0" flags="0x204"/>
      <component glyphName="grave.uc" x="306" y="0" flags="0x4"/>
    </TTGlyph>
    <TTGlyph name="Ahookabove" xMin="-101" yMin="0" xMax="1256" yMax="1866">
      <component glyphName="A" x="0" y="0" flags="0x204"/>
      <component glyphName="hookabovecomb" x="1301" y="318" flags="0x4"/>
    </TTGlyph>
    <TTGlyph name="Alpha" xMin="-101" yMin="0" xMax="1256" yMax="1409">
      <component glyphName="A" x="0" y="0" flags="0x204"/>
    </TTGlyph>
    <TTGlyph name="Alphatonos" xMin="-101" yMin="0" xMax="1256" yMax="1410">
      <component glyphName="A" x="0" y="0" flags="0x204"/>
      <component glyphName="tonos" x="-89" y="-133" flags="0x4"/>
    </TTGlyph>
    <TTGlyph name="Amacron" xMin="-101" yMin="0" xMax="1256" yMax="1697">
      <component glyphName="A" x="0" y="0" flags="0x204"/>
      <component glyphName="macron" x="435" y="334" flags="0x4"/>
    </TTGlyph>
    <TTGlyph name="Aogonek" xMin="-101" yMin="-427" xMax="1256" yMax="1409">
      <component glyphName="A" x="0" y="0" flags="0x204"/>
      <component glyphName="ogonek" x="786" y="0" flags="0x4"/>
    </TTGlyph>
    <TTGlyph name="Aring" xMin="-101" yMin="0" xMax="1256" yMax="1787">
      <component glyphName="A" x="0" y="0" flags="0x204"/>
      <component glyphName="ring" x="415" y="136" flags="0x4"/>
    </TTGlyph>
    <TTGlyph name="Aringacute" xMin="-101" yMin="0" xMax="1263" yMax="2077">
      <component glyphName="A" x="0" y="0" flags="0x204"/>
      <component glyphName="ring" x="413" y="136" flags="0x4"/>
      <component glyphName="acute.uc" x="524" y="301" flags="0x4"/>
    </TTGlyph>
    <TTGlyph name="Atilde" xMin="-83" yMin="0" xMax="1288" yMax="1798">
      <component glyphName="A" x="18" y="0" flags="0x204"/>
      <component glyphName="tilde.uc" x="350" y="0" flags="0x4"/>
    </TTGlyph>
    <TTGlyph name="B" xMin="63" yMin="0" xMax="1296" yMax="1409">
      <contour>
        <pt x="336" y="1409" on="1"/>
        <pt x="846" y="1409" on="1"/>
        <pt x="1055" y="1409" on="0"/>
        <pt x="1296" y="1236" on="0"/>
        <pt x="1296" y="1087" on="1"/>
        <pt x="1296" y="802" on="0"/>
        <pt x="957" y="743" on="1"/>
        <pt x="1095" y="720" on="0"/>
        <pt x="1247" y="557" on="0"/>
        <pt x="1247" y="439" on="1"/>
        <pt x="1247" y="226" on="0"/>
        <pt x="935" y="0" on="0"/>
        <pt x="658" y="0" on="1"/>
        <pt x="63" y="0" on="1"/>
      </contour>
      <contour>
        <pt x="411" y="810" on="1"/>
        <pt x="742" y="810" on="1"/>
        <pt x="1097" y="810" on="0"/>
        <pt x="1097" y="1068" on="1"/>
        <pt x="1097" y="1256" on="0"/>
        <pt x="829" y="1256" on="1"/>
        <pt x="498" y="1256" on="1"/>
      </contour>
      <contour>
        <pt x="283" y="153" on="1"/>
        <pt x="651" y="153" on="1"/>
        <pt x="861" y="153" on="0"/>
        <pt x="1056" y="300" on="0"/>
        <pt x="1056" y="442" on="1"/>
        <pt x="1056" y="549" on="0"/>
        <pt x="897" y="661" on="0"/>
        <pt x="748" y="661" on="1"/>
        <pt x="382" y="661" on="1"/>
      </contour>
    </TTGlyph>
    <TTGlyph name="Beta" xMin="63" yMin="0" xMax="1296" yMax="1409">
      <component glyphName="B" x="0" y="0" flags="0x204"/>
    </TTGlyph>
    <TTGlyph name="C" xMin="113" yMin="-20" xMax="1490" yMax="1430">
      <contour>
        <pt x="1358" y="337" on="1"/>
        <pt x="1232" y="149" on="0"/>
        <pt x="912" y="-20" on="0"/>
        <pt x="700" y="-20" on="1"/>
        <pt x="519" y="-20" on="0"/>
        <pt x="252" y="125" on="0"/>
        <pt x="113" y="393" on="0"/>
        <pt x="113" y="569" on="1"/>
        <pt x="113" y="815" on="0"/>
        <pt x="323" y="1213" on="0"/>
        <pt x="696" y="1430" on="0"/>
        <pt x="926" y="1430" on="1"/>
        <pt x="1143" y="1430" on="0"/>
        <pt x="1442" y="1249" on="0"/>
        <pt x="1490" y="1085" on="1"/>
        <pt x="1310" y="1030" on="1"/>
        <pt x="1274" y="1142" on="0"/>
        <pt x="1067" y="1274" on="0"/>
        <pt x="916" y="1274" on="1"/>
        <pt x="732" y="1274" on="0"/>
        <pt x="452" y="1097" on="0"/>
        <pt x="302" y="776" on="0"/>
        <pt x="302" y="566" on="1"/>
        <pt x="302" y="366" on="0"/>
        <pt x="520" y="135" on="0"/>
        <pt x="713" y="135" on="1"/>
        <pt x="861" y="135" on="0"/>
        <pt x="1117" y="282" on="0"/>
        <pt x="1215" y="426" on="1"/>
      </contour>
    </TTGlyph>
    <TTGlyph name="Cacute" xMin="113" yMin="-20" xMax="1490" yMax="1776">
      <component glyphName="C" x="0" y="0" flags="0x204"/>
      <component glyphName="acute.uc" x="595" y="0" flags="0x4"/>
    </TTGlyph>
    <TTGlyph name="Ccaron" xMin="113" yMin="-20" xMax="1490" yMax="1790">
      <component glyphName="C" x="0" y="0" flags="0x204"/>
      <component glyphName="caron.uc" x="424" y="0" flags="0x4"/>
    </TTGlyph>
    <TTGlyph name="Ccedilla" xMin="113" yMin="-425" xMax="1490" yMax="1430">
      <component glyphName="C" x="0" y="0" flags="0x204"/>
      <component glyphName="cedilla" x="390" y="0" flags="0x4"/>
    </TTGlyph>
    <TTGlyph name="Ccircumflex" xMin="113" yMin="-20" xMax="1490" yMax="1790">
      <component glyphName="C" x="0" y="0" flags="0x204"/>
      <component glyphName="circumflex.uc" x="429" y="0" flags="0x4"/>
    </TTGlyph>
    <TTGlyph name="Cdotaccent" xMin="113" yMin="-20" xMax="1490" yMax="1702">
      <component glyphName="C" x="0" y="0" flags="0x204"/>
      <component glyphName="dotaccent" x="525" y="218" flags="0x4"/>
    </TTGlyph>
    <TTGlyph name="Chi" xMin="-39" yMin="0" xMax="1430" yMax="1409">
      <component glyphName="X" x="0" y="0" flags="0x204"/>
    </TTGlyph>
    <TTGlyph name="D" xMin="63" yMin="0" xMax="1413" yMax="1409">
      <contour>
        <pt x="744" y="1409" on="1"/>
        <pt x="1056" y="1409" on="0"/>
        <pt x="1413" y="1080" on="0"/>
        <pt x="1413" y="791" on="1"/>
        <pt x="1413" y="555" on="0"/>
        <pt x="1207" y="201" on="0"/>
        <pt x="820" y="0" on="0"/>
        <pt x="575" y="0" on="1"/>
        <pt x="63" y="0" on="1"/>
        <pt x="336" y="1409" on="1"/>
      </contour>
      <contour>
        <pt x="283" y="153" on="1"/>
        <pt x="567" y="153" on="1"/>
        <pt x="762" y="153" on="0"/>
        <pt x="1060" y="308" on="0"/>
        <pt x="1219" y="599" on="0"/>
        <pt x="1219" y="793" on="1"/>
        <pt x="1219" y="1012" on="0"/>
        <pt x="967" y="1256" on="0"/>
        <pt x="740" y="1256" on="1"/>
        <pt x="498" y="1256" on="1"/>
      </contour>
    </TTGlyph>
    <TTGlyph name="Dcaron" xMin="63" yMin="0" xMax="1413" yMax="1790">
      <component glyphName="D" x="0" y="0" flags="0x204"/>
      <component glyphName="caron.uc" x="309" y="0" flags="0x4"/>
    </TTGlyph>
    <TTGlyph name="Dcroat" xMin="34" yMin="0" xMax="1433" yMax="1409">
      <component glyphName="Eth" x="0" y="0" flags="0x204"/>
    </TTGlyph>
    <TTGlyph name="Delta" xMin="-40" yMin="0" xMax="1232" yMax="1409">
      <contour>
        <pt x="751" y="1409" on="1"/>
        <pt x="968" y="1409" on="1"/>
        <pt x="1232" y="141" on="1"/>
        <pt x="1204" y="0" on="1"/>
        <pt x="-40" y="0" on="1"/>
        <pt x="-11" y="141" on="1"/>
      </contour>
      <contour>
        <pt x="1042" y="156" on="1"/>
        <pt x="871" y="1018" on="1"/>
        <pt x="856" y="1094" on="0"/>
        <pt x="836" y="1244" on="0"/>
        <pt x="836" y="1265" on="1"/>
        <pt x="821" y="1233" on="1"/>
        <pt x="764" y="1115" on="0"/>
        <pt x="705" y="1016" on="1"/>
        <pt x="199" y="156" on="1"/>
      </contour>
    </TTGlyph>
    <TTGlyph name="E" xMin="63" yMin="0" xMax="1385" yMax="1409">
      <contour>
        <pt x="63" y="0" on="1"/>
        <pt x="336" y="1409" on="1"/>
        <pt x="1385" y="1409" on="1"/>
        <pt x="1355" y="1253" on="1"/>
        <pt x="497" y="1253" on="1"/>
        <pt x="409" y="801" on="1"/>
        <pt x="1207" y="801" on="1"/>
        <pt x="1177" y="647" on="1"/>
        <pt x="379" y="647" on="1"/>
        <pt x="284" y="156" on="1"/>
        <pt x="1183" y="156" on="1"/>
        <pt x="1153" y="0" on="1"/>
      </contour>
    </TTGlyph>
    <TTGlyph name="Eacute" xMin="63" yMin="0" xMax="1385" yMax="1776">
      <component glyphName="E" x="0" y="0" flags="0x204"/>
      <component glyphName="acute.uc" x="459" y="0" flags="0x4"/>
    </TTGlyph>
    <TTGlyph name="Ebreve" xMin="63" yMin="0" xMax="1385" yMax="1770">
      <component glyphName="E" x="0" y="0" flags="0x204"/>
      <component glyphName="breve.uc" x="421" y="0" flags="0x4"/>
    </TTGlyph>
    <TTGlyph name="Ecaron" xMin="63" yMin="0" xMax="1385" yMax="1790">
      <component glyphName="E" x="0" y="0" flags="0x204"/>
      <component glyphName="caron.uc" x="353" y="0" flags="0x4"/>
    </TTGlyph>
    <TTGlyph name="Ecircumflex" xMin="63" yMin="0" xMax="1385" yMax="1790">
      <component glyphName="E" x="0" y="0" flags="0x204"/>
      <component glyphName="circumflex.uc" x="346" y="0" flags="0x4"/>
    </TTGlyph>
    <TTGlyph name="Ecircumflexacute" xMin="63" yMin="0" xMax="1482" yMax="1835">
      <component glyphName="E" x="0" y="0" flags="0x204"/>
      <component glyphName="circumflexacute" x="917" y="0" flags="0x4"/>
    </TTGlyph>
    <TTGlyph name="Ecircumflexdotbelow" xMin="63" yMin="-311" xMax="1385" yMax="1790">
      <component glyphName="E" x="0" y="0" flags="0x204"/>
      <component glyphName="dotbelow.alt1" x="737" y="0" flags="0x4"/>
      <component glyphName="caron.uc" x="353" y="0" flags="0x4"/>
    </TTGlyph>
    <TTGlyph name="Ecircumflexgrave" xMin="63" yMin="0" xMax="1385" yMax="1835">
      <component glyphName="E" x="0" y="0" flags="0x204"/>
      <component glyphName="circumflexgrave" x="895" y="0" flags="0x4"/>
    </TTGlyph>
    <TTGlyph name="Ecircumflexhookabove" xMin="63" yMin="0" xMax="1385" yMax="1835">
      <component glyphName="E" x="0" y="0" flags="0x204"/>
      <component glyphName="circumflexhook" x="895" y="0" flags="0x4"/>
    </TTGlyph>
    <TTGlyph name="Ecircumflextilde" xMin="63" yMin="0" xMax="1385" yMax="1835">
      <component glyphName="E" x="0" y="0" flags="0x204"/>
      <component glyphName="circumflextilde" x="895" y="0" flags="0x4"/>
    </TTGlyph>
    <TTGlyph name="Edieresis" xMin="63" yMin="0" xMax="1385" yMax="1714">
      <component glyphName="E" x="0" y="0" flags="0x204"/>
      <component glyphName="dieresis.uc" x="346" y="0" flags="0x4"/>
    </TTGlyph>
    <TTGlyph name="Edotaccent" xMin="63" yMin="0" xMax="1385" yMax="1702">
      <component glyphName="E" x="0" y="0" flags="0x204"/>
      <component glyphName="dotaccent" x="439" y="218" flags="0x4"/>
    </TTGlyph>
    <TTGlyph name="Edotbelow" xMin="63" yMin="-311" xMax="1385" yMax="1409">
      <component glyphName="E" x="0" y="0" flags="0x204"/>
      <component glyphName="dotbelow.alt1" x="737" y="0" flags="0x4"/>
    </TTGlyph>
    <TTGlyph name="Egrave" xMin="63" yMin="0" xMax="1385" yMax="1776">
      <component glyphName="E" x="0" y="0" flags="0x204"/>
      <component glyphName="grave.uc" x="300" y="0" flags="0x4"/>
    </TTGlyph>
    <TTGlyph name="Ehookabove" xMin="63" yMin="0" xMax="1385" yMax="1866">
      <component glyphName="E" x="0" y="0" flags="0x204"/>
      <component glyphName="hookabovecomb" x="1293" y="318" flags="0x4"/>
    </TTGlyph>
    <TTGlyph name="Emacron" xMin="63" yMin="0" xMax="1385" yMax="1697">
      <component glyphName="E" x="0" y="0" flags="0x204"/>
      <component glyphName="macron" x="466" y="334" flags="0x4"/>
    </TTGlyph>
    <TTGlyph name="Eng" xMin="63" yMin="-20" xMax="1408" yMax="1429">
      <contour>
        <pt x="852" y="-20" on="1"/>
        <pt x="741" y="-20" on="0"/>
        <pt x="584" y="67" on="0"/>
        <pt x="540" y="135" on="1"/>
        <pt x="681" y="243" on="1"/>
        <pt x="715" y="195" on="0"/>
        <pt x="810" y="133" on="0"/>
        <pt x="864" y="133" on="1"/>
        <pt x="936" y="133" on="0"/>
        <pt x="1030" y="204" on="0"/>
        <pt x="1095" y="360" on="0"/>
        <pt x="1132" y="546" on="1"/>
        <pt x="1205" y="924" on="1"/>
        <pt x="1219" y="994" on="0"/>
        <pt x="1219" y="1048" on="1"/>
        <pt x="1219" y="1274" on="0"/>
        <pt x="945" y="1274" on="1"/>
        <pt x="826" y="1274" on="0"/>
        <pt x="600" y="1169" on="0"/>
        <pt x="447" y="992" on="0"/>
        <pt x="427" y="891" on="1"/>
        <pt x="254" y="0" on="1"/>
        <pt x="63" y="0" on="1"/>
        <pt x="275" y="1092" on="1"/>
        <pt x="332" y="1409" on="1"/>
        <pt x="516" y="1409" on="1"/>
        <pt x="504" y="1318" on="0"/>
        <pt x="475" y="1158" on="1"/>
        <pt x="479" y="1158" on="1"/>
        <pt x="576" y="1291" on="0"/>
        <pt x="840" y="1429" on="0"/>
        <pt x="997" y="1429" on="1"/>
        <pt x="1408" y="1429" on="0"/>
        <pt x="1408" y="1072" on="1"/>
        <pt x="1408" y="995" on="0"/>
        <pt x="1391" y="904" on="1"/>
        <pt x="1321" y="542" on="1"/>
        <pt x="1269" y="276" on="0"/>
        <pt x="1163" y="75" on="0"/>
        <pt x="990" y="-20" on="0"/>
      </contour>
    </TTGlyph>
    <TTGlyph name="Eng.alt1" xMin="74" yMin="-425" xMax="1457" yMax="1429">
      <contour>
        <pt x="801" y="-425" on="1"/>
        <pt x="684" y="-425" on="0"/>
        <pt x="528" y="-355" on="0"/>
        <pt x="474" y="-277" on="1"/>
        <pt x="606" y="-170" on="1"/>
        <pt x="638" y="-215" on="0"/>
        <pt x="741" y="-272" on="0"/>
        <pt x="805" y="-272" on="1"/>
        <pt x="892" y="-272" on="0"/>
        <pt x="1006" y="-183" on="0"/>
        <pt x="1087" y="14" on="0"/>
        <pt x="1122" y="191" on="1"/>
        <pt x="1244" y="818" on="1"/>
        <pt x="1259" y="894" on="0"/>
        <pt x="1259" y="959" on="1"/>
        <pt x="1259" y="1111" on="0"/>
        <pt x="1106" y="1274" on="0"/>
        <pt x="961" y="1274" on="1"/>
        <pt x="841" y="1274" on="0"/>
        <pt x="612" y="1169" on="0"/>
        <pt x="457" y="991" on="0"/>
        <pt x="438" y="891" on="1"/>
        <pt x="265" y="0" on="1"/>
        <pt x="74" y="0" on="1"/>
        <pt x="286" y="1092" on="1"/>
        <pt x="344" y="1409" on="1"/>
        <pt x="528" y="1409" on="1"/>
        <pt x="507" y="1258" on="0"/>
        <pt x="486" y="1158" on="1"/>
        <pt x="490" y="1158" on="1"/>
        <pt x="588" y="1288" on="0"/>
        <pt x="887" y="1429" on="0"/>
        <pt x="1049" y="1429" on="1"/>
        <pt x="1253" y="1429" on="0"/>
        <pt x="1457" y="1216" on="0"/>
        <pt x="1457" y="1022" on="1"/>
        <pt x="1457" y="934" on="0"/>
        <pt x="1438" y="839" on="1"/>
        <pt x="1311" y="187" on="1"/>
        <pt x="1266" y="-41" on="0"/>
        <pt x="1138" y="-304" on="0"/>
        <pt x="948" y="-425" on="0"/>
      </contour>
    </TTGlyph>
    <TTGlyph name="Eng.alt2" xMin="63" yMin="-425" xMax="1480" yMax="1409">
      <contour>
        <pt x="894" y="-425" on="1"/>
        <pt x="838" y="-425" on="0"/>
        <pt x="765" y="-411" on="1"/>
        <pt x="788" y="-275" on="1"/>
        <pt x="840" y="-283" on="0"/>
        <pt x="871" y="-283" on="1"/>
        <pt x="930" y="-283" on="0"/>
        <pt x="989" y="-199" on="0"/>
        <pt x="1006" y="-107" on="1"/>
        <pt x="1027" y="0" on="1"/>
        <pt x="456" y="1212" on="1"/>
        <pt x="433" y="1055" on="0"/>
        <pt x="423" y="987" on="0"/>
        <pt x="233" y="0" on="1"/>
        <pt x="63" y="0" on="1"/>
        <pt x="336" y="1409" on="1"/>
        <pt x="547" y="1409" on="1"/>
        <pt x="1088" y="248" on="1"/>
        <pt x="1092" y="277" on="0"/>
        <pt x="1118" y="434" on="0"/>
        <pt x="1308" y="1409" on="1"/>
        <pt x="1480" y="1409" on="1"/>
        <pt x="1181" y="-134" on="1"/>
        <pt x="1150" y="-292" on="0"/>
        <pt x="1010" y="-425" on="0"/>
      </contour>
    </TTGlyph>
    <TTGlyph name="Eng.alt3" xMin="135" yMin="-22" xMax="1423" yMax="1429">
      <contour>
        <pt x="661" y="-20" on="1"/>
        <pt x="401" y="-20" on="0"/>
        <pt x="135" y="227" on="0"/>
        <pt x="135" y="489" on="1"/>
        <pt x="326" y="489" on="1"/>
        <pt x="326" y="306" on="0"/>
        <pt x="496" y="131" on="0"/>
        <pt x="670" y="131" on="1"/>
        <pt x="886" y="131" on="0"/>
        <pt x="1124" y="374" on="0"/>
        <pt x="1180" y="665" on="1"/>
        <pt x="1210" y="818" on="1"/>
        <pt x="1225" y="894" on="0"/>
        <pt x="1225" y="958" on="1"/>
        <pt x="1225" y="1111" on="0"/>
        <pt x="1069" y="1274" on="0"/>
        <pt x="926" y="1274" on="1"/>
        <pt x="806" y="1274" on="0"/>
        <pt x="578" y="1170" on="0"/>
        <pt x="423" y="990" on="0"/>
        <pt x="404" y="891" on="1"/>
        <pt x="367" y="700" on="1"/>
        <pt x="176" y="700" on="1"/>
        <pt x="298" y="1331" on="0"/>
        <pt x="309" y="1409" on="1"/>
        <pt x="493" y="1409" on="1"/>
        <pt x="479" y="1308" on="0"/>
        <pt x="456" y="1178" on="1"/>
        <pt x="460" y="1178" on="1"/>
        <pt x="554" y="1296" on="0"/>
        <pt x="843" y="1429" on="0"/>
        <pt x="1014" y="1429" on="1"/>
        <pt x="1213" y="1429" on="0"/>
        <pt x="1423" y="1221" on="0"/>
        <pt x="1423" y="1022" on="1"/>
        <pt x="1423" y="957" on="0"/>
        <pt x="1400" y="808" on="0"/>
        <pt x="1325" y="451" on="0"/>
        <pt x="1212" y="211" on="0"/>
        <pt x="1039" y="54" on="0"/>
        <pt x="805" y="-22" on="0"/>
      </contour>
    </TTGlyph>
    <TTGlyph name="Eogonek" xMin="63" yMin="-427" xMax="1385" yMax="1409">
      <component glyphName="E" x="0" y="0" flags="0x204"/>
      <component glyphName="ogonek" x="611" y="0" flags="0x4"/>
    </TTGlyph>
    <TTGlyph name="Epsilon" xMin="63" yMin="0" xMax="1385" yMax="1409">
      <component glyphName="E" x="0" y="0" flags="0x204"/>
    </TTGlyph>
    <TTGlyph name="Epsilontonos" xMin="76" yMin="0" xMax="1634" yMax="1410">
      <component glyphName="E" x="249" y="0" flags="0x4"/>
      <component glyphName="tonos" x="-157" y="-133" flags="0x4"/>
    </TTGlyph>
    <TTGlyph name="Eta" xMin="63" yMin="0" xMax="1481" yMax="1409">
      <component glyphName="H" x="0" y="0" flags="0x204"/>
    </TTGlyph>
    <TTGlyph name="Etatonos" xMin="73" yMin="0" xMax="1735" yMax="1410">
      <component glyphName="H" x="254" y="0" flags="0x4"/>
      <component glyphName="tonos" x="-160" y="-133" flags="0x4"/>
    </TTGlyph>
    <TTGlyph name="Eth" xMin="34" yMin="0" xMax="1433" yMax="1409">
      <contour>
        <pt x="764" y="1409" on="1"/>
        <pt x="1076" y="1409" on="0"/>
        <pt x="1433" y="1080" on="0"/>
        <pt x="1433" y="791" on="1"/>
        <pt x="1433" y="557" on="0"/>
        <pt x="1236" y="200" on="0"/>
        <pt x="855" y="0" on="0"/>
        <pt x="612" y="0" on="1"/>
        <pt x="63" y="0" on="1"/>
        <pt x="188" y="647" on="1"/>
        <pt x="34" y="647" on="1"/>
        <pt x="64" y="801" on="1"/>
        <pt x="218" y="801" on="1"/>
        <pt x="336" y="1409" on="1"/>
      </contour>
      <contour>
        <pt x="409" y="801" on="1"/>
        <pt x="815" y="801" on="1"/>
        <pt x="785" y="647" on="1"/>
        <pt x="379" y="647" on="1"/>
        <pt x="283" y="153" on="1"/>
        <pt x="587" y="153" on="1"/>
        <pt x="782" y="153" on="0"/>
        <pt x="1080" y="308" on="0"/>
        <pt x="1239" y="599" on="0"/>
        <pt x="1239" y="793" on="1"/>
        <pt x="1239" y="1012" on="0"/>
        <pt x="987" y="1256" on="0"/>
        <pt x="760" y="1256" on="1"/>
        <pt x="498" y="1256" on="1"/>
      </contour>
    </TTGlyph>
    <TTGlyph name="Etilde" xMin="63" yMin="0" xMax="1385" yMax="1800">
      <component glyphName="E" x="0" y="0" flags="0x204"/>
      <component glyphName="tilde" x="478" y="331" flags="0x4"/>
    </TTGlyph>
    <TTGlyph name="Euro" xMin="19" yMin="-18" xMax="1228" yMax="1430">
      <contour>
        <pt x="816" y="1283" on="1"/>
        <pt x="714" y="1283" on="0"/>
        <pt x="580" y="1208" on="0"/>
        <pt x="471" y="1051" on="0"/>
        <pt x="433" y="922" on="1"/>
        <pt x="897" y="922" on="1"/>
        <pt x="832" y="795" on="1"/>
        <pt x="402" y="795" on="1"/>
        <pt x="383" y="699" on="0"/>
        <pt x="377" y="631" on="1"/>
        <pt x="840" y="631" on="1"/>
        <pt x="775" y="502" on="1"/>
        <pt x="371" y="502" on="1"/>
        <pt x="373" y="318" on="0"/>
        <pt x="506" y="125" on="0"/>
        <pt x="630" y="125" on="1"/>
        <pt x="736" y="125" on="0"/>
        <pt x="869" y="230" on="0"/>
        <pt x="911" y="327" on="1"/>
        <pt x="1063" y="279" on="1"/>
        <pt x="1003" y="133" on="0"/>
        <pt x="778" y="-18" on="0"/>
        <pt x="619" y="-18" on="1"/>
        <pt x="420" y="-18" on="0"/>
        <pt x="194" y="254" on="0"/>
        <pt x="190" y="502" on="1"/>
        <pt x="19" y="502" on="1"/>
        <pt x="83" y="631" on="1"/>
        <pt x="195" y="631" on="1"/>
        <pt x="199" y="681" on="0"/>
        <pt x="218" y="788" on="0"/>
        <pt x="221" y="795" on="1"/>
        <pt x="75" y="795" on="1"/>
        <pt x="140" y="922" on="1"/>
        <pt x="253" y="922" on="1"/>
        <pt x="331" y="1179" on="0"/>
        <pt x="626" y="1429" on="0"/>
        <pt x="831" y="1430" on="1"/>
        <pt x="995" y="1430" on="0"/>
        <pt x="1200" y="1275" on="0"/>
        <pt x="1228" y="1126" on="1"/>
        <pt x="1057" y="1091" on="1"/>
        <pt x="1003" y="1279" on="0"/>
        <pt x="825" y="1283" on="1"/>
      </contour>
    </TTGlyph>
    <TTGlyph name="F" xMin="63" yMin="0" xMax="1347" yMax="1409">
      <contour>
        <pt x="497" y="1253" on="1"/>
        <pt x="395" y="729" on="1"/>
        <pt x="1191" y="729" on="1"/>
        <pt x="1160" y="571" on="1"/>
        <pt x="364" y="571" on="1"/>
        <pt x="254" y="0" on="1"/>
        <pt x="63" y="0" on="1"/>
        <pt x="336" y="1409" on="1"/>
        <pt x="1347" y="1409" on="1"/>
        <pt x="1317" y="1253" on="1"/>
      </contour>
    </TTGlyph>
    <TTGlyph name="G" xMin="101" yMin="-20" xMax="1505" yMax="1430">
      <contour>
        <pt x="742" y="-20" on="1"/>
        <pt x="437" y="-20" on="0"/>
        <pt x="101" y="292" on="0"/>
        <pt x="101" y="573" on="1"/>
        <pt x="101" y="822" on="0"/>
        <pt x="311" y="1215" on="0"/>
        <pt x="696" y="1430" on="0"/>
        <pt x="944" y="1430" on="1"/>
        <pt x="1166" y="1430" on="0"/>
        <pt x="1450" y="1262" on="0"/>
        <pt x="1505" y="1098" on="1"/>
        <pt x="1312" y="1044" on="1"/>
        <pt x="1275" y="1159" on="0"/>
        <pt x="1081" y="1274" on="0"/>
        <pt x="932" y="1274" on="1"/>
        <pt x="740" y="1274" on="0"/>
        <pt x="451" y="1102" on="0"/>
        <pt x="297" y="785" on="0"/>
        <pt x="297" y="577" on="1"/>
        <pt x="297" y="366" on="0"/>
        <pt x="533" y="135" on="0"/>
        <pt x="748" y="135" on="1"/>
        <pt x="886" y="135" on="0"/>
        <pt x="1138" y="214" on="0"/>
        <pt x="1231" y="291" on="1"/>
        <pt x="1282" y="545" on="1"/>
        <pt x="861" y="545" on="1"/>
        <pt x="893" y="705" on="1"/>
        <pt x="1490" y="705" on="1"/>
        <pt x="1390" y="210" on="1"/>
        <pt x="1250" y="90" on="0"/>
        <pt x="933" y="-20" on="0"/>
      </contour>
    </TTGlyph>
    <TTGlyph name="Gamma" xMin="63" yMin="1" xMax="1241" yMax="1410">
      <contour>
        <pt x="1241" y="1410" on="1"/>
        <pt x="1211" y="1254" on="1"/>
        <pt x="498" y="1254" on="1"/>
        <pt x="254" y="1" on="1"/>
        <pt x="63" y="1" on="1"/>
        <pt x="337" y="1410" on="1"/>
      </contour>
    </TTGlyph>
    <TTGlyph name="Gbreve" xMin="101" yMin="-20" xMax="1505" yMax="1770">
      <component glyphName="G" x="0" y="0" flags="0x204"/>
      <component glyphName="breve.uc" x="530" y="0" flags="0x4"/>
    </TTGlyph>
    <TTGlyph name="Gcircumflex" xMin="101" yMin="-20" xMax="1505" yMax="1790">
      <component glyphName="G" x="0" y="0" flags="0x204"/>
      <component glyphName="circumflex.uc" x="431" y="0" flags="0x4"/>
    </TTGlyph>
    <TTGlyph name="Gcommaaccent" xMin="101" yMin="-455" xMax="1505" yMax="1430">
      <component glyphName="G" x="0" y="0" flags="0x204"/>
      <component glyphName="commaaccent" x="489" y="0" flags="0x4"/>
    </TTGlyph>
    <TTGlyph name="Gdotaccent" xMin="101" yMin="-20" xMax="1505" yMax="1702">
      <component glyphName="G" x="0" y="0" flags="0x204"/>
      <component glyphName="dotaccent" x="527" y="218" flags="0x4"/>
    </TTGlyph>
    <TTGlyph name="H" xMin="63" yMin="0" xMax="1481" yMax="1409">
      <contour>
        <pt x="1021" y="0" on="1"/>
        <pt x="1148" y="653" on="1"/>
        <pt x="381" y="653" on="1"/>
        <pt x="254" y="0" on="1"/>
        <pt x="63" y="0" on="1"/>
        <pt x="337" y="1409" on="1"/>
        <pt x="528" y="1409" on="1"/>
        <pt x="412" y="813" on="1"/>
        <pt x="1179" y="813" on="1"/>
        <pt x="1295" y="1409" on="1"/>
        <pt x="1481" y="1409" on="1"/>
        <pt x="1207" y="0" on="1"/>
      </contour>
    </TTGlyph>
    <TTGlyph name="Hbar" xMin="62" yMin="0" xMax="1588" yMax="1409">
      <contour>
        <pt x="1020" y="0" on="1"/>
        <pt x="1146" y="653" on="1"/>
        <pt x="379" y="653" on="1"/>
        <pt x="253" y="0" on="1"/>
        <pt x="62" y="0" on="1"/>
        <pt x="261" y="1025" on="1"/>
        <pt x="107" y="1025" on="1"/>
        <pt x="137" y="1179" on="1"/>
        <pt x="291" y="1179" on="1"/>
        <pt x="335" y="1409" on="1"/>
        <pt x="526" y="1409" on="1"/>
        <pt x="482" y="1179" on="1"/>
        <pt x="1249" y="1179" on="1"/>
        <pt x="1293" y="1409" on="1"/>
        <pt x="1479" y="1409" on="1"/>
        <pt x="1435" y="1179" on="1"/>
        <pt x="1588" y="1179" on="1"/>
        <pt x="1558" y="1025" on="1"/>
        <pt x="1405" y="1025" on="1"/>
        <pt x="1206" y="0" on="1"/>
      </contour>
      <contour>
        <pt x="1178" y="813" on="1"/>
        <pt x="1219" y="1025" on="1"/>
        <pt x="452" y="1025" on="1"/>
        <pt x="411" y="813" on="1"/>
      </contour>
    </TTGlyph>
    <TTGlyph name="Hcircumflex" xMin="63" yMin="0" xMax="1481" yMax="1790">
      <component glyphName="H" x="0" y="0" flags="0x204"/>
      <component glyphName="circumflex.uc" x="398" y="0" flags="0x4"/>
    </TTGlyph>
    <TTGlyph name="I" xMin="81" yMin="0" xMax="546" yMax="1409">
      <contour>
        <pt x="81" y="0" on="1"/>
        <pt x="355" y="1409" on="1"/>
        <pt x="546" y="1409" on="1"/>
        <pt x="272" y="0" on="1"/>
      </contour>
    </TTGlyph>
    <TTGlyph name="IJ" xMin="81" yMin="-20" xMax="1518" yMax="1409">
      <component glyphName="I" x="0" y="0" flags="0x4"/>
      <component glyphName="J" x="478" y="0" flags="0x4"/>
    </TTGlyph>
    <TTGlyph name="Iacute" xMin="81" yMin="0" xMax="836" yMax="1776">
      <component glyphName="I" x="0" y="0" flags="0x204"/>
      <component glyphName="acute.uc" x="97" y="0" flags="0x4"/>
    </TTGlyph>
    <TTGlyph name="Ibreve" xMin="81" yMin="0" xMax="833" yMax="1770">
      <component glyphName="I" x="0" y="0" flags="0x204"/>
      <component glyphName="breve.uc" x="38" y="0" flags="0x4"/>
    </TTGlyph>
    <TTGlyph name="Icircumflex" xMin="81" yMin="0" xMax="794" yMax="1790">
      <component glyphName="I" x="0" y="0" flags="0x204"/>
      <component glyphName="circumflex.uc" x="-66" y="0" flags="0x4"/>
    </TTGlyph>
    <TTGlyph name="Idieresis" xMin="81" yMin="0" xMax="779" yMax="1714">
      <component glyphName="I" x="0" y="0" flags="0x204"/>
      <component glyphName="dieresis.uc" x="-60" y="0" flags="0x4"/>
    </TTGlyph>
    <TTGlyph name="Idotaccent" xMin="81" yMin="0" xMax="590" yMax="1702">
      <component glyphName="I" x="0" y="0" flags="0x204"/>
      <component glyphName="dotaccent" x="34" y="218" flags="0x4"/>
    </TTGlyph>
    <TTGlyph name="Idotbelow" xMin="22" yMin="-311" xMax="546" yMax="1409">
      <component glyphName="I" x="0" y="0" flags="0x204"/>
      <component glyphName="dotbelow.alt1" x="277" y="0" flags="0x4"/>
    </TTGlyph>
    <TTGlyph name="Igrave" xMin="81" yMin="0" xMax="596" yMax="1776">
      <component glyphName="I" x="0" y="0" flags="0x204"/>
      <component glyphName="grave.uc" x="-133" y="0" flags="0x4"/>
    </TTGlyph>
    <TTGlyph name="Ihookabove" xMin="81" yMin="0" xMax="722" yMax="1866">
      <component glyphName="I" x="0" y="0" flags="0x204"/>
      <component glyphName="hookabovecomb" x="890" y="318" flags="0x4"/>
    </TTGlyph>
    <TTGlyph name="Imacron" xMin="81" yMin="0" xMax="770" yMax="1697">
      <component glyphName="I" x="0" y="0" flags="0x204"/>
      <component glyphName="macron" x="52" y="334" flags="0x4"/>
    </TTGlyph>
    <TTGlyph name="Iogonek" xMin="-64" yMin="-427" xMax="546" yMax="1409">
      <component glyphName="I" x="0" y="0" flags="0x204"/>
      <component glyphName="ogonek" x="-135" y="0" flags="0x4"/>
    </TTGlyph>
    <TTGlyph name="Iota" xMin="81" yMin="0" xMax="546" yMax="1409">
      <component glyphName="I" x="0" y="0" flags="0x204"/>
    </TTGlyph>
    <TTGlyph name="Iotadieresis" xMin="81" yMin="0" xMax="786" yMax="1714">
      <component glyphName="I" x="0" y="0" flags="0x204"/>
      <component glyphName="dieresis.uc" x="-53" y="0" flags="0x4"/>
    </TTGlyph>
    <TTGlyph name="Iotatonos" xMin="73" yMin="0" xMax="773" yMax="1410">
      <component glyphName="I" x="227" y="0" flags="0x4"/>
      <component glyphName="tonos" x="-160" y="-133" flags="0x4"/>
    </TTGlyph>
    <TTGlyph name="Itilde" xMin="81" yMin="0" xMax="888" yMax="1798">
      <component glyphName="I" x="0" y="0" flags="0x204"/>
      <component glyphName="tilde.uc" x="-50" y="0" flags="0x4"/>
    </TTGlyph>
    <TTGlyph name="J" xMin="-5" yMin="-20" xMax="1040" yMax="1409">
      <contour>
        <pt x="381" y="-20" on="1"/>
        <pt x="222" y="-20" on="0"/>
        <pt x="21" y="166" on="0"/>
        <pt x="-5" y="343" on="1"/>
        <pt x="163" y="376" on="1"/>
        <pt x="186" y="259" on="0"/>
        <pt x="298" y="135" on="0"/>
        <pt x="398" y="135" on="1"/>
        <pt x="503" y="135" on="0"/>
        <pt x="633" y="280" on="0"/>
        <pt x="663" y="440" on="1"/>
        <pt x="820" y="1253" on="1"/>
        <pt x="529" y="1253" on="1"/>
        <pt x="559" y="1409" on="1"/>
        <pt x="1040" y="1409" on="1"/>
        <pt x="847" y="423" on="1"/>
        <pt x="804" y="199" on="0"/>
        <pt x="576" y="-20" on="0"/>
      </contour>
    </TTGlyph>
    <TTGlyph name="Jcircumflex" xMin="-5" yMin="-20" xMax="1171" yMax="1790">
      <component glyphName="J" x="0" y="0" flags="0x204"/>
      <component glyphName="circumflex.uc" x="311" y="0" flags="0x4"/>
    </TTGlyph>
    <TTGlyph name="K" xMin="63" yMin="0" xMax="1441" yMax="1409">
      <contour>
        <pt x="1022" y="0" on="1"/>
        <pt x="550" y="674" on="1"/>
        <pt x="360" y="545" on="1"/>
        <pt x="254" y="0" on="1"/>
        <pt x="63" y="0" on="1"/>
        <pt x="336" y="1409" on="1"/>
        <pt x="527" y="1409" on="1"/>
        <pt x="391" y="718" on="1"/>
        <pt x="531" y="847" on="1"/>
        <pt x="1196" y="1409" on="1"/>
        <pt x="1441" y="1409" on="1"/>
        <pt x="691" y="779" on="1"/>
        <pt x="1248" y="0" on="1"/>
      </contour>
    </TTGlyph>
    <TTGlyph name="Kappa" xMin="63" yMin="0" xMax="1441" yMax="1409">
      <component glyphName="K" x="0" y="0" flags="0x204"/>
    </TTGlyph>
    <TTGlyph name="Kcommaaccent" xMin="63" yMin="-455" xMax="1441" yMax="1409">
      <component glyphName="K" x="0" y="0" flags="0x204"/>
      <component glyphName="commaaccent" x="361" y="0" flags="0x4"/>
    </TTGlyph>
    <TTGlyph name="L" xMin="63" yMin="0" xMax="996" yMax="1409">
      <contour>
        <pt x="63" y="0" on="1"/>
        <pt x="336" y="1409" on="1"/>
        <pt x="527" y="1409" on="1"/>
        <pt x="284" y="156" on="1"/>
        <pt x="996" y="156" on="1"/>
        <pt x="966" y="0" on="1"/>
      </contour>
    </TTGlyph>
    <TTGlyph name="Lacute" xMin="63" yMin="0" xMax="996" yMax="1776">
      <component glyphName="L" x="0" y="0" flags="0x204"/>
      <component glyphName="acute.uc" x="173" y="0" flags="0x4"/>
    </TTGlyph>
    <TTGlyph name="Lambda" xMin="-94" yMin="1" xMax="1253" yMax="1410">
      <contour>
        <pt x="1253" y="1" on="1"/>
        <pt x="1058" y="1" on="1"/>
        <pt x="863" y="993" on="1"/>
        <pt x="844" y="1090" on="0"/>
        <pt x="828" y="1242" on="1"/>
        <pt x="762" y="1106" on="0"/>
        <pt x="695" y="993" on="1"/>
        <pt x="112" y="1" on="1"/>
        <pt x="-94" y="1" on="1"/>
        <pt x="754" y="1410" on="1"/>
        <pt x="952" y="1410" on="1"/>
      </contour>
    </TTGlyph>
    <TTGlyph name="Lcaron" xMin="63" yMin="0" xMax="1051" yMax="1409">
      <component glyphName="L" x="0" y="0" flags="0x204"/>
      <component glyphName="caroncommaaccent" x="533" y="0" flags="0x4"/>
    </TTGlyph>
    <TTGlyph name="Lcommaaccent" xMin="63" yMin="-455" xMax="996" yMax="1409">
      <component glyphName="L" x="0" y="0" flags="0x204"/>
      <component glyphName="commaaccent" x="264" y="0" flags="0x4"/>
    </TTGlyph>
    <TTGlyph name="Ldot" xMin="63" yMin="0" xMax="996" yMax="1409">
      <component glyphName="L" x="0" y="0" flags="0x204"/>
      <component glyphName="dotaccent" x="335" y="-626" flags="0x4"/>
    </TTGlyph>
    <TTGlyph name="Lslash" xMin="2" yMin="0" xMax="994" yMax="1409">
      <contour>
        <pt x="282" y="156" on="1"/>
        <pt x="994" y="156" on="1"/>
        <pt x="963" y="0" on="1"/>
        <pt x="60" y="0" on="1"/>
        <pt x="165" y="538" on="1"/>
        <pt x="2" y="453" on="1"/>
        <pt x="31" y="611" on="1"/>
        <pt x="196" y="696" on="1"/>
        <pt x="334" y="1409" on="1"/>
        <pt x="525" y="1409" on="1"/>
        <pt x="408" y="806" on="1"/>
        <pt x="714" y="954" on="1"/>
        <pt x="683" y="797" on="1"/>
        <pt x="377" y="648" on="1"/>
      </contour>
    </TTGlyph>
    <TTGlyph name="M" xMin="63" yMin="0" xMax="1706" yMax="1409">
      <contour>
        <pt x="1261" y="0" on="1"/>
        <pt x="1441" y="928" on="1"/>
        <pt x="1477" y="1113" on="0"/>
        <pt x="1506" y="1228" on="1"/>
        <pt x="1415" y="1039" on="0"/>
        <pt x="1361" y="948" on="1"/>
        <pt x="813" y="0" on="1"/>
        <pt x="689" y="0" on="1"/>
        <pt x="504" y="948" on="1"/>
        <pt x="498" y="977" on="0"/>
        <pt x="463" y="1228" on="1"/>
        <pt x="454" y="1168" on="0"/>
        <pt x="412" y="913" on="0"/>
        <pt x="233" y="0" on="1"/>
        <pt x="63" y="0" on="1"/>
        <pt x="336" y="1409" on="1"/>
        <pt x="572" y="1409" on="1"/>
        <pt x="761" y="432" on="1"/>
        <pt x="769" y="393" on="0"/>
        <pt x="793" y="227" on="1"/>
        <pt x="897" y="440" on="1"/>
        <pt x="1450" y="1409" on="1"/>
        <pt x="1706" y="1409" on="1"/>
        <pt x="1433" y="0" on="1"/>
      </contour>
    </TTGlyph>
    <TTGlyph name="Mu" xMin="63" yMin="0" xMax="1706" yMax="1409">
      <component glyphName="M" x="0" y="0" flags="0x204"/>
    </TTGlyph>
    <TTGlyph name="N" xMin="63" yMin="0" xMax="1480" yMax="1409">
      <contour>
        <pt x="987" y="0" on="1"/>
        <pt x="456" y="1210" on="1"/>
        <pt x="434" y="1039" on="0"/>
        <pt x="414" y="943" on="1"/>
        <pt x="233" y="0" on="1"/>
        <pt x="63" y="0" on="1"/>
        <pt x="336" y="1409" on="1"/>
        <pt x="548" y="1409" on="1"/>
        <pt x="1082" y="194" on="1"/>
        <pt x="1108" y="383" on="0"/>
        <pt x="1127" y="478" on="1"/>
        <pt x="1308" y="1409" on="1"/>
        <pt x="1480" y="1409" on="1"/>
        <pt x="1207" y="0" on="1"/>
      </contour>
    </TTGlyph>
    <TTGlyph name="Nacute" xMin="63" yMin="0" xMax="1480" yMax="1776">
      <component glyphName="N" x="0" y="0" flags="0x204"/>
      <component glyphName="acute.uc" x="529" y="0" flags="0x4"/>
    </TTGlyph>
    <TTGlyph name="Ncaron" xMin="63" yMin="0" xMax="1480" yMax="1790">
      <component glyphName="N" x="0" y="0" flags="0x204"/>
      <component glyphName="caron.uc" x="395" y="0" flags="0x4"/>
    </TTGlyph>
    <TTGlyph name="Ncommaaccent" xMin="63" yMin="-455" xMax="1480" yMax="1409">
      <component glyphName="N" x="0" y="0" flags="0x204"/>
      <component glyphName="commaaccent" x="369" y="0" flags="0x4"/>
    </TTGlyph>
    <TTGlyph name="Ntilde" xMin="63" yMin="0" xMax="1480" yMax="1798">
      <component glyphName="N" x="0" y="0" flags="0x204"/>
      <component glyphName="tilde.uc" x="398" y="0" flags="0x4"/>
    </TTGlyph>
    <TTGlyph name="Nu" xMin="63" yMin="0" xMax="1480" yMax="1409">
      <component glyphName="N" x="0" y="0" flags="0x204"/>
    </TTGlyph>
    <TTGlyph name="O" xMin="111" yMin="-20" xMax="1536" yMax="1430">
      <contour>
        <pt x="938" y="1430" on="1"/>
        <pt x="1215" y="1430" on="0"/>
        <pt x="1536" y="1116" on="0"/>
        <pt x="1536" y="851" on="1"/>
        <pt x="1531" y="583" on="0"/>
        <pt x="1317" y="192" on="0"/>
        <pt x="945" y="-20" on="0"/>
        <pt x="709" y="-20" on="1"/>
        <pt x="425" y="-20" on="0"/>
        <pt x="111" y="295" on="0"/>
        <pt x="111" y="573" on="1"/>
        <pt x="111" y="812" on="0"/>
        <pt x="322" y="1213" on="0"/>
        <pt x="700" y="1430" on="0"/>
      </contour>
      <contour>
        <pt x="929" y="1276" on="1"/>
        <pt x="729" y="1276" on="0"/>
        <pt x="450" y="1098" on="0"/>
        <pt x="302" y="744" on="0"/>
        <pt x="302" y="563" on="1"/>
        <pt x="302" y="354" on="0"/>
        <pt x="515" y="135" on="0"/>
        <pt x="718" y="135" on="1"/>
        <pt x="915" y="135" on="0"/>
        <pt x="1192" y="308" on="0"/>
        <pt x="1345" y="654" on="0"/>
        <pt x="1345" y="847" on="1"/>
        <pt x="1345" y="1054" on="0"/>
        <pt x="1128" y="1276" on="0"/>
      </contour>
    </TTGlyph>
    <TTGlyph name="OE" xMin="101" yMin="-10" xMax="2067" yMax="1420">
      <contour>
        <pt x="893" y="0" on="1"/>
        <pt x="817" y="-10" on="0"/>
        <pt x="702" y="-10" on="1"/>
        <pt x="420" y="-10" on="0"/>
        <pt x="101" y="302" on="0"/>
        <pt x="101" y="573" on="1"/>
        <pt x="101" y="819" on="0"/>
        <pt x="314" y="1208" on="0"/>
        <pt x="689" y="1420" on="0"/>
        <pt x="925" y="1420" on="1"/>
        <pt x="1045" y="1420" on="0"/>
        <pt x="1194" y="1409" on="1"/>
        <pt x="2067" y="1409" on="1"/>
        <pt x="2037" y="1253" on="1"/>
        <pt x="1327" y="1253" on="1"/>
        <pt x="1239" y="801" on="1"/>
        <pt x="1889" y="801" on="1"/>
        <pt x="1859" y="647" on="1"/>
        <pt x="1209" y="647" on="1"/>
        <pt x="1114" y="156" on="1"/>
        <pt x="1865" y="156" on="1"/>
        <pt x="1835" y="0" on="1"/>
      </contour>
      <contour>
        <pt x="712" y="145" on="1"/>
        <pt x="841" y="145" on="0"/>
        <pt x="923" y="156" on="1"/>
        <pt x="1136" y="1255" on="1"/>
        <pt x="1052" y="1266" on="0"/>
        <pt x="915" y="1266" on="1"/>
        <pt x="720" y="1266" on="0"/>
        <pt x="441" y="1094" on="0"/>
        <pt x="292" y="754" on="0"/>
        <pt x="292" y="563" on="1"/>
        <pt x="292" y="360" on="0"/>
        <pt x="511" y="145" on="0"/>
      </contour>
    </TTGlyph>
    <TTGlyph name="Oacute" xMin="111" yMin="-20" xMax="1536" yMax="1776">
      <component glyphName="O" x="0" y="0" flags="0x204"/>
      <component glyphName="acute.uc" x="549" y="0" flags="0x4"/>
    </TTGlyph>
    <TTGlyph name="Obreve" xMin="111" yMin="-20" xMax="1536" yMax="1770">
      <component glyphName="O" x="0" y="0" flags="0x204"/>
      <component glyphName="breve.uc" x="524" y="0" flags="0x4"/>
    </TTGlyph>
    <TTGlyph name="Ocircumflex" xMin="111" yMin="-20" xMax="1536" yMax="1790">
      <component glyphName="O" x="0" y="0" flags="0x204"/>
      <component glyphName="circumflex.uc" x="405" y="0" flags="0x4"/>
    </TTGlyph>
    <TTGlyph name="Ocircumflexacute" xMin="111" yMin="-20" xMax="1536" yMax="1835">
      <component glyphName="O" x="0" y="0" flags="0x204"/>
      <component glyphName="circumflexacute" x="967" y="0" flags="0x4"/>
    </TTGlyph>
    <TTGlyph name="Ocircumflexdotbelow" xMin="111" yMin="-311" xMax="1536" yMax="1790">
      <component glyphName="O" x="0" y="0" flags="0x204"/>
      <component glyphName="dotbelow.alt1" x="857" y="0" flags="0x4"/>
      <component glyphName="circumflex.uc" x="405" y="0" flags="0x4"/>
    </TTGlyph>
    <TTGlyph name="Ocircumflexgrave" xMin="111" yMin="-20" xMax="1536" yMax="1835">
      <component glyphName="O" x="0" y="0" flags="0x204"/>
      <component glyphName="circumflexgrave" x="967" y="0" flags="0x4"/>
    </TTGlyph>
    <TTGlyph name="Ocircumflexhookabove" xMin="111" yMin="-20" xMax="1536" yMax="1835">
      <component glyphName="O" x="0" y="0" flags="0x204"/>
      <component glyphName="circumflexhook" x="967" y="0" flags="0x4"/>
    </TTGlyph>
    <TTGlyph name="Ocircumflextilde" xMin="111" yMin="-20" xMax="1536" yMax="1835">
      <component glyphName="O" x="0" y="0" flags="0x204"/>
      <component glyphName="circumflextilde" x="967" y="0" flags="0x4"/>
    </TTGlyph>
    <TTGlyph name="Odieresis" xMin="111" yMin="-20" xMax="1536" yMax="1714">
      <component glyphName="O" x="0" y="0" flags="0x204"/>
      <component glyphName="dieresis.uc" x="417" y="0" flags="0x4"/>
    </TTGlyph>
    <TTGlyph name="Odotbelow" xMin="111" yMin="-311" xMax="1536" yMax="1430">
      <component glyphName="O" x="0" y="0" flags="0x204"/>
      <component glyphName="dotbelow.alt1" x="857" y="0" flags="0x4"/>
    </TTGlyph>
    <TTGlyph name="Ograve" xMin="111" yMin="-20" xMax="1536" yMax="1776">
      <component glyphName="O" x="0" y="0" flags="0x204"/>
      <component glyphName="grave.uc" x="333" y="0" flags="0x4"/>
    </TTGlyph>
    <TTGlyph name="Ohm" xMin="110" yMin="0" xMax="1466" yMax="1430">
      <contour>
        <pt x="788" y="1430" on="1"/>
        <pt x="1091" y="1430" on="0"/>
        <pt x="1438" y="1095" on="0"/>
        <pt x="1438" y="801" on="1"/>
        <pt x="1438" y="600" on="0"/>
        <pt x="1223" y="260" on="0"/>
        <pt x="1014" y="145" on="1"/>
        <pt x="1168" y="156" on="0"/>
        <pt x="1222" y="156" on="1"/>
        <pt x="1466" y="156" on="1"/>
        <pt x="1466" y="0" on="1"/>
        <pt x="877" y="0" on="1"/>
        <pt x="877" y="224" on="1"/>
        <pt x="1056" y="319" on="0"/>
        <pt x="1243" y="604" on="0"/>
        <pt x="1243" y="788" on="1"/>
        <pt x="1243" y="1020" on="0"/>
        <pt x="1005" y="1274" on="0"/>
        <pt x="789" y="1274" on="1"/>
        <pt x="571" y="1274" on="0"/>
        <pt x="333" y="1020" on="0"/>
        <pt x="333" y="788" on="1"/>
        <pt x="333" y="605" on="0"/>
        <pt x="519" y="320" on="0"/>
        <pt x="699" y="224" on="1"/>
        <pt x="699" y="0" on="1"/>
        <pt x="110" y="0" on="1"/>
        <pt x="110" y="156" on="1"/>
        <pt x="354" y="156" on="1"/>
        <pt x="408" y="156" on="0"/>
        <pt x="562" y="145" on="1"/>
        <pt x="354" y="258" on="0"/>
        <pt x="138" y="599" on="0"/>
        <pt x="138" y="801" on="1"/>
        <pt x="138" y="1095" on="0"/>
        <pt x="485" y="1430" on="0"/>
      </contour>
    </TTGlyph>
    <TTGlyph name="Ohookabove" xMin="111" yMin="-20" xMax="1536" yMax="1866">
      <component glyphName="O" x="0" y="0" flags="0x204"/>
      <component glyphName="hookabovecomb" x="1351" y="318" flags="0x4"/>
    </TTGlyph>
    <TTGlyph name="Ohorn" xMin="111" yMin="-20" xMax="1875" yMax="1430">
      <contour>
        <pt x="938" y="1430" on="1"/>
        <pt x="1167" y="1430" on="0"/>
        <pt x="1471" y="1212" on="0"/>
        <pt x="1517" y="1015" on="1"/>
        <pt x="1621" y="1062" on="0"/>
        <pt x="1717" y="1170" on="0"/>
        <pt x="1733" y="1242" on="1"/>
        <pt x="1645" y="1242" on="1"/>
        <pt x="1680" y="1409" on="1"/>
        <pt x="1875" y="1409" on="1"/>
        <pt x="1853" y="1303" on="1"/>
        <pt x="1824" y="1166" on="0"/>
        <pt x="1680" y="996" on="0"/>
        <pt x="1531" y="933" on="1"/>
        <pt x="1536" y="883" on="0"/>
        <pt x="1536" y="851" on="1"/>
        <pt x="1536" y="673" on="0"/>
        <pt x="1421" y="349" on="0"/>
        <pt x="1199" y="108" on="0"/>
        <pt x="890" y="-20" on="0"/>
        <pt x="709" y="-20" on="1"/>
        <pt x="425" y="-20" on="0"/>
        <pt x="111" y="295" on="0"/>
        <pt x="111" y="573" on="1"/>
        <pt x="111" y="812" on="0"/>
        <pt x="322" y="1213" on="0"/>
        <pt x="700" y="1430" on="0"/>
      </contour>
      <contour>
        <pt x="929" y="1276" on="1"/>
        <pt x="780" y="1276" on="0"/>
        <pt x="551" y="1178" on="0"/>
        <pt x="391" y="986" on="0"/>
        <pt x="302" y="698" on="0"/>
        <pt x="302" y="563" on="1"/>
        <pt x="302" y="354" on="0"/>
        <pt x="515" y="135" on="0"/>
        <pt x="718" y="135" on="1"/>
        <pt x="915" y="135" on="0"/>
        <pt x="1192" y="308" on="0"/>
        <pt x="1345" y="654" on="0"/>
        <pt x="1345" y="847" on="1"/>
        <pt x="1345" y="1054" on="0"/>
        <pt x="1128" y="1276" on="0"/>
      </contour>
    </TTGlyph>
    <TTGlyph name="Ohornacute" xMin="111" yMin="-20" xMax="1875" yMax="1776">
      <component glyphName="Ohorn" x="0" y="0" flags="0x204"/>
      <component glyphName="acute.uc" x="549" y="0" flags="0x4"/>
    </TTGlyph>
    <TTGlyph name="Ohorndotbelow" xMin="111" yMin="-311" xMax="1875" yMax="1430">
      <component glyphName="Ohorn" x="0" y="0" flags="0x204"/>
      <component glyphName="dotbelow.alt1" x="867" y="0" flags="0x4"/>
    </TTGlyph>
    <TTGlyph name="Ohorngrave" xMin="111" yMin="-20" xMax="1875" yMax="1776">
      <component glyphName="Ohorn" x="0" y="0" flags="0x204"/>
      <component glyphName="grave.uc" x="325" y="0" flags="0x4"/>
    </TTGlyph>
    <TTGlyph name="Ohornhookabove" xMin="111" yMin="-20" xMax="1875" yMax="1866">
      <component glyphName="Ohorn" x="0" y="0" flags="0x204"/>
      <component glyphName="hookabovecomb" x="1377" y="318" flags="0x4"/>
    </TTGlyph>
    <TTGlyph name="Ohorntilde" xMin="111" yMin="-20" xMax="1875" yMax="1798">
      <component glyphName="Ohorn" x="0" y="0" flags="0x204"/>
      <component glyphName="tilde.uc" x="398" y="0" flags="0x4"/>
    </TTGlyph>
    <TTGlyph name="Ohungarumlaut" xMin="111" yMin="-20" xMax="1536" yMax="1777">
      <component glyphName="O" x="0" y="0" flags="0x204"/>
      <component glyphName="hungarumlaut.uc" x="555" y="0" flags="0x4"/>
    </TTGlyph>
    <TTGlyph name="Omacron" xMin="111" yMin="-20" xMax="1536" yMax="1697">
      <component glyphName="O" x="0" y="0" flags="0x204"/>
      <component glyphName="macron" x="535" y="334" flags="0x4"/>
    </TTGlyph>
    <TTGlyph name="Omega" xMin="31" yMin="0" xMax="1488" yMax="1430">
      <contour>
        <pt x="889" y="1430" on="1"/>
        <pt x="1070" y="1430" on="0"/>
        <pt x="1342" y="1296" on="0"/>
        <pt x="1488" y="1045" on="0"/>
        <pt x="1488" y="876" on="1"/>
        <pt x="1488" y="604" on="0"/>
        <pt x="1195" y="233" on="0"/>
        <pt x="917" y="145" on="1"/>
        <pt x="1082" y="156" on="0"/>
        <pt x="1132" y="156" on="1"/>
        <pt x="1386" y="156" on="1"/>
        <pt x="1356" y="0" on="1"/>
        <pt x="767" y="0" on="1"/>
        <pt x="810" y="224" on="1"/>
        <pt x="1051" y="301" on="0"/>
        <pt x="1299" y="624" on="0"/>
        <pt x="1299" y="855" on="1"/>
        <pt x="1299" y="1053" on="0"/>
        <pt x="1080" y="1276" on="0"/>
        <pt x="882" y="1276" on="1"/>
        <pt x="730" y="1276" on="0"/>
        <pt x="486" y="1136" on="0"/>
        <pt x="351" y="877" on="0"/>
        <pt x="351" y="701" on="1"/>
        <pt x="351" y="538" on="0"/>
        <pt x="480" y="307" on="0"/>
        <pt x="623" y="224" on="1"/>
        <pt x="578" y="0" on="1"/>
        <pt x="31" y="0" on="1"/>
        <pt x="61" y="156" on="1"/>
        <pt x="264" y="156" on="1"/>
        <pt x="317" y="156" on="0"/>
        <pt x="500" y="145" on="1"/>
        <pt x="338" y="235" on="0"/>
        <pt x="160" y="536" on="0"/>
        <pt x="160" y="721" on="1"/>
        <pt x="160" y="927" on="0"/>
        <pt x="346" y="1252" on="0"/>
        <pt x="681" y="1430" on="0"/>
      </contour>
    </TTGlyph>
    <TTGlyph name="Omegatonos" xMin="-1" yMin="0" xMax="1517" yMax="1430">
      <component glyphName="Omega" x="29" y="0" flags="0x4"/>
      <component glyphName="tonos" x="-234" y="-133" flags="0x4"/>
    </TTGlyph>
    <TTGlyph name="Omicron" xMin="111" yMin="-20" xMax="1536" yMax="1430">
      <component glyphName="O" x="0" y="0" flags="0x204"/>
    </TTGlyph>
    <TTGlyph name="Omicrontonos" xMin="-9" yMin="-20" xMax="1569" yMax="1430">
      <component glyphName="O" x="33" y="0" flags="0x4"/>
      <component glyphName="tonos" x="-242" y="-133" flags="0x4"/>
    </TTGlyph>
    <TTGlyph name="Oslash" xMin="-56" yMin="-53" xMax="1691" yMax="1466">
      <contour>
        <pt x="1423" y="1205" on="1"/>
        <pt x="1526" y="1060" on="0"/>
        <pt x="1526" y="851" on="1"/>
        <pt x="1521" y="583" on="0"/>
        <pt x="1307" y="192" on="0"/>
        <pt x="935" y="-20" on="0"/>
        <pt x="699" y="-20" on="1"/>
        <pt x="447" y="-20" on="0"/>
        <pt x="294" y="104" on="1"/>
        <pt x="133" y="-53" on="1"/>
        <pt x="-56" y="-53" on="1"/>
        <pt x="204" y="201" on="1"/>
        <pt x="101" y="350" on="0"/>
        <pt x="101" y="573" on="1"/>
        <pt x="101" y="812" on="0"/>
        <pt x="312" y="1213" on="0"/>
        <pt x="690" y="1430" on="0"/>
        <pt x="928" y="1430" on="1"/>
        <pt x="1176" y="1430" on="0"/>
        <pt x="1332" y="1303" on="1"/>
        <pt x="1499" y="1466" on="1"/>
        <pt x="1691" y="1466" on="1"/>
      </contour>
      <contour>
        <pt x="919" y="1276" on="1"/>
        <pt x="719" y="1276" on="0"/>
        <pt x="440" y="1098" on="0"/>
        <pt x="292" y="744" on="0"/>
        <pt x="292" y="563" on="1"/>
        <pt x="292" y="427" on="0"/>
        <pt x="338" y="332" on="1"/>
        <pt x="1208" y="1182" on="1"/>
        <pt x="1099" y="1276" on="0"/>
      </contour>
      <contour>
        <pt x="1335" y="847" on="1"/>
        <pt x="1335" y="980" on="0"/>
        <pt x="1289" y="1074" on="1"/>
        <pt x="419" y="226" on="1"/>
        <pt x="524" y="135" on="0"/>
        <pt x="708" y="135" on="1"/>
        <pt x="905" y="135" on="0"/>
        <pt x="1182" y="308" on="0"/>
        <pt x="1335" y="654" on="0"/>
      </contour>
    </TTGlyph>
    <TTGlyph name="Oslashacute" xMin="-56" yMin="-53" xMax="1691" yMax="1776">
      <component glyphName="Oslash" x="0" y="0" flags="0x204"/>
      <component glyphName="acute.uc" x="587" y="0" flags="0x4"/>
    </TTGlyph>
    <TTGlyph name="Otilde" xMin="111" yMin="-20" xMax="1536" yMax="1798">
      <component glyphName="O" x="0" y="0" flags="0x204"/>
      <component glyphName="tilde.uc" x="449" y="0" flags="0x4"/>
    </TTGlyph>
    <TTGlyph name="P" xMin="63" yMin="0" xMax="1353" yMax="1409">
      <contour>
        <pt x="852" y="1409" on="1"/>
        <pt x="1083" y="1409" on="0"/>
        <pt x="1353" y="1201" on="0"/>
        <pt x="1353" y="1020" on="1"/>
        <pt x="1353" y="800" on="0"/>
        <pt x="1048" y="549" on="0"/>
        <pt x="784" y="549" on="1"/>
        <pt x="360" y="549" on="1"/>
        <pt x="254" y="0" on="1"/>
        <pt x="63" y="0" on="1"/>
        <pt x="336" y="1409" on="1"/>
      </contour>
      <contour>
        <pt x="390" y="700" on="1"/>
        <pt x="777" y="700" on="1"/>
        <pt x="1159" y="700" on="0"/>
        <pt x="1159" y="1011" on="1"/>
        <pt x="1159" y="1130" on="0"/>
        <pt x="1001" y="1256" on="0"/>
        <pt x="847" y="1256" on="1"/>
        <pt x="498" y="1256" on="1"/>
      </contour>
    </TTGlyph>
    <TTGlyph name="Phi" xMin="126" yMin="-11" xMax="1635" yMax="1419">
      <contour>
        <pt x="640" y="216" on="1"/>
        <pt x="405" y="216" on="0"/>
        <pt x="126" y="470" on="0"/>
        <pt x="126" y="686" on="1"/>
        <pt x="126" y="941" on="0"/>
        <pt x="453" y="1237" on="0"/>
        <pt x="726" y="1237" on="1"/>
        <pt x="887" y="1237" on="1"/>
        <pt x="922" y="1419" on="1"/>
        <pt x="1105" y="1419" on="1"/>
        <pt x="1072" y="1237" on="1"/>
        <pt x="1121" y="1237" on="1"/>
        <pt x="1355" y="1237" on="0"/>
        <pt x="1635" y="985" on="0"/>
        <pt x="1635" y="768" on="1"/>
        <pt x="1635" y="601" on="0"/>
        <pt x="1486" y="349" on="0"/>
        <pt x="1213" y="216" on="0"/>
        <pt x="1034" y="216" on="1"/>
        <pt x="874" y="216" on="1"/>
        <pt x="828" y="-11" on="1"/>
        <pt x="645" y="-11" on="1"/>
        <pt x="689" y="216" on="1"/>
      </contour>
      <contour>
        <pt x="901" y="358" on="1"/>
        <pt x="1025" y="358" on="1"/>
        <pt x="1226" y="358" on="0"/>
        <pt x="1441" y="564" on="0"/>
        <pt x="1441" y="759" on="1"/>
        <pt x="1441" y="919" on="0"/>
        <pt x="1265" y="1094" on="0"/>
        <pt x="1113" y="1094" on="1"/>
        <pt x="1044" y="1094" on="1"/>
      </contour>
      <contour>
        <pt x="859" y="1094" on="1"/>
        <pt x="735" y="1094" on="1"/>
        <pt x="534" y="1094" on="0"/>
        <pt x="320" y="888" on="0"/>
        <pt x="320" y="695" on="1"/>
        <pt x="320" y="535" on="0"/>
        <pt x="496" y="358" on="0"/>
        <pt x="646" y="358" on="1"/>
        <pt x="716" y="358" on="1"/>
      </contour>
    </TTGlyph>
    <TTGlyph name="Pi" xMin="63" yMin="0" xMax="1486" yMax="1409">
      <contour>
        <pt x="1021" y="0" on="1"/>
        <pt x="1264" y="1248" on="1"/>
        <pt x="497" y="1248" on="1"/>
        <pt x="254" y="0" on="1"/>
        <pt x="63" y="0" on="1"/>
        <pt x="337" y="1409" on="1"/>
        <pt x="1486" y="1409" on="1"/>
        <pt x="1212" y="0" on="1"/>
      </contour>
    </TTGlyph>
    <TTGlyph name="Psi" xMin="208" yMin="0" xMax="1730" yMax="1409">
      <contour>
        <pt x="653" y="0" on="1"/>
        <pt x="736" y="427" on="1"/>
        <pt x="685" y="427" on="1"/>
        <pt x="456" y="427" on="0"/>
        <pt x="208" y="631" on="0"/>
        <pt x="208" y="826" on="1"/>
        <pt x="208" y="897" on="0"/>
        <pt x="219" y="946" on="1"/>
        <pt x="309" y="1409" on="1"/>
        <pt x="500" y="1409" on="1"/>
        <pt x="410" y="942" on="1"/>
        <pt x="394" y="846" on="0"/>
        <pt x="394" y="814" on="1"/>
        <pt x="394" y="694" on="0"/>
        <pt x="551" y="568" on="0"/>
        <pt x="708" y="568" on="1"/>
        <pt x="764" y="568" on="1"/>
        <pt x="927" y="1409" on="1"/>
        <pt x="1112" y="1409" on="1"/>
        <pt x="949" y="568" on="1"/>
        <pt x="1051" y="566" on="1"/>
        <pt x="1168" y="566" on="0"/>
        <pt x="1326" y="641" on="0"/>
        <pt x="1421" y="794" on="0"/>
        <pt x="1449" y="942" on="1"/>
        <pt x="1539" y="1409" on="1"/>
        <pt x="1730" y="1409" on="1"/>
        <pt x="1632" y="902" on="1"/>
        <pt x="1584" y="657" on="0"/>
        <pt x="1284" y="427" on="0"/>
        <pt x="1026" y="427" on="1"/>
        <pt x="921" y="427" on="1"/>
        <pt x="838" y="0" on="1"/>
      </contour>
    </TTGlyph>
    <TTGlyph name="Q" xMin="101" yMin="-387" xMax="1526" yMax="1430">
      <contour>
        <pt x="928" y="1430" on="1"/>
        <pt x="1205" y="1430" on="0"/>
        <pt x="1526" y="1116" on="0"/>
        <pt x="1526" y="851" on="1"/>
        <pt x="1521" y="607" on="0"/>
        <pt x="1343" y="239" on="0"/>
        <pt x="1028" y="15" on="0"/>
        <pt x="822" y="-12" on="1"/>
        <pt x="839" y="-133" on="0"/>
        <pt x="939" y="-244" on="0"/>
        <pt x="1038" y="-244" on="1"/>
        <pt x="1096" y="-244" on="0"/>
        <pt x="1161" y="-231" on="1"/>
        <pt x="1143" y="-365" on="1"/>
        <pt x="1067" y="-387" on="0"/>
        <pt x="974" y="-387" on="1"/>
        <pt x="823" y="-387" on="0"/>
        <pt x="661" y="-215" on="0"/>
        <pt x="638" y="-17" on="1"/>
        <pt x="385" y="0" on="0"/>
        <pt x="101" y="310" on="0"/>
        <pt x="101" y="573" on="1"/>
        <pt x="101" y="812" on="0"/>
        <pt x="312" y="1213" on="0"/>
        <pt x="690" y="1430" on="0"/>
      </contour>
      <contour>
        <pt x="919" y="1276" on="1"/>
        <pt x="719" y="1276" on="0"/>
        <pt x="440" y="1098" on="0"/>
        <pt x="292" y="744" on="0"/>
        <pt x="292" y="563" on="1"/>
        <pt x="292" y="354" on="0"/>
        <pt x="505" y="135" on="0"/>
        <pt x="708" y="135" on="1"/>
        <pt x="905" y="135" on="0"/>
        <pt x="1182" y="308" on="0"/>
        <pt x="1335" y="654" on="0"/>
        <pt x="1335" y="847" on="1"/>
        <pt x="1335" y="1054" on="0"/>
        <pt x="1118" y="1276" on="0"/>
      </contour>
    </TTGlyph>
    <TTGlyph name="R" xMin="63" yMin="0" xMax="1416" yMax="1409">
      <contour>
        <pt x="1051" y="0" on="1"/>
        <pt x="808" y="585" on="1"/>
        <pt x="367" y="585" on="1"/>
        <pt x="254" y="0" on="1"/>
        <pt x="63" y="0" on="1"/>
        <pt x="336" y="1409" on="1"/>
        <pt x="948" y="1409" on="1"/>
        <pt x="1162" y="1409" on="0"/>
        <pt x="1416" y="1205" on="0"/>
        <pt x="1416" y="1039" on="1"/>
        <pt x="1416" y="851" on="0"/>
        <pt x="1200" y="631" on="0"/>
        <pt x="989" y="602" on="1"/>
        <pt x="1257" y="0" on="1"/>
      </contour>
      <contour>
        <pt x="857" y="736" on="1"/>
        <pt x="1038" y="736" on="0"/>
        <pt x="1222" y="887" on="0"/>
        <pt x="1222" y="1024" on="1"/>
        <pt x="1222" y="1136" on="0"/>
        <pt x="1073" y="1256" on="0"/>
        <pt x="925" y="1256" on="1"/>
        <pt x="498" y="1256" on="1"/>
        <pt x="397" y="736" on="1"/>
      </contour>
    </TTGlyph>
    <TTGlyph name="Racute" xMin="63" yMin="0" xMax="1416" yMax="1776">
      <component glyphName="R" x="0" y="0" flags="0x204"/>
      <component glyphName="acute.uc" x="450" y="0" flags="0x4"/>
    </TTGlyph>
    <TTGlyph name="Rcaron" xMin="63" yMin="0" xMax="1416" yMax="1790">
      <component glyphName="R" x="0" y="0" flags="0x204"/>
      <component glyphName="caron.uc" x="322" y="0" flags="0x4"/>
    </TTGlyph>
    <TTGlyph name="Rcommaaccent" xMin="63" yMin="-455" xMax="1416" yMax="1409">
      <component glyphName="R" x="0" y="0" flags="0x204"/>
      <component glyphName="commaaccent" x="394" y="0" flags="0x4"/>
    </TTGlyph>
    <TTGlyph name="Rho" xMin="63" yMin="0" xMax="1353" yMax="1409">
      <component glyphName="P" x="0" y="0" flags="0x204"/>
    </TTGlyph>
    <TTGlyph name="S" xMin="58" yMin="-20" xMax="1344" yMax="1430">
      <contour>
        <pt x="616" y="-20" on="1"/>
        <pt x="367" y="-20" on="0"/>
        <pt x="92" y="157" on="0"/>
        <pt x="58" y="338" on="1"/>
        <pt x="235" y="375" on="1"/>
        <pt x="262" y="246" on="0"/>
        <pt x="448" y="130" on="0"/>
        <pt x="630" y="130" on="1"/>
        <pt x="849" y="130" on="0"/>
        <pt x="1051" y="261" on="0"/>
        <pt x="1051" y="396" on="1"/>
        <pt x="1051" y="463" on="0"/>
        <pt x="993" y="544" on="0"/>
        <pt x="853" y="609" on="0"/>
        <pt x="682" y="657" on="1"/>
        <pt x="511" y="704" on="0"/>
        <pt x="342" y="803" on="0"/>
        <pt x="255" y="943" on="0"/>
        <pt x="255" y="1041" on="1"/>
        <pt x="255" y="1223" on="0"/>
        <pt x="562" y="1430" on="0"/>
        <pt x="824" y="1430" on="1"/>
        <pt x="1044" y="1430" on="0"/>
        <pt x="1310" y="1278" on="0"/>
        <pt x="1344" y="1132" on="1"/>
        <pt x="1171" y="1081" on="1"/>
        <pt x="1138" y="1186" on="0"/>
        <pt x="967" y="1286" on="0"/>
        <pt x="823" y="1286" on="1"/>
        <pt x="447" y="1286" on="0"/>
        <pt x="447" y="1050" on="1"/>
        <pt x="447" y="990" on="0"/>
        <pt x="498" y="914" on="0"/>
        <pt x="615" y="857" on="0"/>
        <pt x="789" y="810" on="1"/>
        <pt x="984" y="756" on="0"/>
        <pt x="1155" y="656" on="0"/>
        <pt x="1246" y="513" on="0"/>
        <pt x="1246" y="408" on="1"/>
        <pt x="1246" y="202" on="0"/>
        <pt x="936" y="-20" on="0"/>
      </contour>
    </TTGlyph>
    <TTGlyph name="Sacute" xMin="58" yMin="-20" xMax="1344" yMax="1776">
      <component glyphName="S" x="0" y="0" flags="0x204"/>
      <component glyphName="acute.uc" x="435" y="0" flags="0x4"/>
    </TTGlyph>
    <TTGlyph name="Scaron" xMin="58" yMin="-20" xMax="1344" yMax="1790">
      <component glyphName="S" x="0" y="0" flags="0x204"/>
      <component glyphName="caron.uc" x="315" y="0" flags="0x4"/>
    </TTGlyph>
    <TTGlyph name="Scedilla" xMin="58" yMin="-425" xMax="1344" yMax="1430">
      <component glyphName="S" x="0" y="0" flags="0x204"/>
      <component glyphName="cedilla" x="316" y="0" flags="0x4"/>
    </TTGlyph>
    <TTGlyph name="Scircumflex" xMin="58" yMin="-20" xMax="1344" yMax="1818">
      <component glyphName="S" x="0" y="0" flags="0x204"/>
      <component glyphName="circumflex" x="437" y="327" flags="0x4"/>
    </TTGlyph>
    <TTGlyph name="Scommaaccent" xMin="58" yMin="-455" xMax="1344" yMax="1430">
      <component glyphName="S" x="0" y="0" flags="0x204"/>
      <component glyphName="commaaccent" x="375" y="0" flags="0x4"/>
    </TTGlyph>
    <TTGlyph name="Sigma" xMin="-6" yMin="0" xMax="1283" yMax="1409">
      <contour>
        <pt x="-6" y="0" on="1"/>
        <pt x="27" y="171" on="1"/>
        <pt x="678" y="752" on="1"/>
        <pt x="255" y="1257" on="1"/>
        <pt x="284" y="1409" on="1"/>
        <pt x="1283" y="1409" on="1"/>
        <pt x="1253" y="1253" on="1"/>
        <pt x="463" y="1253" on="1"/>
        <pt x="847" y="796" on="1"/>
        <pt x="823" y="681" on="1"/>
        <pt x="234" y="156" on="1"/>
        <pt x="1101" y="156" on="1"/>
        <pt x="1070" y="0" on="1"/>
      </contour>
    </TTGlyph>
    <TTGlyph name="T" xMin="184" yMin="0" xMax="1372" yMax="1409">
      <contour>
        <pt x="858" y="1253" on="1"/>
        <pt x="614" y="0" on="1"/>
        <pt x="424" y="0" on="1"/>
        <pt x="668" y="1253" on="1"/>
        <pt x="184" y="1253" on="1"/>
        <pt x="214" y="1409" on="1"/>
        <pt x="1372" y="1409" on="1"/>
        <pt x="1342" y="1253" on="1"/>
      </contour>
    </TTGlyph>
    <TTGlyph name="Tau" xMin="184" yMin="0" xMax="1372" yMax="1409">
      <component glyphName="T" x="0" y="0" flags="0x204"/>
    </TTGlyph>
    <TTGlyph name="Tbar" xMin="184" yMin="0" xMax="1372" yMax="1409">
      <contour>
        <pt x="858" y="1253" on="1"/>
        <pt x="770" y="801" on="1"/>
        <pt x="1051" y="801" on="1"/>
        <pt x="1021" y="647" on="1"/>
        <pt x="740" y="647" on="1"/>
        <pt x="615" y="0" on="1"/>
        <pt x="425" y="0" on="1"/>
        <pt x="550" y="647" on="1"/>
        <pt x="271" y="647" on="1"/>
        <pt x="301" y="801" on="1"/>
        <pt x="580" y="801" on="1"/>
        <pt x="668" y="1253" on="1"/>
        <pt x="184" y="1253" on="1"/>
        <pt x="214" y="1409" on="1"/>
        <pt x="1372" y="1409" on="1"/>
        <pt x="1342" y="1253" on="1"/>
      </contour>
    </TTGlyph>
    <TTGlyph name="Tcaron" xMin="184" yMin="0" xMax="1372" yMax="1790">
      <component glyphName="T" x="0" y="0" flags="0x204"/>
      <component glyphName="caron.uc" x="279" y="0" flags="0x4"/>
    </TTGlyph>
    <TTGlyph name="Tcommaaccent" xMin="184" yMin="-425" xMax="1372" yMax="1409">
      <component glyphName="T" x="0" y="0" flags="0x204"/>
      <component glyphName="cedilla" x="201" y="0" flags="0x4"/>
    </TTGlyph>
    <TTGlyph name="Theta" xMin="101" yMin="-20" xMax="1526" yMax="1430">
      <contour>
        <pt x="541" y="794" on="1"/>
        <pt x="1128" y="794" on="1"/>
        <pt x="1097" y="634" on="1"/>
        <pt x="510" y="634" on="1"/>
      </contour>
      <contour>
        <pt x="928" y="1430" on="1"/>
        <pt x="1205" y="1430" on="0"/>
        <pt x="1526" y="1116" on="0"/>
        <pt x="1526" y="851" on="1"/>
        <pt x="1521" y="583" on="0"/>
        <pt x="1307" y="192" on="0"/>
        <pt x="935" y="-20" on="0"/>
        <pt x="699" y="-20" on="1"/>
        <pt x="415" y="-20" on="0"/>
        <pt x="101" y="295" on="0"/>
        <pt x="101" y="573" on="1"/>
        <pt x="101" y="812" on="0"/>
        <pt x="312" y="1213" on="0"/>
        <pt x="690" y="1430" on="0"/>
      </contour>
      <contour>
        <pt x="919" y="1276" on="1"/>
        <pt x="719" y="1276" on="0"/>
        <pt x="440" y="1098" on="0"/>
        <pt x="292" y="744" on="0"/>
        <pt x="292" y="563" on="1"/>
        <pt x="292" y="354" on="0"/>
        <pt x="505" y="135" on="0"/>
        <pt x="708" y="135" on="1"/>
        <pt x="905" y="135" on="0"/>
        <pt x="1182" y="308" on="0"/>
        <pt x="1335" y="654" on="0"/>
        <pt x="1335" y="847" on="1"/>
        <pt x="1335" y="1054" on="0"/>
        <pt x="1118" y="1276" on="0"/>
      </contour>
    </TTGlyph>
    <TTGlyph name="Thorn" xMin="63" yMin="0" xMax="1307" yMax="1409">
      <contour>
        <pt x="254" y="0" on="1"/>
        <pt x="63" y="0" on="1"/>
        <pt x="337" y="1409" on="1"/>
        <pt x="528" y="1409" on="1"/>
        <pt x="479" y="1157" on="1"/>
        <pt x="806" y="1157" on="1"/>
        <pt x="1043" y="1157" on="0"/>
        <pt x="1307" y="953" on="0"/>
        <pt x="1307" y="768" on="1"/>
        <pt x="1307" y="548" on="0"/>
        <pt x="1002" y="297" on="0"/>
        <pt x="738" y="297" on="1"/>
        <pt x="314" y="297" on="1"/>
      </contour>
      <contour>
        <pt x="344" y="448" on="1"/>
        <pt x="731" y="448" on="1"/>
        <pt x="1113" y="448" on="0"/>
        <pt x="1113" y="759" on="1"/>
        <pt x="1113" y="878" on="0"/>
        <pt x="955" y="1004" on="0"/>
        <pt x="801" y="1004" on="1"/>
        <pt x="452" y="1004" on="1"/>
      </contour>
    </TTGlyph>
    <TTGlyph name="U" xMin="153" yMin="-20" xMax="1489" yMax="1409">
      <contour>
        <pt x="654" y="-20" on="1"/>
        <pt x="421" y="-20" on="0"/>
        <pt x="153" y="221" on="0"/>
        <pt x="153" y="431" on="1"/>
        <pt x="153" y="475" on="0"/>
        <pt x="168" y="598" on="0"/>
        <pt x="176" y="635" on="1"/>
        <pt x="326" y="1409" on="1"/>
        <pt x="517" y="1409" on="1"/>
        <pt x="355" y="566" on="1"/>
        <pt x="338" y="479" on="0"/>
        <pt x="338" y="423" on="1"/>
        <pt x="338" y="287" on="0"/>
        <pt x="513" y="135" on="0"/>
        <pt x="670" y="135" on="1"/>
        <pt x="1054" y="135" on="0"/>
        <pt x="1131" y="541" on="1"/>
        <pt x="1299" y="1409" on="1"/>
        <pt x="1489" y="1409" on="1"/>
        <pt x="1319" y="530" on="1"/>
        <pt x="1265" y="257" on="0"/>
        <pt x="929" y="-20" on="0"/>
      </contour>
    </TTGlyph>
    <TTGlyph name="Uacute" xMin="153" yMin="-20" xMax="1489" yMax="1776">
      <component glyphName="U" x="0" y="0" flags="0x204"/>
      <component glyphName="acute.uc" x="508" y="0" flags="0x4"/>
    </TTGlyph>
    <TTGlyph name="Ubreve" xMin="153" yMin="-20" xMax="1489" yMax="1770">
      <component glyphName="U" x="0" y="0" flags="0x204"/>
      <component glyphName="breve.uc" x="487" y="0" flags="0x4"/>
    </TTGlyph>
    <TTGlyph name="Ucircumflex" xMin="153" yMin="-20" xMax="1489" yMax="1790">
      <component glyphName="U" x="0" y="0" flags="0x204"/>
      <component glyphName="circumflex.uc" x="389" y="0" flags="0x4"/>
    </TTGlyph>
    <TTGlyph name="Udieresis" xMin="153" yMin="-20" xMax="1489" yMax="1714">
      <component glyphName="U" x="0" y="0" flags="0x204"/>
      <component glyphName="dieresis.uc" x="387" y="0" flags="0x4"/>
    </TTGlyph>
    <TTGlyph name="Udotbelow" xMin="153" yMin="-311" xMax="1489" yMax="1409">
      <component glyphName="U" x="0" y="0" flags="0x204"/>
      <component glyphName="dotbelow.alt1" x="737" y="0" flags="0x4"/>
    </TTGlyph>
    <TTGlyph name="Ugrave" xMin="153" yMin="-20" xMax="1489" yMax="1776">
      <component glyphName="U" x="0" y="0" flags="0x204"/>
      <component glyphName="grave.uc" x="345" y="0" flags="0x4"/>
    </TTGlyph>
    <TTGlyph name="Uhookabove" xMin="153" yMin="-20" xMax="1489" yMax="1866">
      <component glyphName="U" x="0" y="0" flags="0x204"/>
      <component glyphName="hookabovecomb" x="1318" y="318" flags="0x4"/>
    </TTGlyph>
    <TTGlyph name="Uhorn" xMin="153" yMin="-20" xMax="1839" yMax="1409">
      <contour>
        <pt x="654" y="-20" on="1"/>
        <pt x="422" y="-20" on="0"/>
        <pt x="153" y="220" on="0"/>
        <pt x="153" y="431" on="1"/>
        <pt x="153" y="520" on="0"/>
        <pt x="176" y="635" on="1"/>
        <pt x="326" y="1409" on="1"/>
        <pt x="517" y="1409" on="1"/>
        <pt x="355" y="566" on="1"/>
        <pt x="338" y="479" on="0"/>
        <pt x="338" y="423" on="1"/>
        <pt x="338" y="287" on="0"/>
        <pt x="513" y="135" on="0"/>
        <pt x="670" y="135" on="1"/>
        <pt x="1054" y="135" on="0"/>
        <pt x="1131" y="541" on="1"/>
        <pt x="1299" y="1409" on="1"/>
        <pt x="1489" y="1409" on="1"/>
        <pt x="1411" y="1006" on="1"/>
        <pt x="1657" y="1053" on="0"/>
        <pt x="1697" y="1242" on="1"/>
        <pt x="1609" y="1242" on="1"/>
        <pt x="1644" y="1409" on="1"/>
        <pt x="1839" y="1409" on="1"/>
        <pt x="1818" y="1308" on="1"/>
        <pt x="1782" y="1131" on="0"/>
        <pt x="1578" y="945" on="0"/>
        <pt x="1393" y="915" on="1"/>
        <pt x="1319" y="530" on="1"/>
        <pt x="1268" y="261" on="0"/>
        <pt x="932" y="-20" on="0"/>
      </contour>
    </TTGlyph>
    <TTGlyph name="Uhornacute" xMin="153" yMin="-20" xMax="1839" yMax="1776">
      <component glyphName="Uhorn" x="0" y="0" flags="0x204"/>
      <component glyphName="acute.uc" x="508" y="0" flags="0x4"/>
    </TTGlyph>
    <TTGlyph name="Uhorndotbelow" xMin="153" yMin="-311" xMax="1839" yMax="1409">
      <component glyphName="Uhorn" x="0" y="0" flags="0x204"/>
      <component glyphName="dotbelow.alt1" x="737" y="0" flags="0x4"/>
    </TTGlyph>
    <TTGlyph name="Uhorngrave" xMin="153" yMin="-20" xMax="1839" yMax="1776">
      <component glyphName="Uhorn" x="0" y="0" flags="0x204"/>
      <component glyphName="grave.uc" x="306" y="0" flags="0x4"/>
    </TTGlyph>
    <TTGlyph name="Uhornhookabove" xMin="153" yMin="-20" xMax="1839" yMax="1866">
      <component glyphName="Uhorn" x="0" y="0" flags="0x204"/>
      <component glyphName="hookabovecomb" x="1323" y="318" flags="0x4"/>
    </TTGlyph>
    <TTGlyph name="Uhorntilde" xMin="153" yMin="-20" xMax="1839" yMax="1800">
      <component glyphName="Uhorn" x="0" y="0" flags="0x204"/>
      <component glyphName="tilde" x="506" y="331" flags="0x4"/>
    </TTGlyph>
    <TTGlyph name="Uhungarumlaut" xMin="153" yMin="-20" xMax="1489" yMax="1777">
      <component glyphName="U" x="0" y="0" flags="0x204"/>
      <component glyphName="hungarumlaut.uc" x="503" y="0" flags="0x4"/>
    </TTGlyph>
    <TTGlyph name="Umacron" xMin="153" yMin="-20" xMax="1489" yMax="1692">
      <component glyphName="U" x="0" y="0" flags="0x204"/>
      <component glyphName="macron" x="504" y="329" flags="0x4"/>
    </TTGlyph>
    <TTGlyph name="Uogonek" xMin="153" yMin="-427" xMax="1489" yMax="1409">
      <component glyphName="U" x="0" y="0" flags="0x4"/>
      <component glyphName="ogonek" x="434" y="0" flags="0x4"/>
    </TTGlyph>
    <TTGlyph name="Upsilon" xMin="213" yMin="0" xMax="1489" yMax="1409">
      <component glyphName="Y" x="0" y="0" flags="0x204"/>
    </TTGlyph>
    <TTGlyph name="Upsilondieresis" xMin="213" yMin="0" xMax="1489" yMax="1714">
      <component glyphName="Y" x="0" y="0" flags="0x204"/>
      <component glyphName="dieresis.uc" x="320" y="0" flags="0x4"/>
    </TTGlyph>
    <TTGlyph name="Upsilontonos" xMin="198" yMin="0" xMax="1895" yMax="1410">
      <component glyphName="Y" x="406" y="0" flags="0x4"/>
      <component glyphName="tonos" x="-35" y="-133" flags="0x4"/>
    </TTGlyph>
    <TTGlyph name="Uring" xMin="153" yMin="-20" xMax="1489" yMax="1935">
      <component glyphName="U" x="0" y="0" flags="0x204"/>
      <component glyphName="ring" x="477" y="284" flags="0x4"/>
    </TTGlyph>
    <TTGlyph name="Utilde" xMin="153" yMin="-20" xMax="1489" yMax="1798">
      <component glyphName="U" x="0" y="0" flags="0x204"/>
      <component glyphName="tilde.uc" x="404" y="0" flags="0x4"/>
    </TTGlyph>
    <TTGlyph name="V" xMin="177" yMin="0" xMax="1525" yMax="1409">
      <contour>
        <pt x="677" y="0" on="1"/>
        <pt x="479" y="0" on="1"/>
        <pt x="177" y="1409" on="1"/>
        <pt x="371" y="1409" on="1"/>
        <pt x="569" y="417" on="1"/>
        <pt x="604" y="168" on="1"/>
        <pt x="737" y="417" on="1"/>
        <pt x="1317" y="1409" on="1"/>
        <pt x="1525" y="1409" on="1"/>
      </contour>
    </TTGlyph>
    <TTGlyph name="W" xMin="177" yMin="0" xMax="2094" yMax="1409">
      <contour>
        <pt x="1406" y="0" on="1"/>
        <pt x="1183" y="0" on="1"/>
        <pt x="1112" y="895" on="1"/>
        <pt x="1098" y="1170" on="0"/>
        <pt x="1096" y="1219" on="1"/>
        <pt x="1020" y="1020" on="0"/>
        <pt x="961" y="895" on="1"/>
        <pt x="542" y="0" on="1"/>
        <pt x="319" y="0" on="1"/>
        <pt x="177" y="1409" on="1"/>
        <pt x="374" y="1409" on="1"/>
        <pt x="453" y="514" on="1"/>
        <pt x="465" y="359" on="0"/>
        <pt x="469" y="168" on="1"/>
        <pt x="548" y="356" on="0"/>
        <pt x="651" y="584" on="0"/>
        <pt x="1043" y="1409" on="1"/>
        <pt x="1226" y="1409" on="1"/>
        <pt x="1301" y="532" on="1"/>
        <pt x="1315" y="378" on="0"/>
        <pt x="1318" y="168" on="1"/>
        <pt x="1334" y="203" on="1"/>
        <pt x="1382" y="318" on="0"/>
        <pt x="1442" y="456" on="0"/>
        <pt x="1893" y="1409" on="1"/>
        <pt x="2094" y="1409" on="1"/>
      </contour>
    </TTGlyph>
    <TTGlyph name="Wacute" xMin="177" yMin="0" xMax="2094" yMax="1776">
      <component glyphName="W" x="0" y="0" flags="0x204"/>
      <component glyphName="acute.uc" x="759" y="0" flags="0x4"/>
    </TTGlyph>
    <TTGlyph name="Wcircumflex" xMin="177" yMin="0" xMax="2094" yMax="1790">
      <component glyphName="W" x="0" y="0" flags="0x204"/>
      <component glyphName="circumflex.uc" x="605" y="0" flags="0x4"/>
    </TTGlyph>
    <TTGlyph name="Wdieresis" xMin="177" yMin="0" xMax="2094" yMax="1714">
      <component glyphName="W" x="0" y="0" flags="0x204"/>
      <component glyphName="dieresis.uc" x="623" y="0" flags="0x4"/>
    </TTGlyph>
    <TTGlyph name="Wgrave" xMin="177" yMin="0" xMax="2094" yMax="1776">
      <component glyphName="W" x="0" y="0" flags="0x204"/>
      <component glyphName="grave.uc" x="529" y="0" flags="0x4"/>
    </TTGlyph>
    <TTGlyph name="X" xMin="-39" yMin="0" xMax="1430" yMax="1409">
      <contour>
        <pt x="999" y="0" on="1"/>
        <pt x="696" y="606" on="1"/>
        <pt x="172" y="0" on="1"/>
        <pt x="-39" y="0" on="1"/>
        <pt x="615" y="746" on="1"/>
        <pt x="275" y="1409" on="1"/>
        <pt x="474" y="1409" on="1"/>
        <pt x="744" y="858" on="1"/>
        <pt x="1219" y="1409" on="1"/>
        <pt x="1430" y="1409" on="1"/>
        <pt x="830" y="733" on="1"/>
        <pt x="1198" y="0" on="1"/>
      </contour>
    </TTGlyph>
    <TTGlyph name="Xi" xMin="-14" yMin="0" xMax="1375" yMax="1409">
      <contour>
        <pt x="294" y="1409" on="1"/>
        <pt x="1375" y="1409" on="1"/>
        <pt x="1345" y="1253" on="1"/>
        <pt x="264" y="1253" on="1"/>
      </contour>
      <contour>
        <pt x="1167" y="156" on="1"/>
        <pt x="1136" y="0" on="1"/>
        <pt x="-14" y="0" on="1"/>
        <pt x="17" y="156" on="1"/>
      </contour>
      <contour>
        <pt x="1137" y="801" on="1"/>
        <pt x="1107" y="647" on="1"/>
        <pt x="266" y="647" on="1"/>
        <pt x="296" y="801" on="1"/>
      </contour>
    </TTGlyph>
    <TTGlyph name="Y" xMin="213" yMin="0" xMax="1489" yMax="1409">
      <contour>
        <pt x="672" y="0" on="1"/>
        <pt x="482" y="0" on="1"/>
        <pt x="597" y="584" on="1"/>
        <pt x="213" y="1409" on="1"/>
        <pt x="409" y="1409" on="1"/>
        <pt x="715" y="735" on="1"/>
        <pt x="1275" y="1409" on="1"/>
        <pt x="1489" y="1409" on="1"/>
        <pt x="785" y="584" on="1"/>
      </contour>
    </TTGlyph>
    <TTGlyph name="Yacute" xMin="213" yMin="0" xMax="1489" yMax="1776">
      <component glyphName="Y" x="0" y="0" flags="0x204"/>
      <component glyphName="acute.uc" x="434" y="0" flags="0x4"/>
    </TTGlyph>
    <TTGlyph name="Ycircumflex" xMin="213" yMin="0" xMax="1489" yMax="1790">
      <component glyphName="Y" x="0" y="0" flags="0x204"/>
      <component glyphName="circumflex.uc" x="336" y="0" flags="0x4"/>
    </TTGlyph>
    <TTGlyph name="Ydieresis" xMin="213" yMin="0" xMax="1489" yMax="1714">
      <component glyphName="Y" x="0" y="0" flags="0x204"/>
      <component glyphName="dieresis.uc" x="320" y="0" flags="0x4"/>
    </TTGlyph>
    <TTGlyph name="Ydotbelow" xMin="213" yMin="-311" xMax="1489" yMax="1409">
      <component glyphName="Y" x="0" y="0" flags="0x204"/>
      <component glyphName="dotbelow.alt1" x="684" y="0" flags="0x4"/>
    </TTGlyph>
    <TTGlyph name="Ygrave" xMin="213" yMin="0" xMax="1489" yMax="1776">
      <component glyphName="Y" x="0" y="0" flags="0x204"/>
      <component glyphName="grave.uc" x="290" y="0" flags="0x4"/>
    </TTGlyph>
    <TTGlyph name="Yhookabove" xMin="213" yMin="0" xMax="1489" yMax="1866">
      <component glyphName="Y" x="0" y="0" flags="0x204"/>
      <component glyphName="hookabovecomb" x="1271" y="318" flags="0x4"/>
    </TTGlyph>
    <TTGlyph name="Ytilde" xMin="213" yMin="0" xMax="1489" yMax="1800">
      <component glyphName="Y" x="0" y="0" flags="0x204"/>
      <component glyphName="tilde" x="430" y="331" flags="0x4"/>
    </TTGlyph>
    <TTGlyph name="Z" xMin="-40" yMin="0" xMax="1308" yMax="1409">
      <contour>
        <pt x="1082" y="0" on="1"/>
        <pt x="-40" y="0" on="1"/>
        <pt x="-13" y="143" on="1"/>
        <pt x="1041" y="1253" on="1"/>
        <pt x="276" y="1253" on="1"/>
        <pt x="306" y="1409" on="1"/>
        <pt x="1308" y="1409" on="1"/>
        <pt x="1281" y="1270" on="1"/>
        <pt x="227" y="156" on="1"/>
        <pt x="1112" y="156" on="1"/>
      </contour>
    </TTGlyph>
    <TTGlyph name="Zacute" xMin="-40" yMin="0" xMax="1308" yMax="1776">
      <component glyphName="Z" x="0" y="0" flags="0x204"/>
      <component glyphName="acute.uc" x="416" y="0" flags="0x4"/>
    </TTGlyph>
    <TTGlyph name="Zcaron" xMin="-40" yMin="0" xMax="1308" yMax="1790">
      <component glyphName="Z" x="0" y="0" flags="0x204"/>
      <component glyphName="caron.uc" x="267" y="0" flags="0x4"/>
    </TTGlyph>
    <TTGlyph name="Zdotaccent" xMin="-40" yMin="0" xMax="1308" yMax="1702">
      <component glyphName="Z" x="0" y="0" flags="0x204"/>
      <component glyphName="dotaccent" x="355" y="218" flags="0x4"/>
    </TTGlyph>
    <TTGlyph name="Zeta" xMin="-40" yMin="0" xMax="1308" yMax="1409">
      <component glyphName="Z" x="0" y="0" flags="0x204"/>
    </TTGlyph>
    <TTGlyph name="a" xMin="46" yMin="-20" xMax="1069" yMax="1102">
      <contour>
        <pt x="927" y="-10" on="1"/>
        <pt x="834" y="-10" on="0"/>
        <pt x="749" y="67" on="0"/>
        <pt x="749" y="143" on="1"/>
        <pt x="754" y="207" on="1"/>
        <pt x="748" y="207" on="1"/>
        <pt x="665" y="81" on="0"/>
        <pt x="487" y="-20" on="0"/>
        <pt x="361" y="-20" on="1"/>
        <pt x="221" y="-20" on="0"/>
        <pt x="46" y="148" on="0"/>
        <pt x="46" y="278" on="1"/>
        <pt x="46" y="463" on="0"/>
        <pt x="311" y="653" on="0"/>
        <pt x="601" y="657" on="1"/>
        <pt x="833" y="660" on="1"/>
        <pt x="852" y="758" on="0"/>
        <pt x="852" y="787" on="1"/>
        <pt x="852" y="878" on="0"/>
        <pt x="746" y="965" on="0"/>
        <pt x="652" y="965" on="1"/>
        <pt x="533" y="965" on="0"/>
        <pt x="411" y="880" on="0"/>
        <pt x="384" y="793" on="1"/>
        <pt x="206" y="822" on="1"/>
        <pt x="251" y="969" on="0"/>
        <pt x="474" y="1102" on="0"/>
        <pt x="662" y="1102" on="1"/>
        <pt x="833" y="1102" on="0"/>
        <pt x="1032" y="942" on="0"/>
        <pt x="1032" y="807" on="1"/>
        <pt x="1032" y="743" on="0"/>
        <pt x="1013" y="650" on="1"/>
        <pt x="939" y="272" on="1"/>
        <pt x="928" y="224" on="0"/>
        <pt x="928" y="184" on="1"/>
        <pt x="928" y="111" on="0"/>
        <pt x="1009" y="111" on="1"/>
        <pt x="1036" y="111" on="0"/>
        <pt x="1069" y="118" on="1"/>
        <pt x="1055" y="6" on="1"/>
        <pt x="989" y="-10" on="0"/>
      </contour>
      <contour>
        <pt x="809" y="536" on="1"/>
        <pt x="610" y="532" on="1"/>
        <pt x="491" y="529" on="0"/>
        <pt x="355" y="492" on="0"/>
        <pt x="280" y="435" on="0"/>
        <pt x="237" y="348" on="0"/>
        <pt x="237" y="286" on="1"/>
        <pt x="237" y="211" on="0"/>
        <pt x="334" y="117" on="0"/>
        <pt x="411" y="117" on="1"/>
        <pt x="508" y="117" on="0"/>
        <pt x="664" y="200" on="0"/>
        <pt x="766" y="334" on="0"/>
        <pt x="782" y="411" on="1"/>
      </contour>
    </TTGlyph>
    <TTGlyph name="aacute" xMin="52" yMin="-20" xMax="1075" yMax="1508">
      <component glyphName="a" x="6" y="0" flags="0x204"/>
      <component glyphName="acute" x="365" y="0" flags="0x4"/>
    </TTGlyph>
    <TTGlyph name="abreve" xMin="46" yMin="-20" xMax="1069" yMax="1510">
      <component glyphName="a" x="0" y="0" flags="0x204"/>
      <component glyphName="breve" x="263" y="0" flags="0x4"/>
    </TTGlyph>
    <TTGlyph name="abreveacute" xMin="46" yMin="-20" xMax="1115" yMax="1776">
      <component glyphName="a" x="0" y="0" flags="0x204"/>
      <component glyphName="breveacute.lc" x="744" y="0" flags="0x4"/>
    </TTGlyph>
    <TTGlyph name="abrevedotbelow" xMin="46" yMin="-311" xMax="1069" yMax="1510">
      <component glyphName="a" x="0" y="0" flags="0x204"/>
      <component glyphName="breve" x="272" y="0" flags="0x4"/>
      <component glyphName="dotbelow.alt1" x="592" y="0" flags="0x4"/>
    </TTGlyph>
    <TTGlyph name="abrevegrave" xMin="46" yMin="-20" xMax="1077" yMax="1776">
      <component glyphName="a" x="0" y="0" flags="0x204"/>
      <component glyphName="brevegrave.lc" x="740" y="0" flags="0x4"/>
    </TTGlyph>
    <TTGlyph name="abrevehookabove" xMin="46" yMin="-20" xMax="1074" yMax="1835">
      <component glyphName="a" x="0" y="0" flags="0x204"/>
      <component glyphName="brevehook.lc" x="743" y="0" flags="0x4"/>
    </TTGlyph>
    <TTGlyph name="abrevetilde" xMin="46" yMin="-20" xMax="1108" yMax="1775">
      <component glyphName="a" x="0" y="0" flags="0x204"/>
      <component glyphName="brevetilde.lc" x="737" y="0" flags="0x4"/>
    </TTGlyph>
    <TTGlyph name="acircumflex" xMin="52" yMin="-20" xMax="1075" yMax="1491">
      <component glyphName="a" x="6" y="0" flags="0x204"/>
      <component glyphName="circumflex" x="265" y="0" flags="0x4"/>
    </TTGlyph>
    <TTGlyph name="acircumflexacute" xMin="46" yMin="-20" xMax="1286" yMax="1574">
      <component glyphName="a" x="0" y="0" flags="0x204"/>
      <component glyphName="circumflexacute.lc" x="741" y="0" flags="0x4"/>
    </TTGlyph>
    <TTGlyph name="acircumflexdotbelow" xMin="46" yMin="-311" xMax="1069" yMax="1491">
      <component glyphName="a" x="0" y="0" flags="0x204"/>
      <component glyphName="circumflex" x="274" y="0" flags="0x4"/>
      <component glyphName="dotbelow.alt1" x="577" y="0" flags="0x4"/>
    </TTGlyph>
    <TTGlyph name="acircumflexgrave" xMin="46" yMin="-20" xMax="1069" yMax="1574">
      <component glyphName="a" x="0" y="0" flags="0x204"/>
      <component glyphName="circumflexgrave.lc" x="734" y="0" flags="0x4"/>
    </TTGlyph>
    <TTGlyph name="acircumflexhookabove" xMin="46" yMin="-20" xMax="1245" yMax="1653">
      <component glyphName="a" x="0" y="0" flags="0x204"/>
      <component glyphName="circumflexhook.lc" x="755" y="0" flags="0x4"/>
    </TTGlyph>
    <TTGlyph name="acircumflextilde" xMin="46" yMin="-20" xMax="1100" yMax="1775">
      <component glyphName="a" x="0" y="0" flags="0x204"/>
      <component glyphName="circumflextilde.lc" x="739" y="0" flags="0x4"/>
    </TTGlyph>
    <TTGlyph name="acute" xMin="175" yMin="1201" xMax="648" yMax="1508">
      <contour>
        <pt x="175" y="1201" on="1"/>
        <pt x="178" y="1221" on="1"/>
        <pt x="431" y="1508" on="1"/>
        <pt x="648" y="1508" on="1"/>
        <pt x="643" y="1479" on="1"/>
        <pt x="269" y="1201" on="1"/>
      </contour>
    </TTGlyph>
    <TTGlyph name="acute.alt1" xMin="-436" yMin="1677" xMax="-12" yMax="1854">
      <contour>
        <pt x="-243" y="1854" on="1"/>
        <pt x="-12" y="1854" on="1"/>
        <pt x="-306" y="1677" on="1"/>
        <pt x="-436" y="1677" on="1"/>
      </contour>
    </TTGlyph>
    <TTGlyph name="acute.alt2" xMin="-823" yMin="1677" xMax="-399" yMax="1854">
      <contour>
        <pt x="-630" y="1854" on="1"/>
        <pt x="-399" y="1854" on="1"/>
        <pt x="-693" y="1677" on="1"/>
        <pt x="-823" y="1677" on="1"/>
      </contour>
    </TTGlyph>
    <TTGlyph name="acute.alt3" xMin="-707" yMin="1547" xMax="-221" yMax="1827">
      <contour>
        <pt x="-462" y="1827" on="1"/>
        <pt x="-221" y="1827" on="1"/>
        <pt x="-562" y="1547" on="1"/>
        <pt x="-707" y="1547" on="1"/>
      </contour>
    </TTGlyph>
    <TTGlyph name="acute.alt4" xMin="-357" yMin="1194" xMax="73" yMax="1474">
      <contour>
        <pt x="-167" y="1474" on="1"/>
        <pt x="73" y="1474" on="1"/>
        <pt x="-212" y="1194" on="1"/>
        <pt x="-357" y="1194" on="1"/>
      </contour>
    </TTGlyph>
    <TTGlyph name="acute.alt5" xMin="-584" yMin="1191" xMax="-168" yMax="1466">
      <contour>
        <pt x="-584" y="1191" on="1"/>
        <pt x="-396" y="1466" on="1"/>
        <pt x="-168" y="1466" on="1"/>
        <pt x="-434" y="1191" on="1"/>
      </contour>
    </TTGlyph>
    <TTGlyph name="acute.uc" xMin="268" yMin="1530" xMax="739" yMax="1776">
      <contour>
        <pt x="268" y="1530" on="1"/>
        <pt x="271" y="1550" on="1"/>
        <pt x="532" y="1776" on="1"/>
        <pt x="739" y="1776" on="1"/>
        <pt x="734" y="1747" on="1"/>
        <pt x="382" y="1530" on="1"/>
      </contour>
    </TTGlyph>
    <TTGlyph name="acutecomb" xMin="-390" yMin="1548" xMax="1" yMax="1827">
      <contour>
        <pt x="-390" y="1548" on="1"/>
        <pt x="-386" y="1568" on="1"/>
        <pt x="-205" y="1827" on="1"/>
        <pt x="1" y="1827" on="1"/>
        <pt x="-4" y="1798" on="1"/>
        <pt x="-296" y="1548" on="1"/>
      </contour>
    </TTGlyph>
    <TTGlyph name="adieresis" xMin="52" yMin="-20" xMax="1075" yMax="1403">
      <component glyphName="a" x="6" y="0" flags="0x204"/>
      <component glyphName="dieresis" x="266" y="0" flags="0x4"/>
    </TTGlyph>
    <TTGlyph name="adotbelow" xMin="46" yMin="-311" xMax="1069" yMax="1102">
      <component glyphName="a" x="0" y="0" flags="0x204"/>
      <component glyphName="dotbelow.alt1" x="592" y="0" flags="0x4"/>
    </TTGlyph>
    <TTGlyph name="ae" xMin="32" yMin="-20" xMax="1746" yMax="1102">
      <contour>
        <pt x="989" y="503" on="1"/>
        <pt x="983" y="468" on="0"/>
        <pt x="980" y="390" on="1"/>
        <pt x="980" y="257" on="0"/>
        <pt x="1103" y="115" on="0"/>
        <pt x="1224" y="115" on="1"/>
        <pt x="1311" y="115" on="0"/>
        <pt x="1452" y="206" on="0"/>
        <pt x="1496" y="294" on="1"/>
        <pt x="1634" y="231" on="1"/>
        <pt x="1563" y="99" on="0"/>
        <pt x="1351" y="-20" on="0"/>
        <pt x="1202" y="-20" on="1"/>
        <pt x="1051" y="-20" on="0"/>
        <pt x="861" y="120" on="0"/>
        <pt x="826" y="248" on="1"/>
        <pt x="729" y="109" on="0"/>
        <pt x="489" y="-20" on="0"/>
        <pt x="347" y="-20" on="1"/>
        <pt x="252" y="-20" on="0"/>
        <pt x="109" y="56" on="0"/>
        <pt x="32" y="193" on="0"/>
        <pt x="32" y="278" on="1"/>
        <pt x="32" y="463" on="0"/>
        <pt x="303" y="652" on="0"/>
        <pt x="601" y="657" on="1"/>
        <pt x="839" y="660" on="1"/>
        <pt x="858" y="758" on="0"/>
        <pt x="858" y="787" on="1"/>
        <pt x="858" y="965" on="0"/>
        <pt x="650" y="965" on="1"/>
        <pt x="526" y="965" on="0"/>
        <pt x="399" y="881" on="0"/>
        <pt x="370" y="793" on="1"/>
        <pt x="192" y="822" on="1"/>
        <pt x="239" y="969" on="0"/>
        <pt x="470" y="1102" on="0"/>
        <pt x="665" y="1102" on="1"/>
        <pt x="887" y="1102" on="0"/>
        <pt x="990" y="944" on="1"/>
        <pt x="1114" y="1102" on="0"/>
        <pt x="1335" y="1102" on="1"/>
        <pt x="1530" y="1102" on="0"/>
        <pt x="1746" y="894" on="0"/>
        <pt x="1746" y="708" on="1"/>
        <pt x="1746" y="660" on="0"/>
        <pt x="1731" y="537" on="0"/>
        <pt x="1723" y="503" on="1"/>
      </contour>
      <contour>
        <pt x="814" y="534" on="1"/>
        <pt x="608" y="530" on="1"/>
        <pt x="461" y="526" on="0"/>
        <pt x="300" y="472" on="0"/>
        <pt x="223" y="365" on="0"/>
        <pt x="223" y="286" on="1"/>
        <pt x="223" y="209" on="0"/>
        <pt x="316" y="117" on="0"/>
        <pt x="394" y="117" on="1"/>
        <pt x="495" y="117" on="0"/>
        <pt x="666" y="206" on="0"/>
        <pt x="781" y="359" on="0"/>
        <pt x="797" y="445" on="1"/>
      </contour>
      <contour>
        <pt x="1563" y="641" on="1"/>
        <pt x="1567" y="713" on="1"/>
        <pt x="1567" y="837" on="0"/>
        <pt x="1449" y="969" on="0"/>
        <pt x="1338" y="969" on="1"/>
        <pt x="1215" y="969" on="0"/>
        <pt x="1047" y="799" on="0"/>
        <pt x="1013" y="641" on="1"/>
      </contour>
    </TTGlyph>
    <TTGlyph name="aeacute" xMin="32" yMin="-20" xMax="1746" yMax="1508">
      <component glyphName="ae" x="0" y="0" flags="0x204"/>
      <component glyphName="acute" x="718" y="0" flags="0x4"/>
    </TTGlyph>
    <TTGlyph name="agrave" xMin="52" yMin="-20" xMax="1075" yMax="1508">
      <component glyphName="a" x="6" y="0" flags="0x204"/>
      <component glyphName="grave" x="341" y="0" flags="0x4"/>
    </TTGlyph>
    <TTGlyph name="ahookabove" xMin="46" yMin="-20" xMax="1069" yMax="1548">
      <component glyphName="a" x="0" y="0" flags="0x204"/>
      <component glyphName="hookabovecomb" x="1129" y="0" flags="0x4"/>
    </TTGlyph>
    <TTGlyph name="alef" xMin="-37" yMin="0" xMax="1319" yMax="1227">
      <contour>
        <pt x="272" y="1227" on="1"/>
        <pt x="477" y="1227" on="1"/>
        <pt x="809" y="606" on="1"/>
        <pt x="989" y="749" on="0"/>
        <pt x="1063" y="1004" on="1"/>
        <pt x="1128" y="1227" on="1"/>
        <pt x="1319" y="1227" on="1"/>
        <pt x="1255" y="1008" on="1"/>
        <pt x="1224" y="900" on="0"/>
        <pt x="1128" y="725" on="0"/>
        <pt x="999" y="576" on="0"/>
        <pt x="879" y="477" on="1"/>
        <pt x="1147" y="0" on="1"/>
        <pt x="936" y="0" on="1"/>
        <pt x="547" y="717" on="1"/>
        <pt x="471" y="684" on="0"/>
        <pt x="375" y="556" on="0"/>
        <pt x="315" y="403" on="1"/>
        <pt x="158" y="0" on="1"/>
        <pt x="-37" y="0" on="1"/>
        <pt x="125" y="399" on="1"/>
        <pt x="189" y="555" on="0"/>
        <pt x="282" y="705" on="0"/>
        <pt x="398" y="799" on="0"/>
        <pt x="485" y="831" on="1"/>
      </contour>
    </TTGlyph>
    <TTGlyph name="alefdagesh" xMin="-37" yMin="0" xMax="1319" yMax="1227">
      <component glyphName="alef" x="0" y="0" flags="0x204"/>
      <component glyphName="dagesh" x="460" y="-585" flags="0x4"/>
    </TTGlyph>
    <TTGlyph name="aleflamed" xMin="186" yMin="0" xMax="1329" yMax="1665">
      <contour>
        <pt x="344" y="1071" on="1"/>
        <pt x="186" y="1071" on="1"/>
        <pt x="301" y="1665" on="1"/>
        <pt x="487" y="1665" on="1"/>
        <pt x="403" y="1227" on="1"/>
        <pt x="489" y="1227" on="1"/>
        <pt x="819" y="606" on="1"/>
        <pt x="998" y="747" on="0"/>
        <pt x="1073" y="1004" on="1"/>
        <pt x="1139" y="1227" on="1"/>
        <pt x="1329" y="1227" on="1"/>
        <pt x="1266" y="1008" on="1"/>
        <pt x="1234" y="900" on="0"/>
        <pt x="1139" y="727" on="0"/>
        <pt x="1015" y="581" on="0"/>
        <pt x="891" y="477" on="1"/>
        <pt x="1157" y="0" on="1"/>
        <pt x="924" y="0" on="1"/>
      </contour>
    </TTGlyph>
    <TTGlyph name="aleflamedhatafsegol" xMin="186" yMin="-385" xMax="1329" yMax="1665">
      <component glyphName="aleflamed" x="0" y="0" flags="0x204"/>
      <component glyphName="hatafsegol" x="664" y="0" flags="0x4"/>
    </TTGlyph>
    <TTGlyph name="aleflamedsegol" xMin="186" yMin="-387" xMax="1329" yMax="1665">
      <component glyphName="aleflamed" x="0" y="0" flags="0x204"/>
      <component glyphName="segol" x="645" y="0" flags="0x4"/>
    </TTGlyph>
    <TTGlyph name="aleflamedtsere" xMin="186" yMin="-348" xMax="1329" yMax="1665">
      <component glyphName="aleflamed" x="0" y="0" flags="0x204"/>
      <component glyphName="tsere" x="651" y="0" flags="0x4"/>
    </TTGlyph>
    <TTGlyph name="alefmapiq" xMin="-37" yMin="0" xMax="1319" yMax="1227">
      <component glyphName="alef" x="0" y="0" flags="0x204"/>
      <component glyphName="dagesh" x="460" y="-585" flags="0x4"/>
    </TTGlyph>
    <TTGlyph name="alefpatah" xMin="-37" yMin="-231" xMax="1319" yMax="1227">
      <component glyphName="alef" x="0" y="0" flags="0x204"/>
      <component glyphName="patah" x="653" y="0" flags="0x4"/>
    </TTGlyph>
    <TTGlyph name="alefqamats" xMin="-37" yMin="-348" xMax="1319" yMax="1227">
      <component glyphName="alef" x="0" y="0" flags="0x204"/>
      <component glyphName="qamats" x="664" y="0" flags="0x4"/>
    </TTGlyph>
    <TTGlyph name="alefwide" xMin="-37" yMin="0" xMax="1319" yMax="1227">
      <component glyphName="alef" x="0" y="0" flags="0x204"/>
    </TTGlyph>
    <TTGlyph name="alpha" xMin="70" yMin="-21" xMax="1216" yMax="1101">
      <contour>
        <pt x="595" y="1101" on="1"/>
        <pt x="725" y="1101" on="0"/>
        <pt x="893" y="973" on="0"/>
        <pt x="914" y="858" on="1"/>
        <pt x="916" y="858" on="1"/>
        <pt x="928" y="895" on="0"/>
        <pt x="993" y="1026" on="0"/>
        <pt x="1028" y="1082" on="1"/>
        <pt x="1216" y="1082" on="1"/>
        <pt x="1160" y="999" on="0"/>
        <pt x="995" y="628" on="0"/>
        <pt x="961" y="514" on="1"/>
        <pt x="961" y="188" on="0"/>
        <pt x="989" y="0" on="1"/>
        <pt x="812" y="0" on="1"/>
        <pt x="794" y="90" on="0"/>
        <pt x="794" y="237" on="1"/>
        <pt x="794" y="253" on="1"/>
        <pt x="790" y="253" on="1"/>
        <pt x="701" y="102" on="0"/>
        <pt x="520" y="-21" on="0"/>
        <pt x="406" y="-21" on="1"/>
        <pt x="247" y="-21" on="0"/>
        <pt x="70" y="185" on="0"/>
        <pt x="70" y="375" on="1"/>
        <pt x="70" y="505" on="0"/>
        <pt x="142" y="803" on="0"/>
        <pt x="275" y="1004" on="0"/>
        <pt x="466" y="1101" on="0"/>
      </contour>
      <contour>
        <pt x="601" y="969" on="1"/>
        <pt x="485" y="969" on="0"/>
        <pt x="340" y="812" on="0"/>
        <pt x="259" y="497" on="0"/>
        <pt x="259" y="366" on="1"/>
        <pt x="259" y="119" on="0"/>
        <pt x="446" y="119" on="1"/>
        <pt x="556" y="119" on="0"/>
        <pt x="760" y="353" on="0"/>
        <pt x="824" y="557" on="1"/>
        <pt x="826" y="632" on="1"/>
        <pt x="826" y="797" on="0"/>
        <pt x="710" y="969" on="0"/>
      </contour>
    </TTGlyph>
    <TTGlyph name="alphatonos" xMin="70" yMin="-21" xMax="1216" yMax="1543">
      <component glyphName="alpha" x="0" y="0" flags="0x204"/>
      <component glyphName="tonos" x="356" y="0" flags="0x4"/>
    </TTGlyph>
    <TTGlyph name="alt_plussign" xMin="88" yMin="514" xMax="1098" yMax="1128">
      <contour>
        <pt x="1061" y="514" on="1"/>
        <pt x="88" y="514" on="1"/>
        <pt x="125" y="700" on="1"/>
        <pt x="516" y="700" on="1"/>
        <pt x="598" y="1128" on="1"/>
        <pt x="784" y="1128" on="1"/>
        <pt x="702" y="700" on="1"/>
        <pt x="1098" y="700" on="1"/>
      </contour>
    </TTGlyph>
    <TTGlyph name="alternativeayin" xMin="-68" yMin="-33" xMax="1227" yMax="1227">
      <component glyphName="ayin" x="0" y="0" flags="0x204"/>
    </TTGlyph>
    <TTGlyph name="alternativelamed" xMin="82" yMin="-45" xMax="1065" yMax="1665">
      <component glyphName="lamed" x="0" y="0" flags="0x204"/>
    </TTGlyph>
    <TTGlyph name="amacron" xMin="46" yMin="-20" xMax="1069" yMax="1363">
      <component glyphName="a" x="0" y="0" flags="0x204"/>
      <component glyphName="macron" x="267" y="0" flags="0x4"/>
    </TTGlyph>
    <TTGlyph name="ampersand" xMin="33" yMin="-20" xMax="1256" yMax="1417">
      <contour>
        <pt x="1248" y="684" on="1"/>
        <pt x="1109" y="369" on="0"/>
        <pt x="957" y="208" on="1"/>
        <pt x="997" y="170" on="0"/>
        <pt x="1098" y="129" on="0"/>
        <pt x="1144" y="129" on="1"/>
        <pt x="1204" y="129" on="0"/>
        <pt x="1256" y="145" on="1"/>
        <pt x="1243" y="10" on="1"/>
        <pt x="1183" y="-12" on="0"/>
        <pt x="1118" y="-12" on="1"/>
        <pt x="969" y="-12" on="0"/>
        <pt x="847" y="110" on="1"/>
        <pt x="669" y="-20" on="0"/>
        <pt x="440" y="-20" on="1"/>
        <pt x="251" y="-20" on="0"/>
        <pt x="33" y="181" on="0"/>
        <pt x="33" y="351" on="1"/>
        <pt x="33" y="508" on="0"/>
        <pt x="219" y="713" on="0"/>
        <pt x="462" y="806" on="1"/>
        <pt x="434" y="925" on="0"/>
        <pt x="434" y="1036" on="1"/>
        <pt x="434" y="1209" on="0"/>
        <pt x="651" y="1417" on="0"/>
        <pt x="833" y="1417" on="1"/>
        <pt x="971" y="1417" on="0"/>
        <pt x="1144" y="1273" on="0"/>
        <pt x="1144" y="1155" on="1"/>
        <pt x="1144" y="1039" on="0"/>
        <pt x="981" y="867" on="0"/>
        <pt x="771" y="784" on="1"/>
        <pt x="646" y="734" on="1"/>
        <pt x="722" y="510" on="0"/>
        <pt x="864" y="315" on="1"/>
        <pt x="924" y="383" on="0"/>
        <pt x="1038" y="571" on="0"/>
        <pt x="1116" y="739" on="1"/>
      </contour>
      <contour>
        <pt x="452" y="111" on="1"/>
        <pt x="615" y="111" on="0"/>
        <pt x="753" y="212" on="1"/>
        <pt x="680" y="302" on="0"/>
        <pt x="546" y="547" on="0"/>
        <pt x="502" y="675" on="1"/>
        <pt x="334" y="609" on="0"/>
        <pt x="203" y="464" on="0"/>
        <pt x="203" y="354" on="1"/>
        <pt x="203" y="243" on="0"/>
        <pt x="340" y="111" on="0"/>
      </contour>
      <contour>
        <pt x="592" y="1041" on="1"/>
        <pt x="592" y="963" on="0"/>
        <pt x="611" y="863" on="1"/>
        <pt x="690" y="892" on="0"/>
        <pt x="828" y="944" on="0"/>
        <pt x="931" y="1008" on="0"/>
        <pt x="990" y="1090" on="0"/>
        <pt x="990" y="1148" on="1"/>
        <pt x="990" y="1213" on="0"/>
        <pt x="899" y="1296" on="0"/>
        <pt x="826" y="1296" on="1"/>
        <pt x="714" y="1296" on="0"/>
        <pt x="592" y="1161" on="0"/>
      </contour>
    </TTGlyph>
    <TTGlyph name="anoteleia" xMin="165" yMin="446" xMax="403" yMax="666">
      <contour>
        <pt x="165" y="446" on="1"/>
        <pt x="208" y="666" on="1"/>
        <pt x="403" y="666" on="1"/>
        <pt x="360" y="446" on="1"/>
      </contour>
    </TTGlyph>
    <TTGlyph name="aogonek" xMin="46" yMin="-417" xMax="1069" yMax="1102">
      <component glyphName="a" x="0" y="0" flags="0x204"/>
      <component glyphName="ogonek" x="553" y="10" flags="0x4"/>
    </TTGlyph>
    <TTGlyph name="approxequal" xMin="76" yMin="336" xMax="1088" yMax="1012">
      <contour>
        <pt x="828" y="758" on="1"/>
        <pt x="759" y="758" on="0"/>
        <pt x="614" y="801" on="0"/>
        <pt x="541" y="827" on="1"/>
        <pt x="408" y="872" on="0"/>
        <pt x="324" y="872" on="1"/>
        <pt x="261" y="872" on="0"/>
        <pt x="147" y="835" on="0"/>
        <pt x="76" y="784" on="1"/>
        <pt x="76" y="928" on="1"/>
        <pt x="190" y="1012" on="0"/>
        <pt x="339" y="1012" on="1"/>
        <pt x="442" y="1012" on="0"/>
        <pt x="574" y="965" on="1"/>
        <pt x="682" y="925" on="0"/>
        <pt x="796" y="893" on="0"/>
        <pt x="844" y="893" on="1"/>
        <pt x="974" y="893" on="0"/>
        <pt x="1088" y="987" on="1"/>
        <pt x="1088" y="838" on="1"/>
        <pt x="1028" y="796" on="0"/>
        <pt x="913" y="758" on="0"/>
      </contour>
      <contour>
        <pt x="828" y="336" on="1"/>
        <pt x="759" y="336" on="0"/>
        <pt x="614" y="380" on="0"/>
        <pt x="541" y="406" on="1"/>
        <pt x="408" y="453" on="0"/>
        <pt x="324" y="453" on="1"/>
        <pt x="257" y="453" on="0"/>
        <pt x="141" y="412" on="0"/>
        <pt x="76" y="365" on="1"/>
        <pt x="76" y="506" on="1"/>
        <pt x="187" y="590" on="0"/>
        <pt x="339" y="590" on="1"/>
        <pt x="441" y="590" on="0"/>
        <pt x="574" y="544" on="1"/>
        <pt x="721" y="493" on="0"/>
        <pt x="808" y="473" on="0"/>
        <pt x="844" y="473" on="1"/>
        <pt x="974" y="473" on="0"/>
        <pt x="1088" y="565" on="1"/>
        <pt x="1088" y="418" on="1"/>
        <pt x="1028" y="373" on="0"/>
        <pt x="911" y="336" on="0"/>
      </contour>
    </TTGlyph>
    <TTGlyph name="aring" xMin="52" yMin="-20" xMax="1075" yMax="1651">
      <component glyphName="a" x="6" y="0" flags="0x204"/>
      <component glyphName="ring" x="290" y="0" flags="0x4"/>
    </TTGlyph>
    <TTGlyph name="aringacute" xMin="46" yMin="-20" xMax="1156" yMax="1957">
      <component glyphName="a" x="0" y="0" flags="0x204"/>
      <component glyphName="ring" x="276" y="0" flags="0x4"/>
      <component glyphName="acute.uc" x="417" y="181" flags="0x4"/>
    </TTGlyph>
    <TTGlyph name="arrowboth" xMin="418" yMin="100" xMax="1630" yMax="580">
      <contour>
        <pt x="641" y="297" on="1"/>
        <pt x="698" y="230" on="0"/>
        <pt x="760" y="100" on="1"/>
        <pt x="688" y="100" on="1"/>
        <pt x="561" y="249" on="0"/>
        <pt x="418" y="322" on="1"/>
        <pt x="418" y="358" on="1"/>
        <pt x="561" y="431" on="0"/>
        <pt x="688" y="580" on="1"/>
        <pt x="760" y="580" on="1"/>
        <pt x="698" y="450" on="0"/>
        <pt x="641" y="383" on="1"/>
        <pt x="1407" y="383" on="1"/>
        <pt x="1350" y="450" on="0"/>
        <pt x="1288" y="580" on="1"/>
        <pt x="1360" y="580" on="1"/>
        <pt x="1487" y="431" on="0"/>
        <pt x="1630" y="358" on="1"/>
        <pt x="1630" y="322" on="1"/>
        <pt x="1487" y="249" on="0"/>
        <pt x="1360" y="100" on="1"/>
        <pt x="1288" y="100" on="1"/>
        <pt x="1350" y="230" on="0"/>
        <pt x="1407" y="297" on="1"/>
      </contour>
    </TTGlyph>
    <TTGlyph name="arrowdown" xMin="272" yMin="-61" xMax="752" yMax="1151">
      <contour>
        <pt x="555" y="162" on="1"/>
        <pt x="622" y="219" on="0"/>
        <pt x="752" y="281" on="1"/>
        <pt x="752" y="209" on="1"/>
        <pt x="603" y="82" on="0"/>
        <pt x="530" y="-61" on="1"/>
        <pt x="494" y="-61" on="1"/>
        <pt x="421" y="82" on="0"/>
        <pt x="272" y="209" on="1"/>
        <pt x="272" y="281" on="1"/>
        <pt x="402" y="219" on="0"/>
        <pt x="469" y="162" on="1"/>
        <pt x="469" y="1151" on="1"/>
        <pt x="555" y="1151" on="1"/>
      </contour>
    </TTGlyph>
    <TTGlyph name="arrowleft" xMin="418" yMin="100" xMax="1630" yMax="580">
      <contour>
        <pt x="641" y="297" on="1"/>
        <pt x="698" y="230" on="0"/>
        <pt x="760" y="100" on="1"/>
        <pt x="688" y="100" on="1"/>
        <pt x="561" y="249" on="0"/>
        <pt x="418" y="322" on="1"/>
        <pt x="418" y="358" on="1"/>
        <pt x="561" y="431" on="0"/>
        <pt x="688" y="580" on="1"/>
        <pt x="760" y="580" on="1"/>
        <pt x="698" y="450" on="0"/>
        <pt x="641" y="383" on="1"/>
        <pt x="1630" y="383" on="1"/>
        <pt x="1630" y="297" on="1"/>
      </contour>
    </TTGlyph>
    <TTGlyph name="arrowright" xMin="418" yMin="100" xMax="1630" yMax="580">
      <contour>
        <pt x="1407" y="383" on="1"/>
        <pt x="1350" y="450" on="0"/>
        <pt x="1288" y="580" on="1"/>
        <pt x="1360" y="580" on="1"/>
        <pt x="1487" y="431" on="0"/>
        <pt x="1630" y="358" on="1"/>
        <pt x="1630" y="322" on="1"/>
        <pt x="1487" y="249" on="0"/>
        <pt x="1360" y="100" on="1"/>
        <pt x="1288" y="100" on="1"/>
        <pt x="1350" y="230" on="0"/>
        <pt x="1407" y="297" on="1"/>
        <pt x="418" y="297" on="1"/>
        <pt x="418" y="383" on="1"/>
      </contour>
    </TTGlyph>
    <TTGlyph name="arrowup" xMin="272" yMin="-61" xMax="752" yMax="1151">
      <contour>
        <pt x="469" y="928" on="1"/>
        <pt x="402" y="871" on="0"/>
        <pt x="272" y="809" on="1"/>
        <pt x="272" y="881" on="1"/>
        <pt x="421" y="1008" on="0"/>
        <pt x="494" y="1151" on="1"/>
        <pt x="530" y="1151" on="1"/>
        <pt x="603" y="1008" on="0"/>
        <pt x="752" y="881" on="1"/>
        <pt x="752" y="809" on="1"/>
        <pt x="622" y="871" on="0"/>
        <pt x="555" y="928" on="1"/>
        <pt x="555" y="-61" on="1"/>
        <pt x="469" y="-61" on="1"/>
      </contour>
    </TTGlyph>
    <TTGlyph name="arrowupdn" xMin="272" yMin="-61" xMax="752" yMax="1151">
      <contour>
        <pt x="469" y="928" on="1"/>
        <pt x="402" y="871" on="0"/>
        <pt x="272" y="809" on="1"/>
        <pt x="272" y="881" on="1"/>
        <pt x="421" y="1008" on="0"/>
        <pt x="494" y="1151" on="1"/>
        <pt x="530" y="1151" on="1"/>
        <pt x="603" y="1008" on="0"/>
        <pt x="752" y="881" on="1"/>
        <pt x="752" y="809" on="1"/>
        <pt x="622" y="871" on="0"/>
        <pt x="555" y="928" on="1"/>
        <pt x="555" y="162" on="1"/>
        <pt x="622" y="219" on="0"/>
        <pt x="752" y="281" on="1"/>
        <pt x="752" y="209" on="1"/>
        <pt x="603" y="82" on="0"/>
        <pt x="530" y="-61" on="1"/>
        <pt x="494" y="-61" on="1"/>
        <pt x="421" y="82" on="0"/>
        <pt x="272" y="209" on="1"/>
        <pt x="272" y="281" on="1"/>
        <pt x="402" y="219" on="0"/>
        <pt x="469" y="162" on="1"/>
      </contour>
    </TTGlyph>
    <TTGlyph name="arrowupdnbse" xMin="272" yMin="-184" xMax="752" yMax="1151">
      <contour>
        <pt x="272" y="-104" on="1"/>
        <pt x="752" y="-104" on="1"/>
        <pt x="752" y="-184" on="1"/>
        <pt x="272" y="-184" on="1"/>
      </contour>
      <contour>
        <pt x="469" y="928" on="1"/>
        <pt x="402" y="871" on="0"/>
        <pt x="272" y="809" on="1"/>
        <pt x="272" y="881" on="1"/>
        <pt x="421" y="1008" on="0"/>
        <pt x="494" y="1151" on="1"/>
        <pt x="530" y="1151" on="1"/>
        <pt x="603" y="1008" on="0"/>
        <pt x="752" y="881" on="1"/>
        <pt x="752" y="809" on="1"/>
        <pt x="622" y="871" on="0"/>
        <pt x="555" y="928" on="1"/>
        <pt x="555" y="162" on="1"/>
        <pt x="622" y="219" on="0"/>
        <pt x="752" y="281" on="1"/>
        <pt x="752" y="209" on="1"/>
        <pt x="603" y="82" on="0"/>
        <pt x="530" y="-61" on="1"/>
        <pt x="494" y="-61" on="1"/>
        <pt x="421" y="82" on="0"/>
        <pt x="272" y="209" on="1"/>
        <pt x="272" y="281" on="1"/>
        <pt x="402" y="219" on="0"/>
        <pt x="469" y="162" on="1"/>
      </contour>
    </TTGlyph>
    <TTGlyph name="asciicircum" xMin="40" yMin="673" xMax="981" yMax="1409">
      <contour>
        <pt x="817" y="673" on="1"/>
        <pt x="508" y="1306" on="1"/>
        <pt x="202" y="673" on="1"/>
        <pt x="40" y="673" on="1"/>
        <pt x="408" y="1409" on="1"/>
        <pt x="611" y="1409" on="1"/>
        <pt x="981" y="673" on="1"/>
      </contour>
    </TTGlyph>
    <TTGlyph name="asciitilde" xMin="122" yMin="553" xMax="1134" yMax="807">
      <contour>
        <pt x="874" y="553" on="1"/>
        <pt x="805" y="553" on="0"/>
        <pt x="660" y="597" on="0"/>
        <pt x="587" y="623" on="1"/>
        <pt x="458" y="668" on="0"/>
        <pt x="370" y="668" on="1"/>
        <pt x="303" y="668" on="0"/>
        <pt x="187" y="627" on="0"/>
        <pt x="122" y="580" on="1"/>
        <pt x="122" y="723" on="1"/>
        <pt x="233" y="807" on="0"/>
        <pt x="385" y="807" on="1"/>
        <pt x="487" y="807" on="0"/>
        <pt x="620" y="761" on="1"/>
        <pt x="767" y="710" on="0"/>
        <pt x="854" y="690" on="0"/>
        <pt x="890" y="690" on="1"/>
        <pt x="1020" y="690" on="0"/>
        <pt x="1134" y="782" on="1"/>
        <pt x="1134" y="633" on="1"/>
        <pt x="1074" y="591" on="0"/>
        <pt x="959" y="553" on="0"/>
      </contour>
    </TTGlyph>
    <TTGlyph name="asterisk" xMin="120" yMin="690" xMax="852" yMax="1409">
      <contour>
        <pt x="543" y="1114" on="1"/>
        <pt x="807" y="1217" on="1"/>
        <pt x="852" y="1085" on="1"/>
        <pt x="570" y="1012" on="1"/>
        <pt x="755" y="762" on="1"/>
        <pt x="636" y="690" on="1"/>
        <pt x="486" y="948" on="1"/>
        <pt x="330" y="692" on="1"/>
        <pt x="211" y="764" on="1"/>
        <pt x="400" y="1012" on="1"/>
        <pt x="120" y="1085" on="1"/>
        <pt x="165" y="1219" on="1"/>
        <pt x="432" y="1112" on="1"/>
        <pt x="420" y="1409" on="1"/>
        <pt x="556" y="1409" on="1"/>
      </contour>
    </TTGlyph>
    <TTGlyph name="at" xMin="194" yMin="-283" xMax="1935" yMax="1484">
      <contour>
        <pt x="1935" y="755" on="1"/>
        <pt x="1935" y="569" on="0"/>
        <pt x="1820" y="268" on="0"/>
        <pt x="1615" y="104" on="0"/>
        <pt x="1488" y="104" on="1"/>
        <pt x="1387" y="104" on="0"/>
        <pt x="1281" y="195" on="0"/>
        <pt x="1281" y="280" on="1"/>
        <pt x="1284" y="350" on="1"/>
        <pt x="1278" y="350" on="1"/>
        <pt x="1212" y="227" on="0"/>
        <pt x="1017" y="104" on="0"/>
        <pt x="904" y="104" on="1"/>
        <pt x="747" y="104" on="0"/>
        <pt x="574" y="308" on="0"/>
        <pt x="574" y="489" on="1"/>
        <pt x="574" y="653" on="0"/>
        <pt x="703" y="935" on="0"/>
        <pt x="935" y="1101" on="0"/>
        <pt x="1076" y="1101" on="1"/>
        <pt x="1295" y="1101" on="0"/>
        <pt x="1377" y="919" on="1"/>
        <pt x="1383" y="919" on="1"/>
        <pt x="1422" y="1079" on="1"/>
        <pt x="1578" y="1079" on="1"/>
        <pt x="1462" y="573" on="1"/>
        <pt x="1425" y="409" on="0"/>
        <pt x="1425" y="320" on="1"/>
        <pt x="1425" y="226" on="0"/>
        <pt x="1506" y="226" on="1"/>
        <pt x="1586" y="226" on="0"/>
        <pt x="1721" y="364" on="0"/>
        <pt x="1799" y="606" on="0"/>
        <pt x="1799" y="753" on="1"/>
        <pt x="1799" y="932" on="0"/>
        <pt x="1645" y="1209" on="0"/>
        <pt x="1355" y="1358" on="0"/>
        <pt x="1161" y="1358" on="1"/>
        <pt x="919" y="1358" on="0"/>
        <pt x="547" y="1144" on="0"/>
        <pt x="335" y="741" on="0"/>
        <pt x="335" y="491" on="1"/>
        <pt x="335" y="298" on="0"/>
        <pt x="492" y="3" on="0"/>
        <pt x="789" y="-155" on="0"/>
        <pt x="987" y="-155" on="1"/>
        <pt x="1300" y="-155" on="0"/>
        <pt x="1590" y="7" on="1"/>
        <pt x="1645" y="-105" on="1"/>
        <pt x="1500" y="-192" on="0"/>
        <pt x="1161" y="-283" on="0"/>
        <pt x="987" y="-283" on="1"/>
        <pt x="747" y="-283" on="0"/>
        <pt x="388" y="-93" on="0"/>
        <pt x="194" y="261" on="0"/>
        <pt x="194" y="491" on="1"/>
        <pt x="194" y="771" on="0"/>
        <pt x="443" y="1229" on="0"/>
        <pt x="885" y="1484" on="0"/>
        <pt x="1159" y="1484" on="1"/>
        <pt x="1400" y="1484" on="0"/>
        <pt x="1750" y="1303" on="0"/>
        <pt x="1935" y="973" on="0"/>
      </contour>
      <contour>
        <pt x="1329" y="747" on="1"/>
        <pt x="1329" y="849" on="0"/>
        <pt x="1197" y="974" on="0"/>
        <pt x="1087" y="974" on="1"/>
        <pt x="986" y="974" on="0"/>
        <pt x="829" y="847" on="0"/>
        <pt x="739" y="619" on="0"/>
        <pt x="739" y="491" on="1"/>
        <pt x="739" y="371" on="0"/>
        <pt x="834" y="235" on="0"/>
        <pt x="933" y="235" on="1"/>
        <pt x="1013" y="235" on="0"/>
        <pt x="1159" y="323" on="0"/>
        <pt x="1269" y="478" on="0"/>
        <pt x="1329" y="675" on="0"/>
      </contour>
    </TTGlyph>
    <TTGlyph name="atilde" xMin="52" yMin="-20" xMax="1094" yMax="1469">
      <component glyphName="a" x="6" y="0" flags="0x204"/>
      <component glyphName="tilde" x="276" y="0" flags="0x4"/>
    </TTGlyph>
    <TTGlyph name="ayin" xMin="-68" yMin="-33" xMax="1227" yMax="1227">
      <contour>
        <pt x="414" y="213" on="1"/>
        <pt x="242" y="1227" on="1"/>
        <pt x="428" y="1227" on="1"/>
        <pt x="575" y="279" on="1"/>
        <pt x="741" y="383" on="0"/>
        <pt x="956" y="827" on="0"/>
        <pt x="1034" y="1227" on="1"/>
        <pt x="1227" y="1227" on="1"/>
        <pt x="1134" y="753" on="0"/>
        <pt x="831" y="236" on="0"/>
        <pt x="339" y="-12" on="0"/>
        <pt x="-68" y="-33" on="1"/>
        <pt x="-31" y="162" on="1"/>
        <pt x="248" y="162" on="0"/>
      </contour>
    </TTGlyph>
    <TTGlyph name="b" xMin="29" yMin="-20" xMax="1076" yMax="1484">
      <contour>
        <pt x="744" y="1102" on="1"/>
        <pt x="901" y="1102" on="0"/>
        <pt x="1076" y="913" on="0"/>
        <pt x="1076" y="748" on="1"/>
        <pt x="1076" y="545" on="0"/>
        <pt x="953" y="164" on="0"/>
        <pt x="730" y="-20" on="0"/>
        <pt x="557" y="-20" on="1"/>
        <pt x="434" y="-20" on="0"/>
        <pt x="280" y="84" on="0"/>
        <pt x="248" y="178" on="1"/>
        <pt x="245" y="178" on="1"/>
        <pt x="238" y="141" on="0"/>
        <pt x="204" y="3" on="0"/>
        <pt x="202" y="0" on="1"/>
        <pt x="29" y="0" on="1"/>
        <pt x="34" y="15" on="0"/>
        <pt x="63" y="149" on="0"/>
        <pt x="78" y="223" on="1"/>
        <pt x="323" y="1484" on="1"/>
        <pt x="503" y="1484" on="1"/>
        <pt x="420" y="1061" on="1"/>
        <pt x="412" y="1015" on="0"/>
        <pt x="386" y="921" on="1"/>
        <pt x="390" y="921" on="1"/>
        <pt x="463" y="1016" on="0"/>
        <pt x="625" y="1102" on="0"/>
      </contour>
      <contour>
        <pt x="692" y="963" on="1"/>
        <pt x="593" y="963" on="0"/>
        <pt x="452" y="882" on="0"/>
        <pt x="354" y="719" on="0"/>
        <pt x="298" y="474" on="0"/>
        <pt x="298" y="377" on="1"/>
        <pt x="298" y="252" on="0"/>
        <pt x="425" y="113" on="0"/>
        <pt x="538" y="113" on="1"/>
        <pt x="662" y="113" on="0"/>
        <pt x="806" y="264" on="0"/>
        <pt x="888" y="593" on="0"/>
        <pt x="888" y="716" on="1"/>
        <pt x="888" y="839" on="0"/>
        <pt x="794" y="963" on="0"/>
      </contour>
    </TTGlyph>
    <TTGlyph name="backslash" xMin="146" yMin="-20" xMax="472" yMax="1484">
      <contour>
        <pt x="320" y="-20" on="1"/>
        <pt x="146" y="1484" on="1"/>
        <pt x="294" y="1484" on="1"/>
        <pt x="472" y="-20" on="1"/>
      </contour>
    </TTGlyph>
    <TTGlyph name="bar" xMin="213" yMin="-454" xMax="379" yMax="1484">
      <contour>
        <pt x="213" y="-454" on="1"/>
        <pt x="213" y="1484" on="1"/>
        <pt x="379" y="1484" on="1"/>
        <pt x="379" y="-454" on="1"/>
      </contour>
    </TTGlyph>
    <TTGlyph name="bari.dotless" xMin="18" yMin="0" xMax="447" yMax="1082">
      <contour>
        <pt x="44" y="617" on="1"/>
        <pt x="153" y="617" on="1"/>
        <pt x="243" y="1082" on="1"/>
        <pt x="423" y="1082" on="1"/>
        <pt x="333" y="617" on="1"/>
        <pt x="447" y="617" on="1"/>
        <pt x="421" y="484" on="1"/>
        <pt x="307" y="484" on="1"/>
        <pt x="213" y="0" on="1"/>
        <pt x="33" y="0" on="1"/>
        <pt x="127" y="484" on="1"/>
        <pt x="18" y="484" on="1"/>
      </contour>
    </TTGlyph>
    <TTGlyph name="bet" xMin="-20" yMin="0" xMax="1083" yMax="1227">
      <contour>
        <pt x="231" y="1057" on="1"/>
        <pt x="264" y="1227" on="1"/>
        <pt x="641" y="1227" on="1"/>
        <pt x="870" y="1227" on="0"/>
        <pt x="1075" y="1070" on="0"/>
        <pt x="1075" y="897" on="1"/>
        <pt x="1075" y="816" on="0"/>
        <pt x="1057" y="719" on="1"/>
        <pt x="950" y="170" on="1"/>
        <pt x="1083" y="170" on="1"/>
        <pt x="1051" y="0" on="1"/>
        <pt x="-20" y="0" on="1"/>
        <pt x="12" y="170" on="1"/>
        <pt x="766" y="170" on="1"/>
        <pt x="872" y="721" on="1"/>
        <pt x="889" y="806" on="0"/>
        <pt x="889" y="872" on="1"/>
        <pt x="889" y="965" on="0"/>
        <pt x="763" y="1057" on="0"/>
        <pt x="623" y="1057" on="1"/>
      </contour>
    </TTGlyph>
    <TTGlyph name="beta" xMin="-50" yMin="-425" xMax="1120" yMax="1484">
      <contour>
        <pt x="752" y="1484" on="1"/>
        <pt x="921" y="1484" on="0"/>
        <pt x="1120" y="1305" on="0"/>
        <pt x="1120" y="1159" on="1"/>
        <pt x="1120" y="1015" on="0"/>
        <pt x="959" y="811" on="0"/>
        <pt x="821" y="782" on="1"/>
        <pt x="934" y="755" on="0"/>
        <pt x="1075" y="582" on="0"/>
        <pt x="1075" y="461" on="1"/>
        <pt x="1075" y="241" on="0"/>
        <pt x="792" y="-20" on="0"/>
        <pt x="549" y="-20" on="1"/>
        <pt x="447" y="-20" on="0"/>
        <pt x="281" y="36" on="0"/>
        <pt x="226" y="74" on="1"/>
        <pt x="220" y="74" on="1"/>
        <pt x="205" y="-29" on="1"/>
        <pt x="200" y="-63" on="0"/>
        <pt x="129" y="-425" on="1"/>
        <pt x="-50" y="-425" on="1"/>
        <pt x="229" y="1011" on="1"/>
        <pt x="322" y="1484" on="0"/>
      </contour>
      <contour>
        <pt x="734" y="1343" on="1"/>
        <pt x="474" y="1343" on="0"/>
        <pt x="409" y="1009" on="1"/>
        <pt x="251" y="205" on="1"/>
        <pt x="307" y="168" on="0"/>
        <pt x="479" y="113" on="0"/>
        <pt x="552" y="113" on="1"/>
        <pt x="718" y="113" on="0"/>
        <pt x="901" y="290" on="0"/>
        <pt x="901" y="447" on="1"/>
        <pt x="901" y="563" on="0"/>
        <pt x="746" y="703" on="0"/>
        <pt x="615" y="703" on="1"/>
        <pt x="643" y="845" on="1"/>
        <pt x="796" y="866" on="0"/>
        <pt x="944" y="1017" on="0"/>
        <pt x="944" y="1150" on="1"/>
        <pt x="944" y="1240" on="0"/>
        <pt x="836" y="1343" on="0"/>
      </contour>
    </TTGlyph>
    <TTGlyph name="betdagesh" xMin="-20" yMin="0" xMax="1083" yMax="1227">
      <component glyphName="bet" x="0" y="0" flags="0x204"/>
      <component glyphName="dagesh" x="479" y="0" flags="0x4"/>
    </TTGlyph>
    <TTGlyph name="betrafe" xMin="-20" yMin="0" xMax="1083" yMax="1579">
      <component glyphName="bet" x="0" y="0" flags="0x204"/>
      <component glyphName="rafe" x="502" y="0" flags="0x4"/>
    </TTGlyph>
    <TTGlyph name="block" xMin="0" yMin="-621" xMax="1451" yMax="1864">
      <contour>
        <pt x="1451" y="-621" on="1"/>
        <pt x="0" y="-621" on="1"/>
        <pt x="0" y="1864" on="1"/>
        <pt x="1451" y="1864" on="1"/>
      </contour>
    </TTGlyph>
    <TTGlyph name="braceleft" xMin="21" yMin="-425" xMax="833" yMax="1484">
      <contour>
        <pt x="366" y="-425" on="1"/>
        <pt x="255" y="-425" on="0"/>
        <pt x="124" y="-292" on="0"/>
        <pt x="124" y="-175" on="1"/>
        <pt x="124" y="-113" on="0"/>
        <pt x="134" y="-58" on="1"/>
        <pt x="190" y="229" on="1"/>
        <pt x="199" y="273" on="0"/>
        <pt x="199" y="306" on="1"/>
        <pt x="199" y="389" on="0"/>
        <pt x="106" y="462" on="0"/>
        <pt x="21" y="466" on="1"/>
        <pt x="46" y="593" on="1"/>
        <pt x="156" y="597" on="0"/>
        <pt x="284" y="712" on="0"/>
        <pt x="307" y="829" on="1"/>
        <pt x="377" y="1191" on="1"/>
        <pt x="405" y="1334" on="0"/>
        <pt x="556" y="1484" on="0"/>
        <pt x="698" y="1484" on="1"/>
        <pt x="833" y="1484" on="1"/>
        <pt x="808" y="1355" on="1"/>
        <pt x="745" y="1355" on="1"/>
        <pt x="656" y="1355" on="0"/>
        <pt x="559" y="1261" on="0"/>
        <pt x="535" y="1140" on="1"/>
        <pt x="466" y="784" on="1"/>
        <pt x="447" y="689" on="0"/>
        <pt x="316" y="554" on="0"/>
        <pt x="223" y="532" on="1"/>
        <pt x="223" y="530" on="1"/>
        <pt x="292" y="513" on="0"/>
        <pt x="373" y="413" on="0"/>
        <pt x="373" y="335" on="1"/>
        <pt x="373" y="308" on="0"/>
        <pt x="367" y="276" on="1"/>
        <pt x="306" y="-43" on="1"/>
        <pt x="301" y="-67" on="0"/>
        <pt x="294" y="-148" on="0"/>
        <pt x="293" y="-165" on="1"/>
        <pt x="293" y="-171" on="1"/>
        <pt x="293" y="-227" on="0"/>
        <pt x="362" y="-296" on="0"/>
        <pt x="439" y="-296" on="1"/>
        <pt x="487" y="-296" on="1"/>
        <pt x="462" y="-425" on="1"/>
      </contour>
    </TTGlyph>
    <TTGlyph name="braceright" xMin="-159" yMin="-425" xMax="653" yMax="1484">
      <contour>
        <pt x="308" y="1484" on="1"/>
        <pt x="419" y="1484" on="0"/>
        <pt x="550" y="1351" on="0"/>
        <pt x="550" y="1234" on="1"/>
        <pt x="550" y="1172" on="0"/>
        <pt x="540" y="1117" on="1"/>
        <pt x="484" y="830" on="1"/>
        <pt x="475" y="787" on="0"/>
        <pt x="475" y="753" on="1"/>
        <pt x="475" y="670" on="0"/>
        <pt x="568" y="597" on="0"/>
        <pt x="653" y="593" on="1"/>
        <pt x="628" y="466" on="1"/>
        <pt x="518" y="462" on="0"/>
        <pt x="390" y="347" on="0"/>
        <pt x="367" y="230" on="1"/>
        <pt x="297" y="-132" on="1"/>
        <pt x="269" y="-275" on="0"/>
        <pt x="118" y="-425" on="0"/>
        <pt x="-24" y="-425" on="1"/>
        <pt x="-159" y="-425" on="1"/>
        <pt x="-134" y="-296" on="1"/>
        <pt x="-71" y="-296" on="1"/>
        <pt x="18" y="-296" on="0"/>
        <pt x="115" y="-202" on="0"/>
        <pt x="139" y="-81" on="1"/>
        <pt x="208" y="275" on="1"/>
        <pt x="227" y="370" on="0"/>
        <pt x="358" y="505" on="0"/>
        <pt x="451" y="527" on="1"/>
        <pt x="451" y="529" on="1"/>
        <pt x="382" y="546" on="0"/>
        <pt x="301" y="646" on="0"/>
        <pt x="301" y="724" on="1"/>
        <pt x="301" y="752" on="0"/>
        <pt x="307" y="783" on="1"/>
        <pt x="368" y="1102" on="1"/>
        <pt x="373" y="1126" on="0"/>
        <pt x="380" y="1207" on="0"/>
        <pt x="381" y="1224" on="1"/>
        <pt x="381" y="1230" on="1"/>
        <pt x="381" y="1286" on="0"/>
        <pt x="312" y="1355" on="0"/>
        <pt x="235" y="1355" on="1"/>
        <pt x="187" y="1355" on="1"/>
        <pt x="212" y="1484" on="1"/>
      </contour>
    </TTGlyph>
    <TTGlyph name="bracketleft" xMin="-39" yMin="-425" xMax="738" yMax="1484">
      <contour>
        <pt x="-39" y="-425" on="1"/>
        <pt x="331" y="1484" on="1"/>
        <pt x="738" y="1484" on="1"/>
        <pt x="713" y="1355" on="1"/>
        <pt x="480" y="1355" on="1"/>
        <pt x="159" y="-296" on="1"/>
        <pt x="392" y="-296" on="1"/>
        <pt x="367" y="-425" on="1"/>
      </contour>
    </TTGlyph>
    <TTGlyph name="bracketright" xMin="-169" yMin="-425" xMax="608" yMax="1484">
      <contour>
        <pt x="-169" y="-425" on="1"/>
        <pt x="-144" y="-296" on="1"/>
        <pt x="88" y="-296" on="1"/>
        <pt x="409" y="1355" on="1"/>
        <pt x="176" y="1355" on="1"/>
        <pt x="201" y="1484" on="1"/>
        <pt x="608" y="1484" on="1"/>
        <pt x="237" y="-425" on="1"/>
      </contour>
    </TTGlyph>
    <TTGlyph name="breve" xMin="130" yMin="1201" xMax="795" yMax="1510">
      <contour>
        <pt x="426" y="1201" on="1"/>
        <pt x="293" y="1201" on="0"/>
        <pt x="132" y="1372" on="0"/>
        <pt x="130" y="1510" on="1"/>
        <pt x="246" y="1510" on="1"/>
        <pt x="249" y="1425" on="0"/>
        <pt x="352" y="1347" on="0"/>
        <pt x="435" y="1347" on="1"/>
        <pt x="614" y="1347" on="0"/>
        <pt x="678" y="1510" on="1"/>
        <pt x="795" y="1510" on="1"/>
        <pt x="744" y="1362" on="0"/>
        <pt x="553" y="1201" on="0"/>
      </contour>
    </TTGlyph>
    <TTGlyph name="breve.alt1" xMin="-101" yMin="1476" xMax="564" yMax="1726">
      <contour>
        <pt x="195" y="1476" on="1"/>
        <pt x="62" y="1476" on="0"/>
        <pt x="-99" y="1614" on="0"/>
        <pt x="-101" y="1725" on="1"/>
        <pt x="15" y="1725" on="1"/>
        <pt x="18" y="1666" on="0"/>
        <pt x="121" y="1612" on="0"/>
        <pt x="204" y="1612" on="1"/>
        <pt x="383" y="1612" on="0"/>
        <pt x="447" y="1726" on="1"/>
        <pt x="564" y="1726" on="1"/>
        <pt x="512" y="1604" on="0"/>
        <pt x="321" y="1476" on="0"/>
      </contour>
    </TTGlyph>
    <TTGlyph name="breve.cyr" xMin="56" yMin="1200" xMax="824" yMax="1514">
      <contour>
        <pt x="419" y="1200" on="1"/>
        <pt x="285" y="1200" on="0"/>
        <pt x="107" y="1317" on="0"/>
        <pt x="56" y="1443" on="1"/>
        <pt x="203" y="1504" on="1"/>
        <pt x="245" y="1405" on="0"/>
        <pt x="361" y="1321" on="0"/>
        <pt x="449" y="1321" on="1"/>
        <pt x="542" y="1321" on="0"/>
        <pt x="684" y="1421" on="0"/>
        <pt x="721" y="1514" on="1"/>
        <pt x="824" y="1478" on="1"/>
        <pt x="784" y="1352" on="0"/>
        <pt x="567" y="1200" on="0"/>
      </contour>
    </TTGlyph>
    <TTGlyph name="breve.uc" xMin="130" yMin="1520" xMax="795" yMax="1770">
      <contour>
        <pt x="426" y="1520" on="1"/>
        <pt x="293" y="1520" on="0"/>
        <pt x="132" y="1658" on="0"/>
        <pt x="130" y="1769" on="1"/>
        <pt x="246" y="1769" on="1"/>
        <pt x="249" y="1710" on="0"/>
        <pt x="352" y="1656" on="0"/>
        <pt x="435" y="1656" on="1"/>
        <pt x="614" y="1656" on="0"/>
        <pt x="678" y="1770" on="1"/>
        <pt x="795" y="1770" on="1"/>
        <pt x="743" y="1648" on="0"/>
        <pt x="552" y="1520" on="0"/>
      </contour>
    </TTGlyph>
    <TTGlyph name="breveacute" xMin="-300" yMin="1462" xMax="325" yMax="1835">
      <contour>
        <pt x="61" y="1835" on="1"/>
        <pt x="287" y="1835" on="1"/>
        <pt x="284" y="1823" on="1"/>
        <pt x="45" y="1677" on="1"/>
        <pt x="-84" y="1677" on="1"/>
        <pt x="-82" y="1687" on="1"/>
      </contour>
      <contour>
        <pt x="-27" y="1462" on="1"/>
        <pt x="-157" y="1462" on="0"/>
        <pt x="-300" y="1595" on="0"/>
        <pt x="-300" y="1711" on="1"/>
        <pt x="-193" y="1711" on="1"/>
        <pt x="-190" y="1643" on="0"/>
        <pt x="-94" y="1588" on="0"/>
        <pt x="-10" y="1588" on="1"/>
        <pt x="73" y="1588" on="0"/>
        <pt x="188" y="1644" on="0"/>
        <pt x="218" y="1711" on="1"/>
        <pt x="325" y="1711" on="1"/>
        <pt x="228" y="1462" on="0"/>
      </contour>
    </TTGlyph>
    <TTGlyph name="breveacute.lc" xMin="-328" yMin="1201" xMax="371" yMax="1776">
      <contour>
        <pt x="-99" y="1530" on="1"/>
        <pt x="-96" y="1550" on="1"/>
        <pt x="164" y="1776" on="1"/>
        <pt x="371" y="1776" on="1"/>
        <pt x="366" y="1747" on="1"/>
        <pt x="14" y="1530" on="1"/>
      </contour>
      <contour>
        <pt x="-44" y="1201" on="1"/>
        <pt x="-179" y="1201" on="0"/>
        <pt x="-328" y="1366" on="0"/>
        <pt x="-328" y="1510" on="1"/>
        <pt x="-211" y="1510" on="1"/>
        <pt x="-211" y="1357" on="0"/>
        <pt x="-26" y="1357" on="1"/>
        <pt x="70" y="1357" on="0"/>
        <pt x="190" y="1433" on="0"/>
        <pt x="220" y="1510" on="1"/>
        <pt x="337" y="1510" on="1"/>
        <pt x="228" y="1201" on="0"/>
      </contour>
    </TTGlyph>
    <TTGlyph name="brevegrave" xMin="-300" yMin="1462" xMax="325" yMax="1835">
      <contour>
        <pt x="99" y="1687" on="1"/>
        <pt x="97" y="1677" on="1"/>
        <pt x="-32" y="1677" on="1"/>
        <pt x="-235" y="1823" on="1"/>
        <pt x="-232" y="1835" on="1"/>
        <pt x="-7" y="1835" on="1"/>
      </contour>
      <contour>
        <pt x="-27" y="1462" on="1"/>
        <pt x="-157" y="1462" on="0"/>
        <pt x="-300" y="1595" on="0"/>
        <pt x="-300" y="1711" on="1"/>
        <pt x="-193" y="1711" on="1"/>
        <pt x="-190" y="1643" on="0"/>
        <pt x="-94" y="1588" on="0"/>
        <pt x="-10" y="1588" on="1"/>
        <pt x="73" y="1588" on="0"/>
        <pt x="188" y="1644" on="0"/>
        <pt x="218" y="1711" on="1"/>
        <pt x="325" y="1711" on="1"/>
        <pt x="228" y="1462" on="0"/>
      </contour>
    </TTGlyph>
    <TTGlyph name="brevegrave.lc" xMin="-328" yMin="1201" xMax="337" yMax="1776">
      <contour>
        <pt x="2" y="1530" on="1"/>
        <pt x="-275" y="1747" on="1"/>
        <pt x="-270" y="1776" on="1"/>
        <pt x="-63" y="1776" on="1"/>
        <pt x="119" y="1550" on="1"/>
        <pt x="116" y="1530" on="1"/>
      </contour>
      <contour>
        <pt x="-44" y="1201" on="1"/>
        <pt x="-179" y="1201" on="0"/>
        <pt x="-328" y="1366" on="0"/>
        <pt x="-328" y="1510" on="1"/>
        <pt x="-211" y="1510" on="1"/>
        <pt x="-211" y="1357" on="0"/>
        <pt x="-26" y="1357" on="1"/>
        <pt x="70" y="1357" on="0"/>
        <pt x="190" y="1433" on="0"/>
        <pt x="220" y="1510" on="1"/>
        <pt x="337" y="1510" on="1"/>
        <pt x="228" y="1201" on="0"/>
      </contour>
    </TTGlyph>
    <TTGlyph name="brevehook" xMin="-300" yMin="1462" xMax="325" yMax="1835">
      <contour>
        <pt x="20" y="1835" on="1"/>
        <pt x="86" y="1835" on="0"/>
        <pt x="155" y="1791" on="0"/>
        <pt x="155" y="1753" on="1"/>
        <pt x="155" y="1700" on="0"/>
        <pt x="67" y="1639" on="0"/>
        <pt x="-12" y="1639" on="1"/>
        <pt x="-47" y="1639" on="1"/>
        <pt x="-37" y="1694" on="1"/>
        <pt x="46" y="1694" on="0"/>
        <pt x="46" y="1739" on="1"/>
        <pt x="46" y="1767" on="0"/>
        <pt x="-6" y="1767" on="1"/>
        <pt x="-57" y="1767" on="0"/>
        <pt x="-101" y="1751" on="1"/>
        <pt x="-108" y="1815" on="1"/>
        <pt x="-45" y="1835" on="0"/>
      </contour>
      <contour>
        <pt x="-27" y="1462" on="1"/>
        <pt x="-159" y="1462" on="0"/>
        <pt x="-300" y="1595" on="0"/>
        <pt x="-300" y="1711" on="1"/>
        <pt x="-193" y="1711" on="1"/>
        <pt x="-190" y="1643" on="0"/>
        <pt x="-94" y="1588" on="0"/>
        <pt x="-10" y="1588" on="1"/>
        <pt x="73" y="1588" on="0"/>
        <pt x="188" y="1644" on="0"/>
        <pt x="218" y="1711" on="1"/>
        <pt x="325" y="1711" on="1"/>
        <pt x="228" y="1462" on="0"/>
      </contour>
    </TTGlyph>
    <TTGlyph name="brevehook.lc" xMin="-334" yMin="1201" xMax="331" yMax="1835">
      <contour>
        <pt x="42" y="1835" on="1"/>
        <pt x="254" y="1835" on="0"/>
        <pt x="254" y="1707" on="1"/>
        <pt x="254" y="1644" on="0"/>
        <pt x="142" y="1552" on="0"/>
        <pt x="50" y="1541" on="1"/>
        <pt x="42" y="1501" on="1"/>
        <pt x="-69" y="1501" on="1"/>
        <pt x="-47" y="1611" on="1"/>
        <pt x="27" y="1614" on="0"/>
        <pt x="82" y="1650" on="0"/>
        <pt x="82" y="1686" on="1"/>
        <pt x="82" y="1730" on="0"/>
        <pt x="0" y="1730" on="1"/>
        <pt x="-73" y="1730" on="0"/>
        <pt x="-147" y="1706" on="1"/>
        <pt x="-159" y="1805" on="1"/>
        <pt x="-64" y="1835" on="0"/>
      </contour>
      <contour>
        <pt x="-50" y="1201" on="1"/>
        <pt x="-185" y="1201" on="0"/>
        <pt x="-334" y="1366" on="0"/>
        <pt x="-334" y="1510" on="1"/>
        <pt x="-217" y="1510" on="1"/>
        <pt x="-217" y="1357" on="0"/>
        <pt x="-32" y="1357" on="1"/>
        <pt x="64" y="1357" on="0"/>
        <pt x="184" y="1433" on="0"/>
        <pt x="214" y="1510" on="1"/>
        <pt x="331" y="1510" on="1"/>
        <pt x="222" y="1201" on="0"/>
      </contour>
    </TTGlyph>
    <TTGlyph name="brevetilde" xMin="-311" yMin="1462" xMax="355" yMax="1835">
      <contour>
        <pt x="-25" y="1462" on="1"/>
        <pt x="-131" y="1462" on="0"/>
        <pt x="-245" y="1567" on="0"/>
        <pt x="-245" y="1661" on="1"/>
        <pt x="-160" y="1661" on="1"/>
        <pt x="-154" y="1621" on="0"/>
        <pt x="-77" y="1578" on="0"/>
        <pt x="-10" y="1578" on="1"/>
        <pt x="125" y="1578" on="0"/>
        <pt x="169" y="1661" on="1"/>
        <pt x="254" y="1661" on="1"/>
        <pt x="177" y="1462" on="0"/>
      </contour>
      <contour>
        <pt x="133" y="1681" on="1"/>
        <pt x="98" y="1681" on="0"/>
        <pt x="33" y="1700" on="0"/>
        <pt x="-27" y="1722" on="0"/>
        <pt x="-84" y="1741" on="0"/>
        <pt x="-111" y="1741" on="1"/>
        <pt x="-190" y="1741" on="0"/>
        <pt x="-220" y="1681" on="1"/>
        <pt x="-311" y="1681" on="1"/>
        <pt x="-289" y="1744" on="0"/>
        <pt x="-234" y="1803" on="0"/>
        <pt x="-149" y="1835" on="0"/>
        <pt x="-88" y="1835" on="1"/>
        <pt x="-52" y="1835" on="0"/>
        <pt x="13" y="1816" on="0"/>
        <pt x="73" y="1794" on="0"/>
        <pt x="128" y="1775" on="0"/>
        <pt x="154" y="1775" on="1"/>
        <pt x="202" y="1775" on="0"/>
        <pt x="251" y="1806" on="0"/>
        <pt x="263" y="1835" on="1"/>
        <pt x="355" y="1835" on="1"/>
        <pt x="328" y="1766" on="0"/>
        <pt x="275" y="1711" on="0"/>
        <pt x="194" y="1681" on="0"/>
      </contour>
    </TTGlyph>
    <TTGlyph name="brevetilde.lc" xMin="-328" yMin="1201" xMax="371" yMax="1775">
      <contour>
        <pt x="142" y="1581" on="1"/>
        <pt x="90" y="1581" on="0"/>
        <pt x="14" y="1619" on="1"/>
        <pt x="-63" y="1656" on="0"/>
        <pt x="-99" y="1656" on="1"/>
        <pt x="-144" y="1656" on="0"/>
        <pt x="-195" y="1621" on="0"/>
        <pt x="-211" y="1581" on="1"/>
        <pt x="-302" y="1581" on="1"/>
        <pt x="-274" y="1664" on="0"/>
        <pt x="-218" y="1735" on="0"/>
        <pt x="-134" y="1775" on="0"/>
        <pt x="-72" y="1775" on="1"/>
        <pt x="-36" y="1775" on="0"/>
        <pt x="29" y="1752" on="0"/>
        <pt x="88" y="1723" on="0"/>
        <pt x="142" y="1700" on="0"/>
        <pt x="168" y="1700" on="1"/>
        <pt x="216" y="1700" on="0"/>
        <pt x="266" y="1738" on="0"/>
        <pt x="279" y="1775" on="1"/>
        <pt x="371" y="1775" on="1"/>
        <pt x="342" y="1692" on="0"/>
        <pt x="287" y="1620" on="0"/>
        <pt x="204" y="1581" on="0"/>
      </contour>
      <contour>
        <pt x="-44" y="1201" on="1"/>
        <pt x="-179" y="1201" on="0"/>
        <pt x="-328" y="1366" on="0"/>
        <pt x="-328" y="1510" on="1"/>
        <pt x="-211" y="1510" on="1"/>
        <pt x="-211" y="1357" on="0"/>
        <pt x="-26" y="1357" on="1"/>
        <pt x="70" y="1357" on="0"/>
        <pt x="190" y="1433" on="0"/>
        <pt x="220" y="1510" on="1"/>
        <pt x="337" y="1510" on="1"/>
        <pt x="228" y="1201" on="0"/>
      </contour>
    </TTGlyph>
    <TTGlyph name="brokenbar" xMin="213" yMin="-455" xMax="379" yMax="1485">
      <contour>
        <pt x="213" y="707" on="1"/>
        <pt x="213" y="1485" on="1"/>
        <pt x="379" y="1485" on="1"/>
        <pt x="379" y="707" on="1"/>
      </contour>
      <contour>
        <pt x="213" y="-455" on="1"/>
        <pt x="213" y="324" on="1"/>
        <pt x="379" y="324" on="1"/>
        <pt x="379" y="-455" on="1"/>
      </contour>
    </TTGlyph>
    <TTGlyph name="bullet" xMin="97" yMin="401" xMax="652" yMax="956">
      <contour>
        <pt x="652" y="682" on="1"/>
        <pt x="652" y="565" on="0"/>
        <pt x="485" y="401" on="0"/>
        <pt x="371" y="401" on="1"/>
        <pt x="260" y="401" on="0"/>
        <pt x="97" y="565" on="0"/>
        <pt x="97" y="682" on="1"/>
        <pt x="97" y="797" on="0"/>
        <pt x="259" y="956" on="0"/>
        <pt x="371" y="956" on="1"/>
        <pt x="486" y="956" on="0"/>
        <pt x="652" y="797" on="0"/>
      </contour>
    </TTGlyph>
    <TTGlyph name="c" xMin="67" yMin="-20" xMax="1001" yMax="1102">
      <contour>
        <pt x="469" y="122" on="1"/>
        <pt x="674" y="122" on="0"/>
        <pt x="758" y="352" on="1"/>
        <pt x="914" y="303" on="1"/>
        <pt x="793" y="-20" on="0"/>
        <pt x="465" y="-20" on="1"/>
        <pt x="273" y="-20" on="0"/>
        <pt x="67" y="198" on="0"/>
        <pt x="67" y="395" on="1"/>
        <pt x="67" y="595" on="0"/>
        <pt x="212" y="939" on="0"/>
        <pt x="451" y="1102" on="0"/>
        <pt x="625" y="1102" on="1"/>
        <pt x="794" y="1102" on="0"/>
        <pt x="991" y="932" on="0"/>
        <pt x="1001" y="784" on="1"/>
        <pt x="824" y="759" on="1"/>
        <pt x="818" y="856" on="0"/>
        <pt x="710" y="961" on="0"/>
        <pt x="619" y="961" on="1"/>
        <pt x="493" y="961" on="0"/>
        <pt x="337" y="826" on="0"/>
        <pt x="251" y="532" on="0"/>
        <pt x="251" y="389" on="1"/>
        <pt x="251" y="122" on="0"/>
      </contour>
    </TTGlyph>
    <TTGlyph name="cacute" xMin="67" yMin="-20" xMax="1007" yMax="1508">
      <component glyphName="c" x="0" y="0" flags="0x204"/>
      <component glyphName="acute" x="359" y="0" flags="0x4"/>
    </TTGlyph>
    <TTGlyph name="caron" xMin="136" yMin="1201" xMax="802" yMax="1491">
      <contour>
        <pt x="521" y="1201" on="1"/>
        <pt x="317" y="1201" on="1"/>
        <pt x="136" y="1471" on="1"/>
        <pt x="140" y="1491" on="1"/>
        <pt x="237" y="1491" on="1"/>
        <pt x="436" y="1322" on="1"/>
        <pt x="438" y="1322" on="1"/>
        <pt x="690" y="1491" on="1"/>
        <pt x="802" y="1491" on="1"/>
        <pt x="798" y="1471" on="1"/>
      </contour>
    </TTGlyph>
    <TTGlyph name="caron.uc" xMin="241" yMin="1530" xMax="907" yMax="1790">
      <contour>
        <pt x="632" y="1530" on="1"/>
        <pt x="428" y="1530" on="1"/>
        <pt x="241" y="1769" on="1"/>
        <pt x="245" y="1790" on="1"/>
        <pt x="338" y="1790" on="1"/>
        <pt x="543" y="1651" on="1"/>
        <pt x="545" y="1651" on="1"/>
        <pt x="791" y="1790" on="1"/>
        <pt x="907" y="1790" on="1"/>
        <pt x="903" y="1769" on="1"/>
      </contour>
    </TTGlyph>
    <TTGlyph name="caroncommaaccent" xMin="248" yMin="1052" xMax="518" yMax="1409">
      <contour>
        <pt x="365" y="1052" on="1"/>
        <pt x="248" y="1052" on="1"/>
        <pt x="362" y="1153" on="0"/>
        <pt x="379" y="1242" on="1"/>
        <pt x="291" y="1242" on="1"/>
        <pt x="323" y="1409" on="1"/>
        <pt x="518" y="1409" on="1"/>
        <pt x="498" y="1303" on="1"/>
        <pt x="481" y="1216" on="0"/>
        <pt x="414" y="1099" on="0"/>
      </contour>
    </TTGlyph>
    <TTGlyph name="ccaron" xMin="67" yMin="-20" xMax="1016" yMax="1491">
      <component glyphName="c" x="0" y="0" flags="0x204"/>
      <component glyphName="caron" x="214" y="0" flags="0x4"/>
    </TTGlyph>
    <TTGlyph name="ccedilla" xMin="67" yMin="-425" xMax="1001" yMax="1102">
      <component glyphName="c" x="0" y="0" flags="0x204"/>
      <component glyphName="cedilla" x="134" y="0" flags="0x4"/>
    </TTGlyph>
    <TTGlyph name="ccircumflex" xMin="67" yMin="-20" xMax="1001" yMax="1491">
      <component glyphName="c" x="0" y="0" flags="0x204"/>
      <component glyphName="circumflex" x="228" y="0" flags="0x4"/>
    </TTGlyph>
    <TTGlyph name="cdotaccent" xMin="67" yMin="-20" xMax="1001" yMax="1484">
      <component glyphName="c" x="0" y="0" flags="0x204"/>
      <component glyphName="dotaccent" x="247" y="0" flags="0x4"/>
    </TTGlyph>
    <TTGlyph name="cedilla" xMin="71" yMin="-425" xMax="480" yMax="0">
      <contour>
        <pt x="318" y="-96" on="1"/>
        <pt x="399" y="-101" on="0"/>
        <pt x="480" y="-173" on="0"/>
        <pt x="480" y="-232" on="1"/>
        <pt x="480" y="-425" on="0"/>
        <pt x="177" y="-425" on="1"/>
        <pt x="127" y="-425" on="0"/>
        <pt x="71" y="-418" on="1"/>
        <pt x="92" y="-327" on="1"/>
        <pt x="140" y="-333" on="0"/>
        <pt x="180" y="-333" on="1"/>
        <pt x="271" y="-333" on="0"/>
        <pt x="346" y="-289" on="0"/>
        <pt x="346" y="-244" on="1"/>
        <pt x="346" y="-172" on="0"/>
        <pt x="227" y="-172" on="1"/>
        <pt x="183" y="-172" on="0"/>
        <pt x="169" y="-174" on="1"/>
        <pt x="270" y="0" on="1"/>
        <pt x="377" y="0" on="1"/>
      </contour>
    </TTGlyph>
    <TTGlyph name="cent" xMin="158" yMin="-31" xMax="1092" yMax="1409">
      <contour>
        <pt x="560" y="278" on="1"/>
        <pt x="765" y="278" on="0"/>
        <pt x="849" y="508" on="1"/>
        <pt x="1005" y="459" on="1"/>
        <pt x="889" y="151" on="0"/>
        <pt x="588" y="136" on="1"/>
        <pt x="556" y="-31" on="1"/>
        <pt x="432" y="-31" on="1"/>
        <pt x="466" y="142" on="1"/>
        <pt x="317" y="164" on="0"/>
        <pt x="158" y="377" on="0"/>
        <pt x="158" y="551" on="1"/>
        <pt x="158" y="687" on="0"/>
        <pt x="234" y="960" on="0"/>
        <pt x="364" y="1148" on="0"/>
        <pt x="550" y="1251" on="0"/>
        <pt x="683" y="1257" on="1"/>
        <pt x="711" y="1409" on="1"/>
        <pt x="835" y="1409" on="1"/>
        <pt x="806" y="1251" on="1"/>
        <pt x="937" y="1232" on="0"/>
        <pt x="1084" y="1068" on="0"/>
        <pt x="1092" y="940" on="1"/>
        <pt x="915" y="915" on="1"/>
        <pt x="909" y="1012" on="0"/>
        <pt x="801" y="1117" on="0"/>
        <pt x="710" y="1117" on="1"/>
        <pt x="584" y="1117" on="0"/>
        <pt x="428" y="982" on="0"/>
        <pt x="342" y="688" on="0"/>
        <pt x="342" y="545" on="1"/>
        <pt x="342" y="278" on="0"/>
      </contour>
    </TTGlyph>
    <TTGlyph name="chi" xMin="-149" yMin="-424" xMax="1145" yMax="1104">
      <contour>
        <pt x="520" y="239" on="1"/>
        <pt x="48" y="-424" on="1"/>
        <pt x="-149" y="-424" on="1"/>
        <pt x="460" y="401" on="1"/>
        <pt x="357" y="744" on="1"/>
        <pt x="316" y="883" on="0"/>
        <pt x="262" y="963" on="0"/>
        <pt x="222" y="963" on="1"/>
        <pt x="202" y="963" on="0"/>
        <pt x="170" y="951" on="1"/>
        <pt x="136" y="1075" on="1"/>
        <pt x="217" y="1104" on="0"/>
        <pt x="277" y="1104" on="1"/>
        <pt x="337" y="1104" on="0"/>
        <pt x="409" y="1060" on="0"/>
        <pt x="463" y="958" on="0"/>
        <pt x="498" y="838" on="1"/>
        <pt x="583" y="543" on="1"/>
        <pt x="952" y="1082" on="1"/>
        <pt x="1145" y="1082" on="1"/>
        <pt x="641" y="385" on="1"/>
        <pt x="900" y="-424" on="1"/>
        <pt x="720" y="-424" on="1"/>
      </contour>
    </TTGlyph>
    <TTGlyph name="circle" xMin="167" yMin="162" xMax="1070" yMax="1065">
      <contour>
        <pt x="167" y="612" on="1"/>
        <pt x="167" y="734" on="0"/>
        <pt x="287" y="944" on="0"/>
        <pt x="496" y="1065" on="0"/>
        <pt x="617" y="1065" on="1"/>
        <pt x="739" y="1065" on="0"/>
        <pt x="949" y="944" on="0"/>
        <pt x="1070" y="733" on="0"/>
        <pt x="1070" y="612" on="1"/>
        <pt x="1070" y="491" on="0"/>
        <pt x="949" y="282" on="0"/>
        <pt x="740" y="162" on="0"/>
        <pt x="617" y="162" on="1"/>
        <pt x="495" y="162" on="0"/>
        <pt x="287" y="282" on="0"/>
        <pt x="167" y="490" on="0"/>
      </contour>
      <contour>
        <pt x="253" y="612" on="1"/>
        <pt x="253" y="514" on="0"/>
        <pt x="351" y="345" on="0"/>
        <pt x="518" y="248" on="0"/>
        <pt x="617" y="248" on="1"/>
        <pt x="715" y="248" on="0"/>
        <pt x="884" y="344" on="0"/>
        <pt x="984" y="514" on="0"/>
        <pt x="984" y="612" on="1"/>
        <pt x="984" y="710" on="0"/>
        <pt x="886" y="881" on="0"/>
        <pt x="715" y="979" on="0"/>
        <pt x="617" y="979" on="1"/>
        <pt x="520" y="979" on="0"/>
        <pt x="351" y="881" on="0"/>
        <pt x="253" y="712" on="0"/>
      </contour>
    </TTGlyph>
    <TTGlyph name="circumflex" xMin="77" yMin="1201" xMax="742" yMax="1491">
      <contour>
        <pt x="742" y="1221" on="1"/>
        <pt x="738" y="1201" on="1"/>
        <pt x="646" y="1201" on="1"/>
        <pt x="460" y="1370" on="1"/>
        <pt x="458" y="1370" on="1"/>
        <pt x="193" y="1201" on="1"/>
        <pt x="77" y="1201" on="1"/>
        <pt x="81" y="1221" on="1"/>
        <pt x="367" y="1491" on="1"/>
        <pt x="571" y="1491" on="1"/>
      </contour>
    </TTGlyph>
    <TTGlyph name="circumflex.alt1" xMin="-36" yMin="1521" xMax="541" yMax="1715">
      <contour>
        <pt x="541" y="1541" on="1"/>
        <pt x="537" y="1521" on="1"/>
        <pt x="425" y="1521" on="1"/>
        <pt x="270" y="1604" on="1"/>
        <pt x="268" y="1604" on="1"/>
        <pt x="100" y="1521" on="1"/>
        <pt x="-36" y="1521" on="1"/>
        <pt x="-32" y="1541" on="1"/>
        <pt x="197" y="1715" on="1"/>
        <pt x="361" y="1715" on="1"/>
      </contour>
    </TTGlyph>
    <TTGlyph name="circumflex.uc" xMin="195" yMin="1530" xMax="860" yMax="1790">
      <contour>
        <pt x="860" y="1550" on="1"/>
        <pt x="856" y="1530" on="1"/>
        <pt x="761" y="1530" on="1"/>
        <pt x="569" y="1669" on="1"/>
        <pt x="567" y="1669" on="1"/>
        <pt x="308" y="1530" on="1"/>
        <pt x="195" y="1530" on="1"/>
        <pt x="199" y="1550" on="1"/>
        <pt x="479" y="1790" on="1"/>
        <pt x="683" y="1790" on="1"/>
      </contour>
    </TTGlyph>
    <TTGlyph name="circumflexacute" xMin="-365" yMin="1462" xMax="565" yMax="1835">
      <contour>
        <pt x="348" y="1835" on="1"/>
        <pt x="565" y="1835" on="1"/>
        <pt x="562" y="1823" on="1"/>
        <pt x="302" y="1647" on="1"/>
        <pt x="206" y="1647" on="1"/>
        <pt x="208" y="1657" on="1"/>
      </contour>
      <contour>
        <pt x="290" y="1482" on="1"/>
        <pt x="286" y="1462" on="1"/>
        <pt x="181" y="1462" on="1"/>
        <pt x="-4" y="1631" on="1"/>
        <pt x="-6" y="1631" on="1"/>
        <pt x="-261" y="1462" on="1"/>
        <pt x="-365" y="1462" on="1"/>
        <pt x="-361" y="1482" on="1"/>
        <pt x="-84" y="1752" on="1"/>
        <pt x="119" y="1752" on="1"/>
      </contour>
    </TTGlyph>
    <TTGlyph name="circumflexacute.lc" xMin="-385" yMin="1201" xMax="545" yMax="1574">
      <contour>
        <pt x="328" y="1574" on="1"/>
        <pt x="545" y="1574" on="1"/>
        <pt x="542" y="1562" on="1"/>
        <pt x="282" y="1386" on="1"/>
        <pt x="186" y="1386" on="1"/>
        <pt x="188" y="1396" on="1"/>
      </contour>
      <contour>
        <pt x="270" y="1221" on="1"/>
        <pt x="266" y="1201" on="1"/>
        <pt x="161" y="1201" on="1"/>
        <pt x="-24" y="1370" on="1"/>
        <pt x="-26" y="1370" on="1"/>
        <pt x="-281" y="1201" on="1"/>
        <pt x="-385" y="1201" on="1"/>
        <pt x="-381" y="1221" on="1"/>
        <pt x="-104" y="1491" on="1"/>
        <pt x="99" y="1491" on="1"/>
      </contour>
    </TTGlyph>
    <TTGlyph name="circumflexgrave" xMin="-498" yMin="1462" xMax="290" yMax="1835">
      <contour>
        <pt x="-208" y="1657" on="1"/>
        <pt x="-210" y="1647" on="1"/>
        <pt x="-306" y="1647" on="1"/>
        <pt x="-498" y="1823" on="1"/>
        <pt x="-495" y="1835" on="1"/>
        <pt x="-278" y="1835" on="1"/>
      </contour>
      <contour>
        <pt x="290" y="1482" on="1"/>
        <pt x="286" y="1462" on="1"/>
        <pt x="181" y="1462" on="1"/>
        <pt x="-4" y="1631" on="1"/>
        <pt x="-6" y="1631" on="1"/>
        <pt x="-261" y="1462" on="1"/>
        <pt x="-365" y="1462" on="1"/>
        <pt x="-361" y="1482" on="1"/>
        <pt x="-84" y="1752" on="1"/>
        <pt x="119" y="1752" on="1"/>
      </contour>
    </TTGlyph>
    <TTGlyph name="circumflexgrave.lc" xMin="-521" yMin="1201" xMax="270" yMax="1574">
      <contour>
        <pt x="-231" y="1396" on="1"/>
        <pt x="-233" y="1386" on="1"/>
        <pt x="-329" y="1386" on="1"/>
        <pt x="-521" y="1562" on="1"/>
        <pt x="-518" y="1574" on="1"/>
        <pt x="-301" y="1574" on="1"/>
      </contour>
      <contour>
        <pt x="-104" y="1491" on="1"/>
        <pt x="99" y="1491" on="1"/>
        <pt x="270" y="1221" on="1"/>
        <pt x="266" y="1201" on="1"/>
        <pt x="162" y="1201" on="1"/>
        <pt x="-26" y="1370" on="1"/>
        <pt x="-28" y="1370" on="1"/>
        <pt x="-280" y="1201" on="1"/>
        <pt x="-385" y="1201" on="1"/>
        <pt x="-381" y="1221" on="1"/>
      </contour>
    </TTGlyph>
    <TTGlyph name="circumflexhook" xMin="-365" yMin="1462" xMax="466" yMax="1835">
      <contour>
        <pt x="331" y="1835" on="1"/>
        <pt x="397" y="1835" on="0"/>
        <pt x="466" y="1787" on="0"/>
        <pt x="466" y="1749" on="1"/>
        <pt x="466" y="1699" on="0"/>
        <pt x="383" y="1639" on="0"/>
        <pt x="324" y="1639" on="1"/>
        <pt x="319" y="1616" on="1"/>
        <pt x="258" y="1616" on="1"/>
        <pt x="273" y="1694" on="1"/>
        <pt x="357" y="1694" on="0"/>
        <pt x="357" y="1739" on="1"/>
        <pt x="357" y="1767" on="0"/>
        <pt x="304" y="1767" on="1"/>
        <pt x="253" y="1767" on="0"/>
        <pt x="209" y="1751" on="1"/>
        <pt x="202" y="1815" on="1"/>
        <pt x="265" y="1835" on="0"/>
      </contour>
      <contour>
        <pt x="290" y="1482" on="1"/>
        <pt x="286" y="1462" on="1"/>
        <pt x="181" y="1462" on="1"/>
        <pt x="-4" y="1631" on="1"/>
        <pt x="-261" y="1462" on="1"/>
        <pt x="-365" y="1462" on="1"/>
        <pt x="-361" y="1482" on="1"/>
        <pt x="-84" y="1752" on="1"/>
        <pt x="119" y="1752" on="1"/>
      </contour>
    </TTGlyph>
    <TTGlyph name="circumflexhook.lc" xMin="-386" yMin="1201" xMax="490" yMax="1653">
      <contour>
        <pt x="317" y="1653" on="1"/>
        <pt x="490" y="1653" on="0"/>
        <pt x="490" y="1551" on="1"/>
        <pt x="490" y="1498" on="0"/>
        <pt x="404" y="1425" on="0"/>
        <pt x="324" y="1415" on="1"/>
        <pt x="317" y="1377" on="1"/>
        <pt x="226" y="1377" on="1"/>
        <pt x="244" y="1471" on="1"/>
        <pt x="304" y="1474" on="0"/>
        <pt x="350" y="1500" on="0"/>
        <pt x="350" y="1527" on="1"/>
        <pt x="350" y="1568" on="0"/>
        <pt x="282" y="1568" on="1"/>
        <pt x="221" y="1568" on="0"/>
        <pt x="164" y="1549" on="1"/>
        <pt x="154" y="1629" on="1"/>
        <pt x="228" y="1653" on="0"/>
      </contour>
      <contour>
        <pt x="268" y="1221" on="1"/>
        <pt x="265" y="1201" on="1"/>
        <pt x="160" y="1201" on="1"/>
        <pt x="-26" y="1370" on="1"/>
        <pt x="-282" y="1201" on="1"/>
        <pt x="-386" y="1201" on="1"/>
        <pt x="-383" y="1221" on="1"/>
        <pt x="-106" y="1491" on="1"/>
        <pt x="97" y="1491" on="1"/>
      </contour>
    </TTGlyph>
    <TTGlyph name="circumflextilde" xMin="-341" yMin="1462" xMax="355" yMax="1835">
      <contour>
        <pt x="125" y="1641" on="1"/>
        <pt x="74" y="1641" on="0"/>
        <pt x="-2" y="1679" on="1"/>
        <pt x="-79" y="1716" on="0"/>
        <pt x="-115" y="1716" on="1"/>
        <pt x="-160" y="1716" on="0"/>
        <pt x="-212" y="1681" on="0"/>
        <pt x="-228" y="1641" on="1"/>
        <pt x="-319" y="1641" on="1"/>
        <pt x="-292" y="1721" on="0"/>
        <pt x="-236" y="1794" on="0"/>
        <pt x="-151" y="1835" on="0"/>
        <pt x="-88" y="1835" on="1"/>
        <pt x="-52" y="1835" on="0"/>
        <pt x="12" y="1812" on="0"/>
        <pt x="71" y="1783" on="0"/>
        <pt x="125" y="1760" on="0"/>
        <pt x="151" y="1760" on="1"/>
        <pt x="199" y="1760" on="0"/>
        <pt x="249" y="1798" on="0"/>
        <pt x="263" y="1835" on="1"/>
        <pt x="355" y="1835" on="1"/>
        <pt x="326" y="1751" on="0"/>
        <pt x="270" y="1680" on="0"/>
        <pt x="188" y="1641" on="0"/>
      </contour>
      <contour>
        <pt x="-17" y="1529" on="1"/>
        <pt x="-181" y="1462" on="1"/>
        <pt x="-341" y="1462" on="1"/>
        <pt x="-338" y="1474" on="1"/>
        <pt x="-102" y="1615" on="1"/>
        <pt x="92" y="1615" on="1"/>
        <pt x="272" y="1472" on="1"/>
        <pt x="270" y="1462" on="1"/>
        <pt x="120" y="1462" on="1"/>
      </contour>
    </TTGlyph>
    <TTGlyph name="circumflextilde.lc" xMin="-381" yMin="1201" xMax="361" yMax="1775">
      <contour>
        <pt x="-101" y="1491" on="1"/>
        <pt x="102" y="1491" on="1"/>
        <pt x="274" y="1221" on="1"/>
        <pt x="270" y="1201" on="1"/>
        <pt x="170" y="1201" on="1"/>
        <pt x="-18" y="1370" on="1"/>
        <pt x="-20" y="1370" on="1"/>
        <pt x="-272" y="1201" on="1"/>
        <pt x="-381" y="1201" on="1"/>
        <pt x="-377" y="1221" on="1"/>
      </contour>
      <contour>
        <pt x="132" y="1581" on="1"/>
        <pt x="80" y="1581" on="0"/>
        <pt x="4" y="1619" on="1"/>
        <pt x="-73" y="1656" on="0"/>
        <pt x="-109" y="1656" on="1"/>
        <pt x="-154" y="1656" on="0"/>
        <pt x="-205" y="1621" on="0"/>
        <pt x="-221" y="1581" on="1"/>
        <pt x="-312" y="1581" on="1"/>
        <pt x="-284" y="1664" on="0"/>
        <pt x="-228" y="1735" on="0"/>
        <pt x="-144" y="1775" on="0"/>
        <pt x="-82" y="1775" on="1"/>
        <pt x="-46" y="1775" on="0"/>
        <pt x="19" y="1752" on="0"/>
        <pt x="78" y="1723" on="0"/>
        <pt x="132" y="1700" on="0"/>
        <pt x="158" y="1700" on="1"/>
        <pt x="206" y="1700" on="0"/>
        <pt x="256" y="1738" on="0"/>
        <pt x="269" y="1775" on="1"/>
        <pt x="361" y="1775" on="1"/>
        <pt x="332" y="1692" on="0"/>
        <pt x="277" y="1620" on="0"/>
        <pt x="194" y="1581" on="0"/>
      </contour>
    </TTGlyph>
    <TTGlyph name="club" xMin="60" yMin="0" xMax="1284" yMax="1223">
      <contour>
        <pt x="1094" y="0" on="1"/>
        <pt x="252" y="0" on="1"/>
        <pt x="260" y="35" on="1"/>
        <pt x="395" y="62" on="0"/>
        <pt x="514" y="116" on="0"/>
        <pt x="609" y="236" on="0"/>
        <pt x="662" y="385" on="0"/>
        <pt x="662" y="461" on="1"/>
        <pt x="660" y="508" on="1"/>
        <pt x="603" y="388" on="0"/>
        <pt x="425" y="270" on="0"/>
        <pt x="336" y="270" on="1"/>
        <pt x="259" y="270" on="0"/>
        <pt x="130" y="346" on="0"/>
        <pt x="60" y="472" on="0"/>
        <pt x="60" y="549" on="1"/>
        <pt x="60" y="664" on="0"/>
        <pt x="206" y="822" on="0"/>
        <pt x="299" y="823" on="1"/>
        <pt x="361" y="823" on="0"/>
        <pt x="461" y="772" on="1"/>
        <pt x="423" y="837" on="0"/>
        <pt x="406" y="877" on="1"/>
        <pt x="395" y="914" on="0"/>
        <pt x="395" y="952" on="1"/>
        <pt x="395" y="1073" on="0"/>
        <pt x="557" y="1223" on="0"/>
        <pt x="670" y="1223" on="1"/>
        <pt x="786" y="1223" on="0"/>
        <pt x="946" y="1063" on="0"/>
        <pt x="946" y="956" on="1"/>
        <pt x="946" y="870" on="0"/>
        <pt x="877" y="772" on="1"/>
        <pt x="961" y="812" on="0"/>
        <pt x="977" y="815" on="1"/>
        <pt x="999" y="823" on="0"/>
        <pt x="1038" y="823" on="1"/>
        <pt x="1143" y="823" on="0"/>
        <pt x="1211" y="745" on="1"/>
        <pt x="1284" y="669" on="0"/>
        <pt x="1284" y="553" on="1"/>
        <pt x="1284" y="437" on="0"/>
        <pt x="1128" y="272" on="0"/>
        <pt x="1012" y="272" on="1"/>
        <pt x="956" y="272" on="0"/>
        <pt x="838" y="321" on="0"/>
        <pt x="743" y="403" on="0"/>
        <pt x="682" y="508" on="1"/>
        <pt x="687" y="382" on="0"/>
        <pt x="736" y="229" on="0"/>
        <pt x="845" y="109" on="0"/>
        <pt x="972" y="56" on="0"/>
        <pt x="1086" y="35" on="1"/>
      </contour>
    </TTGlyph>
    <TTGlyph name="colon" xMin="81" yMin="0" xMax="487" yMax="1082">
      <contour>
        <pt x="251" y="875" on="1"/>
        <pt x="292" y="1082" on="1"/>
        <pt x="487" y="1082" on="1"/>
        <pt x="446" y="875" on="1"/>
      </contour>
      <contour>
        <pt x="81" y="0" on="1"/>
        <pt x="122" y="207" on="1"/>
        <pt x="317" y="207" on="1"/>
        <pt x="276" y="0" on="1"/>
      </contour>
    </TTGlyph>
    <TTGlyph name="comma" xMin="37" yMin="-262" xMax="331" yMax="219">
      <contour>
        <pt x="160" y="-262" on="1"/>
        <pt x="37" y="-262" on="1"/>
        <pt x="157" y="-125" on="0"/>
        <pt x="182" y="0" on="1"/>
        <pt x="94" y="0" on="1"/>
        <pt x="136" y="219" on="1"/>
        <pt x="331" y="219" on="1"/>
        <pt x="299" y="51" on="1"/>
        <pt x="281" y="-44" on="0"/>
        <pt x="215" y="-194" on="0"/>
      </contour>
    </TTGlyph>
    <TTGlyph name="commaaccent" xMin="88" yMin="-455" xMax="358" yMax="-98">
      <contour>
        <pt x="205" y="-455" on="1"/>
        <pt x="88" y="-455" on="1"/>
        <pt x="202" y="-354" on="0"/>
        <pt x="219" y="-265" on="1"/>
        <pt x="131" y="-265" on="1"/>
        <pt x="163" y="-98" on="1"/>
        <pt x="358" y="-98" on="1"/>
        <pt x="338" y="-204" on="1"/>
        <pt x="321" y="-291" on="0"/>
        <pt x="254" y="-408" on="0"/>
      </contour>
    </TTGlyph>
    <TTGlyph name="commaaccentrotate" xMin="285" yMin="1211" xMax="555" yMax="1568">
      <contour>
        <pt x="438" y="1568" on="1"/>
        <pt x="555" y="1568" on="1"/>
        <pt x="441" y="1467" on="0"/>
        <pt x="424" y="1378" on="1"/>
        <pt x="512" y="1378" on="1"/>
        <pt x="480" y="1211" on="1"/>
        <pt x="285" y="1211" on="1"/>
        <pt x="305" y="1317" on="1"/>
        <pt x="322" y="1404" on="0"/>
        <pt x="389" y="1521" on="0"/>
      </contour>
    </TTGlyph>
    <TTGlyph name="copyright" xMin="63" yMin="-16" xMax="1509" yMax="1430">
      <contour>
        <pt x="1509" y="707" on="1"/>
        <pt x="1509" y="514" on="0"/>
        <pt x="1316" y="177" on="0"/>
        <pt x="979" y="-16" on="0"/>
        <pt x="786" y="-16" on="1"/>
        <pt x="589" y="-16" on="0"/>
        <pt x="250" y="185" on="0"/>
        <pt x="63" y="518" on="0"/>
        <pt x="63" y="707" on="1"/>
        <pt x="63" y="900" on="0"/>
        <pt x="257" y="1236" on="0"/>
        <pt x="593" y="1430" on="0"/>
        <pt x="786" y="1430" on="1"/>
        <pt x="980" y="1430" on="0"/>
        <pt x="1317" y="1235" on="0"/>
        <pt x="1509" y="901" on="0"/>
      </contour>
      <contour>
        <pt x="1417" y="707" on="1"/>
        <pt x="1417" y="875" on="0"/>
        <pt x="1248" y="1166" on="0"/>
        <pt x="955" y="1335" on="0"/>
        <pt x="786" y="1335" on="1"/>
        <pt x="618" y="1335" on="0"/>
        <pt x="326" y="1166" on="0"/>
        <pt x="158" y="874" on="0"/>
        <pt x="158" y="707" on="1"/>
        <pt x="158" y="538" on="0"/>
        <pt x="327" y="246" on="0"/>
        <pt x="617" y="78" on="0"/>
        <pt x="786" y="78" on="1"/>
        <pt x="956" y="78" on="0"/>
        <pt x="1249" y="247" on="0"/>
        <pt x="1417" y="538" on="0"/>
      </contour>
      <contour>
        <pt x="797" y="279" on="1"/>
        <pt x="609" y="279" on="0"/>
        <pt x="401" y="505" on="0"/>
        <pt x="401" y="709" on="1"/>
        <pt x="401" y="912" on="0"/>
        <pt x="601" y="1133" on="0"/>
        <pt x="790" y="1133" on="1"/>
        <pt x="1034" y="1133" on="0"/>
        <pt x="1130" y="924" on="1"/>
        <pt x="1016" y="891" on="1"/>
        <pt x="984" y="960" on="0"/>
        <pt x="868" y="1028" on="0"/>
        <pt x="792" y="1028" on="1"/>
        <pt x="665" y="1028" on="0"/>
        <pt x="530" y="867" on="0"/>
        <pt x="530" y="709" on="1"/>
        <pt x="530" y="554" on="0"/>
        <pt x="672" y="383" on="0"/>
        <pt x="797" y="383" on="1"/>
        <pt x="875" y="383" on="0"/>
        <pt x="990" y="458" on="0"/>
        <pt x="1030" y="539" on="1"/>
        <pt x="1145" y="504" on="1"/>
        <pt x="1083" y="383" on="0"/>
        <pt x="914" y="279" on="0"/>
      </contour>
    </TTGlyph>
    <TTGlyph name="currency" xMin="141" yMin="225" xMax="1054" yMax="1139">
      <contour>
        <pt x="165" y="684" on="1"/>
        <pt x="165" y="822" on="0"/>
        <pt x="243" y="936" on="1"/>
        <pt x="143" y="1036" on="1"/>
        <pt x="247" y="1139" on="1"/>
        <pt x="346" y="1038" on="1"/>
        <pt x="460" y="1120" on="0"/>
        <pt x="600" y="1120" on="1"/>
        <pt x="737" y="1120" on="0"/>
        <pt x="851" y="1040" on="1"/>
        <pt x="948" y="1137" on="1"/>
        <pt x="1052" y="1032" on="1"/>
        <pt x="956" y="936" on="1"/>
        <pt x="1036" y="819" on="0"/>
        <pt x="1036" y="684" on="1"/>
        <pt x="1036" y="546" on="0"/>
        <pt x="954" y="432" on="1"/>
        <pt x="1054" y="332" on="1"/>
        <pt x="952" y="227" on="1"/>
        <pt x="851" y="328" on="1"/>
        <pt x="737" y="250" on="0"/>
        <pt x="600" y="250" on="1"/>
        <pt x="457" y="250" on="0"/>
        <pt x="348" y="330" on="1"/>
        <pt x="243" y="225" on="1"/>
        <pt x="141" y="330" on="1"/>
        <pt x="243" y="432" on="1"/>
        <pt x="165" y="546" on="0"/>
      </contour>
      <contour>
        <pt x="319" y="686" on="1"/>
        <pt x="319" y="572" on="0"/>
        <pt x="483" y="406" on="0"/>
        <pt x="600" y="406" on="1"/>
        <pt x="714" y="406" on="0"/>
        <pt x="880" y="568" on="0"/>
        <pt x="880" y="686" on="1"/>
        <pt x="880" y="802" on="0"/>
        <pt x="715" y="967" on="0"/>
        <pt x="600" y="967" on="1"/>
        <pt x="483" y="967" on="0"/>
        <pt x="319" y="800" on="0"/>
      </contour>
    </TTGlyph>
    <TTGlyph name="cyrillic_otmark" xMin="-293" yMin="1214" xMax="620" yMax="1409">
      <contour>
        <pt x="620" y="1409" on="1"/>
        <pt x="492" y="1214" on="1"/>
        <pt x="452" y="1214" on="1"/>
        <pt x="425" y="1315" on="1"/>
        <pt x="212" y="1315" on="1"/>
        <pt x="145" y="1214" on="1"/>
        <pt x="105" y="1214" on="1"/>
        <pt x="78" y="1315" on="1"/>
        <pt x="-134" y="1315" on="1"/>
        <pt x="-201" y="1214" on="1"/>
        <pt x="-241" y="1214" on="1"/>
        <pt x="-293" y="1409" on="1"/>
      </contour>
    </TTGlyph>
    <TTGlyph name="d" xMin="69" yMin="-21" xMax="1193" yMax="1484">
      <contour>
        <pt x="401" y="-21" on="1"/>
        <pt x="244" y="-21" on="0"/>
        <pt x="69" y="168" on="0"/>
        <pt x="69" y="333" on="1"/>
        <pt x="69" y="536" on="0"/>
        <pt x="192" y="917" on="0"/>
        <pt x="415" y="1101" on="0"/>
        <pt x="588" y="1101" on="1"/>
        <pt x="711" y="1101" on="0"/>
        <pt x="866" y="997" on="0"/>
        <pt x="898" y="903" on="1"/>
        <pt x="903" y="903" on="1"/>
        <pt x="931" y="1065" on="1"/>
        <pt x="1013" y="1484" on="1"/>
        <pt x="1193" y="1484" on="1"/>
        <pt x="948" y="223" on="1"/>
        <pt x="919" y="82" on="0"/>
        <pt x="910" y="0" on="1"/>
        <pt x="738" y="0" on="1"/>
        <pt x="738" y="51" on="0"/>
        <pt x="759" y="160" on="1"/>
        <pt x="754" y="160" on="1"/>
        <pt x="681" y="65" on="0"/>
        <pt x="519" y="-21" on="0"/>
      </contour>
      <contour>
        <pt x="453" y="118" on="1"/>
        <pt x="552" y="118" on="0"/>
        <pt x="693" y="199" on="0"/>
        <pt x="791" y="362" on="0"/>
        <pt x="847" y="607" on="0"/>
        <pt x="847" y="704" on="1"/>
        <pt x="847" y="829" on="0"/>
        <pt x="720" y="968" on="0"/>
        <pt x="607" y="968" on="1"/>
        <pt x="485" y="968" on="0"/>
        <pt x="343" y="823" on="0"/>
        <pt x="257" y="494" on="0"/>
        <pt x="257" y="365" on="1"/>
        <pt x="257" y="242" on="0"/>
        <pt x="351" y="118" on="0"/>
      </contour>
    </TTGlyph>
    <TTGlyph name="dagesh" xMin="-45" yMin="625" xMax="113" yMax="782">
      <contour>
        <pt x="-45" y="705" on="1"/>
        <pt x="-45" y="737" on="0"/>
        <pt x="1" y="782" on="0"/>
        <pt x="33" y="782" on="1"/>
        <pt x="67" y="782" on="0"/>
        <pt x="113" y="737" on="0"/>
        <pt x="113" y="705" on="1"/>
        <pt x="113" y="670" on="0"/>
        <pt x="67" y="625" on="0"/>
        <pt x="33" y="625" on="1"/>
        <pt x="1" y="625" on="0"/>
        <pt x="-45" y="670" on="0"/>
      </contour>
    </TTGlyph>
    <TTGlyph name="dagger" xMin="216" yMin="-138" xMax="1112" yMax="1484">
      <contour>
        <pt x="732" y="1000" on="1"/>
        <pt x="489" y="-138" on="1"/>
        <pt x="374" y="-138" on="1"/>
        <pt x="573" y="1000" on="1"/>
        <pt x="216" y="973" on="1"/>
        <pt x="248" y="1137" on="1"/>
        <pt x="594" y="1108" on="1"/>
        <pt x="639" y="1484" on="1"/>
        <pt x="854" y="1484" on="1"/>
        <pt x="753" y="1108" on="1"/>
        <pt x="1112" y="1137" on="1"/>
        <pt x="1080" y="973" on="1"/>
      </contour>
    </TTGlyph>
    <TTGlyph name="daggerdbl" xMin="68" yMin="-141" xMax="1114" yMax="1484">
      <contour>
        <pt x="583" y="1000" on="1"/>
        <pt x="218" y="973" on="1"/>
        <pt x="250" y="1137" on="1"/>
        <pt x="604" y="1108" on="1"/>
        <pt x="661" y="1484" on="1"/>
        <pt x="836" y="1484" on="1"/>
        <pt x="747" y="1108" on="1"/>
        <pt x="1114" y="1137" on="1"/>
        <pt x="1082" y="973" on="1"/>
        <pt x="726" y="1000" on="1"/>
        <pt x="636" y="670" on="1"/>
        <pt x="599" y="343" on="1"/>
        <pt x="964" y="370" on="1"/>
        <pt x="932" y="206" on="1"/>
        <pt x="578" y="235" on="1"/>
        <pt x="520" y="-141" on="1"/>
        <pt x="345" y="-141" on="1"/>
        <pt x="435" y="235" on="1"/>
        <pt x="68" y="206" on="1"/>
        <pt x="100" y="370" on="1"/>
        <pt x="456" y="343" on="1"/>
        <pt x="545" y="670" on="1"/>
      </contour>
    </TTGlyph>
    <TTGlyph name="dalet" xMin="143" yMin="0" xMax="1214" yMax="1227">
      <contour>
        <pt x="823" y="0" on="1"/>
        <pt x="639" y="0" on="1"/>
        <pt x="844" y="1057" on="1"/>
        <pt x="143" y="1057" on="1"/>
        <pt x="176" y="1227" on="1"/>
        <pt x="1214" y="1227" on="1"/>
        <pt x="1182" y="1057" on="1"/>
        <pt x="1028" y="1057" on="1"/>
      </contour>
    </TTGlyph>
    <TTGlyph name="daletdagesh" xMin="143" yMin="0" xMax="1214" yMax="1227">
      <component glyphName="dalet" x="0" y="0" flags="0x204"/>
      <component glyphName="dagesh" x="383" y="0" flags="0x4"/>
    </TTGlyph>
    <TTGlyph name="daletwide" xMin="143" yMin="0" xMax="1214" yMax="1227">
      <component glyphName="dalet" x="0" y="0" flags="0x204"/>
    </TTGlyph>
    <TTGlyph name="dcaron" xMin="69" yMin="-21" xMax="1479" yMax="1484">
      <component glyphName="d" x="0" y="0" flags="0x4"/>
      <component glyphName="caroncommaaccent" x="961" y="75" flags="0x4"/>
    </TTGlyph>
    <TTGlyph name="dcroat" xMin="69" yMin="-21" xMax="1297" yMax="1484">
      <contour>
        <pt x="453" y="118" on="1"/>
        <pt x="552" y="118" on="0"/>
        <pt x="693" y="199" on="0"/>
        <pt x="791" y="362" on="0"/>
        <pt x="847" y="607" on="0"/>
        <pt x="847" y="704" on="1"/>
        <pt x="847" y="829" on="0"/>
        <pt x="720" y="968" on="0"/>
        <pt x="607" y="968" on="1"/>
        <pt x="485" y="968" on="0"/>
        <pt x="343" y="823" on="0"/>
        <pt x="257" y="494" on="0"/>
        <pt x="257" y="365" on="1"/>
        <pt x="257" y="242" on="0"/>
        <pt x="351" y="118" on="0"/>
      </contour>
      <contour>
        <pt x="401" y="-21" on="1"/>
        <pt x="244" y="-21" on="0"/>
        <pt x="69" y="168" on="0"/>
        <pt x="69" y="333" on="1"/>
        <pt x="69" y="536" on="0"/>
        <pt x="192" y="917" on="0"/>
        <pt x="415" y="1101" on="0"/>
        <pt x="588" y="1101" on="1"/>
        <pt x="711" y="1101" on="0"/>
        <pt x="866" y="997" on="0"/>
        <pt x="898" y="903" on="1"/>
        <pt x="903" y="903" on="1"/>
        <pt x="960" y="1206" on="1"/>
        <pt x="660" y="1206" on="1"/>
        <pt x="685" y="1337" on="1"/>
        <pt x="985" y="1337" on="1"/>
        <pt x="1014" y="1484" on="1"/>
        <pt x="1194" y="1484" on="1"/>
        <pt x="1165" y="1337" on="1"/>
        <pt x="1297" y="1337" on="1"/>
        <pt x="1272" y="1206" on="1"/>
        <pt x="1140" y="1206" on="1"/>
        <pt x="948" y="223" on="1"/>
        <pt x="919" y="82" on="0"/>
        <pt x="910" y="0" on="1"/>
        <pt x="738" y="0" on="1"/>
        <pt x="738" y="51" on="0"/>
        <pt x="759" y="160" on="1"/>
        <pt x="755" y="160" on="1"/>
        <pt x="682" y="65" on="0"/>
        <pt x="520" y="-21" on="0"/>
      </contour>
    </TTGlyph>
    <TTGlyph name="degree" xMin="196" yMin="860" xMax="770" yMax="1430">
      <contour>
        <pt x="770" y="1145" on="1"/>
        <pt x="770" y="1026" on="0"/>
        <pt x="601" y="860" on="0"/>
        <pt x="483" y="860" on="1"/>
        <pt x="365" y="860" on="0"/>
        <pt x="196" y="1028" on="0"/>
        <pt x="196" y="1145" on="1"/>
        <pt x="196" y="1262" on="0"/>
        <pt x="363" y="1430" on="0"/>
        <pt x="483" y="1430" on="1"/>
        <pt x="603" y="1430" on="0"/>
        <pt x="770" y="1264" on="0"/>
      </contour>
      <contour>
        <pt x="661" y="1145" on="1"/>
        <pt x="661" y="1221" on="0"/>
        <pt x="558" y="1325" on="0"/>
        <pt x="483" y="1325" on="1"/>
        <pt x="408" y="1325" on="0"/>
        <pt x="305" y="1219" on="0"/>
        <pt x="305" y="1145" on="1"/>
        <pt x="305" y="1071" on="0"/>
        <pt x="410" y="965" on="0"/>
        <pt x="483" y="965" on="1"/>
        <pt x="557" y="965" on="0"/>
        <pt x="661" y="1070" on="0"/>
      </contour>
    </TTGlyph>
    <TTGlyph name="delta" xMin="67" yMin="-20" xMax="1156" yMax="1484">
      <contour>
        <pt x="511" y="113" on="1"/>
        <pt x="676" y="113" on="0"/>
        <pt x="868" y="345" on="0"/>
        <pt x="868" y="540" on="1"/>
        <pt x="868" y="645" on="0"/>
        <pt x="805" y="829" on="0"/>
        <pt x="727" y="929" on="1"/>
        <pt x="481" y="850" on="0"/>
        <pt x="258" y="583" on="0"/>
        <pt x="258" y="389" on="1"/>
        <pt x="258" y="259" on="0"/>
        <pt x="395" y="113" on="0"/>
      </contour>
      <contour>
        <pt x="759" y="1352" on="1"/>
        <pt x="607" y="1360" on="1"/>
        <pt x="860" y="1036" on="1"/>
        <pt x="970" y="897" on="0"/>
        <pt x="1059" y="664" on="0"/>
        <pt x="1059" y="547" on="1"/>
        <pt x="1059" y="381" on="0"/>
        <pt x="918" y="121" on="0"/>
        <pt x="662" y="-20" on="0"/>
        <pt x="501" y="-20" on="1"/>
        <pt x="299" y="-20" on="0"/>
        <pt x="67" y="206" on="0"/>
        <pt x="67" y="396" on="1"/>
        <pt x="67" y="626" on="0"/>
        <pt x="357" y="946" on="0"/>
        <pt x="653" y="1026" on="1"/>
        <pt x="400" y="1365" on="1"/>
        <pt x="423" y="1484" on="1"/>
        <pt x="1156" y="1484" on="1"/>
        <pt x="1130" y="1352" on="1"/>
      </contour>
    </TTGlyph>
    <TTGlyph name="diamond" xMin="66" yMin="-25" xMax="978" yMax="1223">
      <contour>
        <pt x="519" y="1223" on="1"/>
        <pt x="591" y="1098" on="0"/>
        <pt x="856" y="737" on="0"/>
        <pt x="978" y="600" on="1"/>
        <pt x="910" y="530" on="0"/>
        <pt x="604" y="123" on="0"/>
        <pt x="521" y="-25" on="1"/>
        <pt x="484" y="46" on="0"/>
        <pt x="299" y="307" on="0"/>
        <pt x="151" y="498" on="0"/>
        <pt x="66" y="600" on="1"/>
        <pt x="182" y="737" on="0"/>
        <pt x="441" y="1082" on="0"/>
      </contour>
    </TTGlyph>
    <TTGlyph name="dieresis" xMin="137" yMin="1219" xMax="729" yMax="1403">
      <contour>
        <pt x="521" y="1219" on="1"/>
        <pt x="556" y="1403" on="1"/>
        <pt x="729" y="1403" on="1"/>
        <pt x="694" y="1219" on="1"/>
      </contour>
      <contour>
        <pt x="137" y="1219" on="1"/>
        <pt x="172" y="1403" on="1"/>
        <pt x="347" y="1403" on="1"/>
        <pt x="312" y="1219" on="1"/>
      </contour>
    </TTGlyph>
    <TTGlyph name="dieresis.uc" xMin="247" yMin="1530" xMax="839" yMax="1714">
      <contour>
        <pt x="631" y="1530" on="1"/>
        <pt x="666" y="1714" on="1"/>
        <pt x="839" y="1714" on="1"/>
        <pt x="804" y="1530" on="1"/>
      </contour>
      <contour>
        <pt x="247" y="1530" on="1"/>
        <pt x="282" y="1714" on="1"/>
        <pt x="457" y="1714" on="1"/>
        <pt x="422" y="1530" on="1"/>
      </contour>
    </TTGlyph>
    <TTGlyph name="dieresistonos" xMin="-4" yMin="1200" xMax="651" yMax="1601">
      <contour>
        <pt x="210" y="1200" on="1"/>
        <pt x="217" y="1233" on="1"/>
        <pt x="357" y="1601" on="1"/>
        <pt x="544" y="1601" on="1"/>
        <pt x="537" y="1564" on="1"/>
        <pt x="285" y="1200" on="1"/>
      </contour>
      <contour>
        <pt x="-4" y="1231" on="1"/>
        <pt x="29" y="1403" on="1"/>
        <pt x="179" y="1403" on="1"/>
        <pt x="145" y="1231" on="1"/>
      </contour>
      <contour>
        <pt x="467" y="1231" on="1"/>
        <pt x="501" y="1403" on="1"/>
        <pt x="651" y="1403" on="1"/>
        <pt x="617" y="1231" on="1"/>
      </contour>
    </TTGlyph>
    <TTGlyph name="divide" xMin="82" yMin="223" xMax="1077" yMax="1141">
      <contour>
        <pt x="495" y="958" on="1"/>
        <pt x="495" y="1141" on="1"/>
        <pt x="663" y="1141" on="1"/>
        <pt x="663" y="958" on="1"/>
      </contour>
      <contour>
        <pt x="82" y="608" on="1"/>
        <pt x="82" y="754" on="1"/>
        <pt x="1077" y="754" on="1"/>
        <pt x="1077" y="608" on="1"/>
      </contour>
      <contour>
        <pt x="495" y="223" on="1"/>
        <pt x="495" y="406" on="1"/>
        <pt x="663" y="406" on="1"/>
        <pt x="663" y="223" on="1"/>
      </contour>
    </TTGlyph>
    <TTGlyph name="dkshade" xMin="0" yMin="-621" xMax="1493" yMax="1699">
      <contour>
        <pt x="1493" y="-621" on="1"/>
        <pt x="0" y="-621" on="1"/>
        <pt x="0" y="-331" on="1"/>
        <pt x="106" y="-331" on="1"/>
        <pt x="106" y="-234" on="1"/>
        <pt x="0" y="-234" on="1"/>
        <pt x="0" y="56" on="1"/>
        <pt x="106" y="56" on="1"/>
        <pt x="106" y="153" on="1"/>
        <pt x="0" y="153" on="1"/>
        <pt x="0" y="444" on="1"/>
        <pt x="106" y="444" on="1"/>
        <pt x="106" y="540" on="1"/>
        <pt x="0" y="540" on="1"/>
        <pt x="0" y="829" on="1"/>
        <pt x="106" y="829" on="1"/>
        <pt x="106" y="927" on="1"/>
        <pt x="0" y="927" on="1"/>
        <pt x="0" y="1216" on="1"/>
        <pt x="106" y="1216" on="1"/>
        <pt x="106" y="1314" on="1"/>
        <pt x="0" y="1314" on="1"/>
        <pt x="0" y="1603" on="1"/>
        <pt x="106" y="1603" on="1"/>
        <pt x="106" y="1699" on="1"/>
        <pt x="213" y="1699" on="1"/>
        <pt x="213" y="1603" on="1"/>
        <pt x="319" y="1603" on="1"/>
        <pt x="319" y="1699" on="1"/>
        <pt x="426" y="1699" on="1"/>
        <pt x="426" y="1603" on="1"/>
        <pt x="532" y="1603" on="1"/>
        <pt x="532" y="1699" on="1"/>
        <pt x="639" y="1699" on="1"/>
        <pt x="639" y="1603" on="1"/>
        <pt x="746" y="1603" on="1"/>
        <pt x="746" y="1699" on="1"/>
        <pt x="853" y="1699" on="1"/>
        <pt x="853" y="1603" on="1"/>
        <pt x="960" y="1603" on="1"/>
        <pt x="960" y="1699" on="1"/>
        <pt x="1067" y="1699" on="1"/>
        <pt x="1067" y="1603" on="1"/>
        <pt x="1173" y="1603" on="1"/>
        <pt x="1173" y="1699" on="1"/>
        <pt x="1280" y="1699" on="1"/>
        <pt x="1280" y="1603" on="1"/>
        <pt x="1386" y="1603" on="1"/>
        <pt x="1386" y="1699" on="1"/>
        <pt x="1493" y="1699" on="1"/>
        <pt x="1493" y="1506" on="1"/>
        <pt x="1386" y="1506" on="1"/>
        <pt x="1386" y="1408" on="1"/>
        <pt x="1493" y="1408" on="1"/>
        <pt x="1493" y="1119" on="1"/>
        <pt x="1386" y="1119" on="1"/>
        <pt x="1386" y="1023" on="1"/>
        <pt x="1493" y="1023" on="1"/>
        <pt x="1493" y="732" on="1"/>
        <pt x="1386" y="732" on="1"/>
        <pt x="1386" y="636" on="1"/>
        <pt x="1493" y="636" on="1"/>
        <pt x="1493" y="345" on="1"/>
        <pt x="1386" y="345" on="1"/>
        <pt x="1386" y="249" on="1"/>
        <pt x="1493" y="249" on="1"/>
        <pt x="1493" y="-42" on="1"/>
        <pt x="1386" y="-42" on="1"/>
        <pt x="1386" y="-136" on="1"/>
        <pt x="1493" y="-136" on="1"/>
        <pt x="1493" y="-427" on="1"/>
        <pt x="1386" y="-427" on="1"/>
        <pt x="1386" y="-523" on="1"/>
        <pt x="1493" y="-523" on="1"/>
      </contour>
      <contour>
        <pt x="106" y="1119" on="1"/>
        <pt x="106" y="1023" on="1"/>
        <pt x="213" y="1023" on="1"/>
        <pt x="213" y="1119" on="1"/>
      </contour>
      <contour>
        <pt x="319" y="1119" on="1"/>
        <pt x="319" y="1023" on="1"/>
        <pt x="426" y="1023" on="1"/>
        <pt x="426" y="1119" on="1"/>
      </contour>
      <contour>
        <pt x="532" y="1119" on="1"/>
        <pt x="532" y="1023" on="1"/>
        <pt x="639" y="1023" on="1"/>
        <pt x="639" y="1119" on="1"/>
      </contour>
      <contour>
        <pt x="746" y="1119" on="1"/>
        <pt x="746" y="1023" on="1"/>
        <pt x="853" y="1023" on="1"/>
        <pt x="853" y="1119" on="1"/>
      </contour>
      <contour>
        <pt x="960" y="927" on="1"/>
        <pt x="853" y="927" on="1"/>
        <pt x="853" y="829" on="1"/>
        <pt x="960" y="829" on="1"/>
      </contour>
      <contour>
        <pt x="746" y="927" on="1"/>
        <pt x="639" y="927" on="1"/>
        <pt x="639" y="829" on="1"/>
        <pt x="746" y="829" on="1"/>
      </contour>
      <contour>
        <pt x="532" y="927" on="1"/>
        <pt x="426" y="927" on="1"/>
        <pt x="426" y="829" on="1"/>
        <pt x="532" y="829" on="1"/>
      </contour>
      <contour>
        <pt x="319" y="927" on="1"/>
        <pt x="213" y="927" on="1"/>
        <pt x="213" y="829" on="1"/>
        <pt x="319" y="829" on="1"/>
      </contour>
      <contour>
        <pt x="106" y="732" on="1"/>
        <pt x="106" y="636" on="1"/>
        <pt x="213" y="636" on="1"/>
        <pt x="213" y="732" on="1"/>
      </contour>
      <contour>
        <pt x="319" y="732" on="1"/>
        <pt x="319" y="636" on="1"/>
        <pt x="426" y="636" on="1"/>
        <pt x="426" y="732" on="1"/>
      </contour>
      <contour>
        <pt x="532" y="732" on="1"/>
        <pt x="532" y="636" on="1"/>
        <pt x="639" y="636" on="1"/>
        <pt x="639" y="732" on="1"/>
      </contour>
      <contour>
        <pt x="746" y="732" on="1"/>
        <pt x="746" y="636" on="1"/>
        <pt x="853" y="636" on="1"/>
        <pt x="853" y="732" on="1"/>
      </contour>
      <contour>
        <pt x="319" y="540" on="1"/>
        <pt x="213" y="540" on="1"/>
        <pt x="213" y="444" on="1"/>
        <pt x="319" y="444" on="1"/>
      </contour>
      <contour>
        <pt x="426" y="540" on="1"/>
        <pt x="426" y="444" on="1"/>
        <pt x="532" y="444" on="1"/>
        <pt x="532" y="540" on="1"/>
      </contour>
      <contour>
        <pt x="639" y="540" on="1"/>
        <pt x="639" y="444" on="1"/>
        <pt x="746" y="444" on="1"/>
        <pt x="746" y="540" on="1"/>
      </contour>
      <contour>
        <pt x="853" y="540" on="1"/>
        <pt x="853" y="444" on="1"/>
        <pt x="960" y="444" on="1"/>
        <pt x="960" y="540" on="1"/>
      </contour>
      <contour>
        <pt x="106" y="345" on="1"/>
        <pt x="106" y="249" on="1"/>
        <pt x="213" y="249" on="1"/>
        <pt x="213" y="345" on="1"/>
      </contour>
      <contour>
        <pt x="532" y="345" on="1"/>
        <pt x="532" y="249" on="1"/>
        <pt x="639" y="249" on="1"/>
        <pt x="639" y="345" on="1"/>
      </contour>
      <contour>
        <pt x="426" y="249" on="1"/>
        <pt x="426" y="345" on="1"/>
        <pt x="319" y="345" on="1"/>
        <pt x="319" y="249" on="1"/>
      </contour>
      <contour>
        <pt x="746" y="345" on="1"/>
        <pt x="746" y="249" on="1"/>
        <pt x="853" y="249" on="1"/>
        <pt x="853" y="345" on="1"/>
      </contour>
      <contour>
        <pt x="960" y="56" on="1"/>
        <pt x="960" y="153" on="1"/>
        <pt x="853" y="153" on="1"/>
        <pt x="853" y="56" on="1"/>
      </contour>
      <contour>
        <pt x="746" y="56" on="1"/>
        <pt x="746" y="153" on="1"/>
        <pt x="639" y="153" on="1"/>
        <pt x="639" y="56" on="1"/>
      </contour>
      <contour>
        <pt x="532" y="56" on="1"/>
        <pt x="532" y="153" on="1"/>
        <pt x="426" y="153" on="1"/>
        <pt x="426" y="56" on="1"/>
      </contour>
      <contour>
        <pt x="319" y="56" on="1"/>
        <pt x="319" y="153" on="1"/>
        <pt x="213" y="153" on="1"/>
        <pt x="213" y="56" on="1"/>
      </contour>
      <contour>
        <pt x="106" y="-42" on="1"/>
        <pt x="106" y="-136" on="1"/>
        <pt x="213" y="-136" on="1"/>
        <pt x="213" y="-42" on="1"/>
      </contour>
      <contour>
        <pt x="319" y="-42" on="1"/>
        <pt x="319" y="-136" on="1"/>
        <pt x="426" y="-136" on="1"/>
        <pt x="426" y="-42" on="1"/>
      </contour>
      <contour>
        <pt x="532" y="-42" on="1"/>
        <pt x="532" y="-136" on="1"/>
        <pt x="639" y="-136" on="1"/>
        <pt x="639" y="-42" on="1"/>
      </contour>
      <contour>
        <pt x="746" y="-42" on="1"/>
        <pt x="746" y="-136" on="1"/>
        <pt x="853" y="-136" on="1"/>
        <pt x="853" y="-42" on="1"/>
      </contour>
      <contour>
        <pt x="960" y="-331" on="1"/>
        <pt x="960" y="-234" on="1"/>
        <pt x="853" y="-234" on="1"/>
        <pt x="853" y="-331" on="1"/>
      </contour>
      <contour>
        <pt x="746" y="-331" on="1"/>
        <pt x="746" y="-234" on="1"/>
        <pt x="639" y="-234" on="1"/>
        <pt x="639" y="-331" on="1"/>
      </contour>
      <contour>
        <pt x="532" y="-331" on="1"/>
        <pt x="532" y="-234" on="1"/>
        <pt x="426" y="-234" on="1"/>
        <pt x="426" y="-331" on="1"/>
      </contour>
      <contour>
        <pt x="319" y="-331" on="1"/>
        <pt x="319" y="-234" on="1"/>
        <pt x="213" y="-234" on="1"/>
        <pt x="213" y="-331" on="1"/>
      </contour>
      <contour>
        <pt x="106" y="-427" on="1"/>
        <pt x="106" y="-523" on="1"/>
        <pt x="213" y="-523" on="1"/>
        <pt x="213" y="-427" on="1"/>
      </contour>
      <contour>
        <pt x="319" y="-427" on="1"/>
        <pt x="319" y="-523" on="1"/>
        <pt x="426" y="-523" on="1"/>
        <pt x="426" y="-427" on="1"/>
      </contour>
      <contour>
        <pt x="532" y="-427" on="1"/>
        <pt x="532" y="-523" on="1"/>
        <pt x="639" y="-523" on="1"/>
        <pt x="639" y="-427" on="1"/>
      </contour>
      <contour>
        <pt x="746" y="-427" on="1"/>
        <pt x="746" y="-523" on="1"/>
        <pt x="853" y="-523" on="1"/>
        <pt x="853" y="-427" on="1"/>
      </contour>
      <contour>
        <pt x="960" y="1314" on="1"/>
        <pt x="853" y="1314" on="1"/>
        <pt x="853" y="1216" on="1"/>
        <pt x="960" y="1216" on="1"/>
      </contour>
      <contour>
        <pt x="746" y="1314" on="1"/>
        <pt x="639" y="1314" on="1"/>
        <pt x="639" y="1216" on="1"/>
        <pt x="746" y="1216" on="1"/>
      </contour>
      <contour>
        <pt x="532" y="1314" on="1"/>
        <pt x="426" y="1314" on="1"/>
        <pt x="426" y="1216" on="1"/>
        <pt x="532" y="1216" on="1"/>
      </contour>
      <contour>
        <pt x="319" y="1314" on="1"/>
        <pt x="213" y="1314" on="1"/>
        <pt x="213" y="1216" on="1"/>
        <pt x="319" y="1216" on="1"/>
      </contour>
      <contour>
        <pt x="853" y="1506" on="1"/>
        <pt x="746" y="1506" on="1"/>
        <pt x="746" y="1408" on="1"/>
        <pt x="853" y="1408" on="1"/>
      </contour>
      <contour>
        <pt x="639" y="1506" on="1"/>
        <pt x="532" y="1506" on="1"/>
        <pt x="532" y="1408" on="1"/>
        <pt x="639" y="1408" on="1"/>
      </contour>
      <contour>
        <pt x="426" y="1506" on="1"/>
        <pt x="319" y="1506" on="1"/>
        <pt x="319" y="1408" on="1"/>
        <pt x="426" y="1408" on="1"/>
      </contour>
      <contour>
        <pt x="213" y="1506" on="1"/>
        <pt x="106" y="1506" on="1"/>
        <pt x="106" y="1408" on="1"/>
        <pt x="213" y="1408" on="1"/>
      </contour>
      <contour>
        <pt x="960" y="1119" on="1"/>
        <pt x="960" y="1023" on="1"/>
        <pt x="1067" y="1023" on="1"/>
        <pt x="1067" y="1119" on="1"/>
      </contour>
      <contour>
        <pt x="1173" y="1119" on="1"/>
        <pt x="1173" y="1023" on="1"/>
        <pt x="1280" y="1023" on="1"/>
        <pt x="1280" y="1119" on="1"/>
      </contour>
      <contour>
        <pt x="1386" y="927" on="1"/>
        <pt x="1280" y="927" on="1"/>
        <pt x="1280" y="829" on="1"/>
        <pt x="1386" y="829" on="1"/>
      </contour>
      <contour>
        <pt x="1173" y="927" on="1"/>
        <pt x="1067" y="927" on="1"/>
        <pt x="1067" y="829" on="1"/>
        <pt x="1173" y="829" on="1"/>
      </contour>
      <contour>
        <pt x="960" y="732" on="1"/>
        <pt x="960" y="636" on="1"/>
        <pt x="1067" y="636" on="1"/>
        <pt x="1067" y="732" on="1"/>
      </contour>
      <contour>
        <pt x="1173" y="732" on="1"/>
        <pt x="1173" y="636" on="1"/>
        <pt x="1280" y="636" on="1"/>
        <pt x="1280" y="732" on="1"/>
      </contour>
      <contour>
        <pt x="1173" y="540" on="1"/>
        <pt x="1067" y="540" on="1"/>
        <pt x="1067" y="444" on="1"/>
        <pt x="1173" y="444" on="1"/>
      </contour>
      <contour>
        <pt x="1280" y="540" on="1"/>
        <pt x="1280" y="444" on="1"/>
        <pt x="1386" y="444" on="1"/>
        <pt x="1386" y="540" on="1"/>
      </contour>
      <contour>
        <pt x="960" y="345" on="1"/>
        <pt x="960" y="249" on="1"/>
        <pt x="1067" y="249" on="1"/>
        <pt x="1067" y="345" on="1"/>
      </contour>
      <contour>
        <pt x="1280" y="249" on="1"/>
        <pt x="1280" y="345" on="1"/>
        <pt x="1173" y="345" on="1"/>
        <pt x="1173" y="249" on="1"/>
      </contour>
      <contour>
        <pt x="1386" y="56" on="1"/>
        <pt x="1386" y="153" on="1"/>
        <pt x="1280" y="153" on="1"/>
        <pt x="1280" y="56" on="1"/>
      </contour>
      <contour>
        <pt x="1173" y="56" on="1"/>
        <pt x="1173" y="153" on="1"/>
        <pt x="1067" y="153" on="1"/>
        <pt x="1067" y="56" on="1"/>
      </contour>
      <contour>
        <pt x="960" y="-42" on="1"/>
        <pt x="960" y="-136" on="1"/>
        <pt x="1067" y="-136" on="1"/>
        <pt x="1067" y="-42" on="1"/>
      </contour>
      <contour>
        <pt x="1173" y="-42" on="1"/>
        <pt x="1173" y="-136" on="1"/>
        <pt x="1280" y="-136" on="1"/>
        <pt x="1280" y="-42" on="1"/>
      </contour>
      <contour>
        <pt x="1386" y="-331" on="1"/>
        <pt x="1386" y="-234" on="1"/>
        <pt x="1280" y="-234" on="1"/>
        <pt x="1280" y="-331" on="1"/>
      </contour>
      <contour>
        <pt x="1173" y="-331" on="1"/>
        <pt x="1173" y="-234" on="1"/>
        <pt x="1067" y="-234" on="1"/>
        <pt x="1067" y="-331" on="1"/>
      </contour>
      <contour>
        <pt x="960" y="-427" on="1"/>
        <pt x="960" y="-523" on="1"/>
        <pt x="1067" y="-523" on="1"/>
        <pt x="1067" y="-427" on="1"/>
      </contour>
      <contour>
        <pt x="1173" y="-427" on="1"/>
        <pt x="1173" y="-523" on="1"/>
        <pt x="1280" y="-523" on="1"/>
        <pt x="1280" y="-427" on="1"/>
      </contour>
      <contour>
        <pt x="1386" y="1314" on="1"/>
        <pt x="1280" y="1314" on="1"/>
        <pt x="1280" y="1216" on="1"/>
        <pt x="1386" y="1216" on="1"/>
      </contour>
      <contour>
        <pt x="1173" y="1314" on="1"/>
        <pt x="1067" y="1314" on="1"/>
        <pt x="1067" y="1216" on="1"/>
        <pt x="1173" y="1216" on="1"/>
      </contour>
      <contour>
        <pt x="1280" y="1506" on="1"/>
        <pt x="1173" y="1506" on="1"/>
        <pt x="1173" y="1408" on="1"/>
        <pt x="1280" y="1408" on="1"/>
      </contour>
      <contour>
        <pt x="1067" y="1506" on="1"/>
        <pt x="960" y="1506" on="1"/>
        <pt x="960" y="1408" on="1"/>
        <pt x="1067" y="1408" on="1"/>
      </contour>
    </TTGlyph>
    <TTGlyph name="dnblock" xMin="0" yMin="-621" xMax="1451" yMax="621">
      <contour>
        <pt x="1451" y="-621" on="1"/>
        <pt x="0" y="-621" on="1"/>
        <pt x="0" y="621" on="1"/>
        <pt x="1451" y="621" on="1"/>
      </contour>
    </TTGlyph>
</ttFont>
